<svg width="341px" height="147px" viewBox="0 0 341 147" version="1.1" xmlns="http://www.w3.org/2000/svg" xmlns:xlink="http://www.w3.org/1999/xlink"><g id="Page-1" stroke="none" stroke-width="1" fill="none" fill-rule="evenodd"><g id="Floorplan" transform="translate(-741.000000, -339.000000)"><g id="Group-39" transform="translate(742.000000, 339.000000)"><rect id="Rectangle" stroke="#315873" stroke-width="2" fill="#FFFFFF" x="19.1376953" y="137" width="147" height="9"></rect><rect id="Rectangle" stroke="#245976" stroke-width="2" fill="#FFFFFF" x="26.1376953" y="51" width="133" height="86"></rect><rect id="Rectangle" stroke="#005B7C" stroke-width="2" fill="#D3DAE2" x="82.1376953" y="97" width="21" height="40"></rect><g id="Group-33" transform="translate(37.137695, 74.000000)" stroke-width="2"><rect id="Rectangle" stroke="#035A79" fill="#8399AB" x="1" y="1" width="30" height="28"></rect><path d="M1.5,15 L30.7246094,15" id="Line-12" stroke="#005B7C" stroke-linecap="square"></path><path d="M16,1.5 L16,28.1201172" id="Line-11" stroke="#035A79" stroke-linecap="square"></path></g><g id="Group-33-Copy" transform="translate(114.137695, 74.000000)" stroke-width="2"><rect id="Rectangle" stroke="#035A79" fill="#8399AB" x="1" y="1" width="30" height="28"></rect><path d="M1.5,15 L30.7246094,15" id="Line-12" stroke="#005B7C" stroke-linecap="square"></path><path d="M16,1.5 L16,28.1201172" id="Line-11" stroke="#035A79" stroke-linecap="square"></path></g><circle id="Oval" fill="#035A79" cx="98.1376953" cy="121" r="2"></circle><path d="M26.9550781,120 L44.5898438,120" id="Line-13" stroke="#245976" stroke-width="2" stroke-linecap="round"></path><path d="M41.7290039,124 L51.9116211,124" id="Line-13-Copy" stroke="#245976" stroke-width="2" stroke-linecap="round"></path><path d="M124.729004,127 L134.911621,127" id="Line-13-Copy-2" stroke="#245976" stroke-width="2" stroke-linecap="round"></path><path d="M141.137695,121 L145.911621,121" id="Line-13-Copy-3" stroke="#245976" stroke-width="2" stroke-linecap="round"></path><path d="M23.897781,17 L14.4533365,51 L170.822054,51 L161.37761,17 L23.897781,17 Z" id="Rectangle" stroke="#005C7F" stroke-width="2" fill="#D2DAE3"></path><path d="M20.6376953,33.5 L164.137695,33.5" id="Line-14" stroke="#035A79" stroke-width="2" stroke-linecap="square"></path><rect id="Rectangle" stroke="#005D82" stroke-width="2" fill="#FFFFFF" x="31.1376953" y="8" width="18" height="9"></rect><path d="M0.637695313,146 L338.724609,146" id="Line-15" stroke="#035A79" stroke-width="2" stroke-linecap="square"></path><rect id="Rectangle" stroke="#005D82" stroke-width="2" fill="#D0DAE4" x="186.137695" y="1" width="54" height="145"></rect><g id="Group-36-Copy" transform="translate(197.137695, 36.000000)" stroke="#005E86" stroke-linecap="round" stroke-width="2"><path d="M0.560732937,0.35557567 L0.560732937,4.96875" id="Line-17"></path><path d="M14.5607329,0.35557567 L14.5607329,4.96875" id="Line-17-Copy"></path><path d="M28.5607329,0.35557567 L28.5607329,4.96875" id="Line-17-Copy-2"></path></g><g id="Group-36-Copy-9" transform="translate(197.137695, 20.000000)" stroke="#005E86" stroke-linecap="round" stroke-width="2"><path d="M0.560732937,0.35557567 L0.560732937,4.96875" id="Line-17"></path><path d="M14.5607329,0.35557567 L14.5607329,4.96875" id="Line-17-Copy"></path><path d="M28.5607329,0.35557567 L28.5607329,4.96875" id="Line-17-Copy-2"></path></g><g id="Group-36-Copy-3" transform="translate(197.137695, 66.000000)" stroke="#005E86" stroke-linecap="round" stroke-width="2"><path d="M0.560732937,0.35557567 L0.560732937,4.96875" id="Line-17"></path><path d="M14.5607329,0.35557567 L14.5607329,4.96875" id="Line-17-Copy"></path><path d="M28.5607329,0.35557567 L28.5607329,4.96875" id="Line-17-Copy-2"></path></g><g id="Group-36-Copy-5" transform="translate(197.137695, 96.000000)" stroke="#005E86" stroke-linecap="round" stroke-width="2"><path d="M0.560732937,0.35557567 L0.560732937,4.96875" id="Line-17"></path><path d="M14.5607329,0.35557567 L14.5607329,4.96875" id="Line-17-Copy"></path><path d="M28.5607329,0.35557567 L28.5607329,4.96875" id="Line-17-Copy-2"></path></g><g id="Group-36-Copy-2" transform="translate(197.137695, 51.000000)" stroke="#005E86" stroke-linecap="round" stroke-width="2"><path d="M0.560732937,0.35557567 L0.560732937,4.96875" id="Line-17"></path><path d="M14.5607329,0.35557567 L14.5607329,4.96875" id="Line-17-Copy"></path><path d="M28.5607329,0.35557567 L28.5607329,4.96875" id="Line-17-Copy-2"></path></g><g id="Group-36-Copy-4" transform="translate(197.137695, 81.000000)" stroke="#005E86" stroke-linecap="round" stroke-width="2"><path d="M0.560732937,0.35557567 L0.560732937,4.96875" id="Line-17"></path><path d="M14.5607329,0.35557567 L14.5607329,4.96875" id="Line-17-Copy"></path><path d="M28.5607329,0.35557567 L28.5607329,4.96875" id="Line-17-Copy-2"></path></g><g id="Group-36-Copy-6" transform="translate(197.137695, 111.000000)" stroke="#005E86" stroke-linecap="round" stroke-width="2"><path d="M0.560732937,0.35557567 L0.560732937,4.96875" id="Line-17"></path><path d="M14.5607329,0.35557567 L14.5607329,4.96875" id="Line-17-Copy"></path><path d="M28.5607329,0.35557567 L28.5607329,4.96875" id="Line-17-Copy-2"></path></g><path d="M186.637695,9.5 L240.137695,9.5" id="Line-16" stroke="#005E86" stroke-width="2" stroke-linecap="square"></path><rect id="Rectangle" stroke="#005D82" stroke-width="2" fill="#FFFFFF" x="233.137695" y="57" width="68" height="89"></rect><path d="M233.637695,65 L301.137695,65" id="Line-19" stroke="#005E86" stroke-width="2" stroke-linecap="square"></path><g id="Group-37" transform="translate(252.137695, 123.000000)" stroke-width="2"><rect id="Rectangle" stroke="#245976" fill="#8399AB" x="1" y="1" width="29" height="22"></rect><path d="M15.5607329,1.5 L15.5607329,23" id="Line-18" stroke="#035A79" stroke-linecap="square"></path></g><g id="Group-37-Copy" transform="translate(196.137695, 123.000000)" stroke-width="2"><rect id="Rectangle" stroke="#245976" fill="#FFFFFF" x="1" y="1" width="29" height="22"></rect><path d="M15.5607329,1.5 L15.5607329,23" id="Line-18" stroke="#035A79" stroke-linecap="square"></path></g><g id="Group-38" transform="translate(253.137695, 76.000000)" stroke="#005E86" stroke-linecap="round" stroke-width="2"><g id="Group-36"><path d="M0.560732937,0.35557567 L0.560732937,4.96875" id="Line-17"></path><path d="M14.5607329,0.35557567 L14.5607329,4.96875" id="Line-17-Copy"></path><path d="M28.5607329,0.35557567 L28.5607329,4.96875" id="Line-17-Copy-2"></path></g><g id="Group-36-Copy-7" transform="translate(0.000000, 17.000000)"><path d="M0.560732937,0.35557567 L0.560732937,4.96875" id="Line-17"></path><path d="M14.5607329,0.35557567 L14.5607329,4.96875" id="Line-17-Copy"></path><path d="M28.5607329,0.35557567 L28.5607329,4.96875" id="Line-17-Copy-2"></path></g><g id="Group-36-Copy-8" transform="translate(0.000000, 31.000000)"><path d="M0.560732937,0.35557567 L0.560732937,4.96875" id="Line-17"></path><path d="M14.5607329,0.35557567 L14.5607329,4.96875" id="Line-17-Copy"></path><path d="M28.5607329,0.35557567 L28.5607329,4.96875" id="Line-17-Copy-2"></path></g></g><circle id="Oval" stroke="#005E86" stroke-width="2" fill="#CEDAE5" cx="313.637695" cy="103.5" r="17.5"></circle><path d="M313.637695,146 L313.637695,103.5" id="Line-20" stroke="#005B7C" stroke-width="2" stroke-linecap="square"></path><path d="M313.637695,115.5 L323.637695,107" id="Line-21" stroke="#005F8A" stroke-width="2" stroke-linecap="square"></path><path d="M303.637695,115.5 L313.637695,107" id="Line-21-Copy" stroke="#005F8A" stroke-width="2" stroke-linecap="square" transform="translate(308.637695, 111.500000) scale(-1, 1) translate(-308.637695, -111.500000) "></path></g></g></g></svg>