<svg xmlns="http://www.w3.org/2000/svg" xmlnsXlink="http://www.w3.org/1999/xlink" width="363px" height="272px" viewBox="0 0 363 272" version="1.1">
          <g id="16-March" stroke="none" strokeWidth="1" fill="none" fillRule="evenodd">
            <g id="3-Easy-Steps" transform="translate(-212.000000, -699.000000)" fillRule="nonzero">
              <g id="Group-13" transform="translate(0.000000, 557.000000)">
                <g id="Illustration_Wait" transform="translate(212.000000, 142.000000)">
                  <g id="336x336(mobile)-01" transform="translate(0.000000, -0.000000)" fill="#FBE1E5" opacity="0.69">
                    <path d="M192.249564,37.8646047 L130.85586,2.75811683 C126.161588,0.0859694575 120.91505,-0.559031632 116.03669,0.454541508 C111.158329,1.56025766 106.648147,4.32454804 103.426588,8.65526964 L62.0065481,65.9682236 M61.9145036,66.0603666 L27.9500705,113.237589 C27.8580259,113.329732 27.7659814,113.514018 27.6739369,113.606161 L27.7659814,113.514018 L27.7659814,113.514018 C27.1216697,114.435448 26.661447,115.449021 26.1091798,116.370452 C26.5694024,115.356878 27.1216697,114.435448 27.6739369,113.514018 L5.67529318,144.105498 C-2.79280396,155.899804 -1.68826955,172.024831 8.34458467,182.436992 C30.2511838,205.288459 67.6212647,244.17281 87.2267505,264.35213 C91.6448881,268.867138 96.8914266,271.07857 102.137965,272 L110.053795,272 C110.698107,271.907857 111.342418,271.815714 111.98673,271.631428 C118.153714,270.341426 123.860475,266.839991 127.81839,261.219268 L141.809159,241.777092 C147.607965,233.76065 155.891973,228.600641 164.820293,226.665638 C173.840657,224.730634 183.505333,226.020637 192.065475,230.904216 L212.86754,242.790665 C218.850434,246.199956 225.477641,247.029244 231.644625,245.647098 C232.288936,245.554955 232.933248,245.370669 233.57756,245.186383 L233.57756,245.186383 C235.878673,244.541382 238.732054,243.159237 240.849078,241.869235 L240.849078,241.869235 C245.175171,238.920658 249.133086,234.68208 251.25011,228.692784 C260.730697,202.155596 278.679382,151.384796 289.264503,121.53046 C294.142863,107.893294 288.436102,92.6896972 275.918046,85.5025423 L242.966102,66.9817967 C243.150191,67.0739397 243.33428,67.1660827 243.426325,67.3503687 C243.242236,67.2582257 243.058147,67.1660827 242.966102,66.9817967 L242.966102,66.9817967 C242.874058,66.8896537 242.782013,66.8896537 242.689969,66.7975107 L192.249564,37.8646047" id="Shape">
                    </path>
                  </g>
                  <g id="undraw_Booking_re_gw4j-(1)" transform="translate(73.000000, 58.000000)">
                    <path d="M278.877024,128.135921 C276.770346,130.43624 274.157705,132.148661 271.32264,133.478266 L271.319135,133.478266 C271.052459,133.604732 270.785619,133.72778 270.515438,133.843993 L270.512096,133.843993 L270.508591,133.847411 L270.50525,133.843993 L270.501912,133.843993 C270.501924,133.844918 270.501556,133.845807 270.500893,133.846453 C270.500231,133.847099 270.499332,133.847445 270.498407,133.847411 L270.494884,133.847411 L270.491547,133.843993 C270.488205,133.847411 270.488205,133.847411 270.484707,133.843993 L270.481366,133.847411 L270.47786,133.843993 L270.474519,133.843993 C270.471014,133.847411 270.471014,133.847411 270.46768,133.843993 L270.464174,133.843993 C268.566578,134.664363 266.617726,135.36082 264.6299,135.928977 C252.940776,139.243432 240.654967,139.884788 228.683969,137.805463 C228.454863,137.764447 228.229102,137.723431 228,137.682415 L228,109.958959 C228.225761,109.863255 228.454863,109.76755 228.683969,109.675264 C230.178477,109.056605 231.691188,108.488076 233.222102,107.969679 C235.424461,107.217717 237.6576,106.572853 239.921521,106.035087 C247.307651,104.248359 254.928772,103.632445 262.50617,104.209871 C263.884458,104.312411 265.259242,104.460525 266.630522,104.654212 C269.499816,105.054136 272.509213,105.751392 275.156251,106.961367 L275.159592,106.961367 C275.546161,107.142521 275.925716,107.330511 276.301933,107.532191 C278.654745,108.807107 280.638189,110.560545 281.848828,112.963404 C282.283758,113.826368 282.596831,114.745454 282.779097,115.694392 L282.779097,115.701228 C282.847395,116.029357 282.89532,116.360903 282.932891,116.689032 C283.363897,120.735935 281.684702,125.06655 278.877024,128.135921 Z" id="Path" fill="#F2F2F2">
                    </path>
                    <path d="M282.675689,116.981971 C282.642285,116.99022 282.608057,116.994745 282.573639,116.995464 C276.742918,117.248464 270.920063,117.624029 265.105075,118.122158 L265.094938,118.122158 C265.07117,118.125531 265.050726,118.125531 265.026961,118.128904 C259.056628,118.641651 253.098762,119.283709 247.153361,120.055079 C246.901563,120.088812 246.652923,120.122545 246.40445,120.152905 C242.292762,120.696012 238.188886,121.298715 234.092823,121.961013 C232.285368,122.254493 230.481349,122.560342 228.680766,122.87856 C228.452733,122.91904 228.228029,122.956147 228,123 L228,121.97788 C228.228029,121.934026 228.456059,121.896919 228.680766,121.856439 C234.678352,120.803959 240.696324,119.885287 246.734683,119.100425 C248.252792,118.898025 249.773159,118.706869 251.295786,118.526958 C255.693507,118.000718 260.098044,117.546442 264.509395,117.164131 C264.832827,117.137144 265.152766,117.110157 265.476195,117.083171 C271.123097,116.60753 276.777978,116.246583 282.440835,116.00033 C282.468271,115.999088 282.495754,116.001355 282.522605,116.007077 C283.067262,116.054303 283.182938,116.863904 282.675689,116.981971 Z" id="Path" fill="#FFFFFF">
                    </path>
                    <path d="M270.438721,133.002052 C263.121721,133.054899 255.913143,130.005549 250.737576,124.958196 C249.277276,123.528553 247.990422,121.937438 246.902753,120.216676 C246.553898,119.666798 245.737793,120.27318 246.083655,120.818343 C250.103129,127.153991 256.798471,131.667245 264.180227,133.326709 C266.276493,133.793549 268.420908,134.019075 270.570215,133.998738 C271.226356,133.993997 271.090425,132.99734 270.438721,133.002048 L270.438721,133.002052 Z" id="Path" fill="#FFFFFF">
                    </path>
                    <path d="M240,107 C239.935913,107.181616 239.772086,107.318196 239.569706,107.35873 C237.886221,107.765536 236.259735,108.351481 234.723012,109.104762 C232.478848,110.197817 230.441048,111.618256 228.688471,113.311111 C228.595527,113.396825 228.506098,113.48254 228.42004,113.571429 C228.27532,113.711111 228.13766,113.853968 228,114 L228,112.615873 C228.220355,112.4 228.450966,112.187302 228.688471,111.984127 C230.072271,110.762258 231.6052,109.692666 233.256475,108.796825 C235.473336,108.098413 237.721177,107.499471 240,107 Z" id="Path" fill="#FFFFFF">
                    </path>
                    <path d="M275.30151,107.042082 C270.586502,108.937841 266.641294,112.191781 264.040094,116.330304 C263.930484,116.576743 264.053235,116.859808 264.315401,116.965163 C264.57884,117.062536 264.877587,116.949165 264.994055,116.707622 C267.476806,112.798849 271.222461,109.728704 275.69088,107.939917 C276.304025,107.69487 275.915906,106.796557 275.301538,107.042091 L275.30151,107.042082 Z" id="Path" fill="#FFFFFF">
                    </path>
                    <path d="M289.476618,77.8891728 C288.686692,80.8748795 287.171841,83.5796183 285.289278,86.0473962 L285.285788,86.0507814 C285.112076,86.2809719 284.931731,86.5145476 284.74454,86.7379678 L284.74454,86.741353 C283.437454,88.3425167 282.02612,89.8566766 280.519633,91.2740755 C275.104339,96.4054763 268.987532,100.750897 262.350328,104.181671 C251.90907,109.60469 240.23887,112.810431 228.680879,112.99323 C228.592443,112.996615 228.503851,112.996615 228.415408,112.996615 C228.275773,113 228.136142,113 228,113 L228,97.6144707 C228.221252,97.1947115 228.449319,96.7749523 228.680879,96.3585782 C231.684549,90.9844944 235.347331,86.0018342 239.585254,81.5248292 C239.687317,81.4131191 239.792874,81.301409 239.898431,81.193084 C241.491582,79.5208175 243.161975,77.9286663 244.909611,76.4166304 C251.632737,70.538725 259.402457,65.9634043 267.817795,62.9267879 C270.531171,61.9586336 273.506542,61.1834331 276.400279,61.0311011 C276.825829,61.007405 277.248052,60.9972496 277.673602,61.0006347 C280.339272,61.0378714 282.895895,61.6641251 285.078164,63.2145261 C285.85959,63.7726144 286.560595,64.4343361 287.161696,65.1813011 C287.372643,65.441958 287.566799,65.7093853 287.753976,65.9835828 L287.753976,65.986968 C290.007724,69.3382714 290.532015,73.9048454 289.476618,77.8891728 Z" id="Path" fill="#F2F2F2">
                    </path>
                    <path d="M287.852295,66.8422307 L287.852295,66.8456253 C287.827061,66.8675478 287.799671,66.8868818 287.77054,66.9033339 C282.723644,69.8261005 277.740461,72.8552319 272.820992,75.990728 C272.814172,75.9941227 272.810834,75.9975173 272.804007,76.0009119 C272.784306,76.0145855 272.763789,76.0270554 272.742569,76.0382527 C267.685513,79.2631404 262.70011,82.596656 257.786358,86.0387993 C257.581727,86.1813733 257.373748,86.3273419 257.1658,86.4733105 C253.772782,88.8597274 250.41507,91.2970636 247.092663,93.7853191 C240.81813,98.4902606 234.681243,103.369459 228.682,108.422915 C228.453554,108.613013 228.228443,108.806507 228,109 L228,107.679493 C228.225111,107.486 228.453554,107.292507 228.682,107.102408 C230.980419,105.17087 233.299207,103.266489 235.638364,101.389265 C236.337512,100.829153 237.039825,100.269041 237.742306,99.7157179 C243.982702,94.7697585 250.362852,90.0082401 256.882756,85.4311626 L256.886088,85.4311626 C258.168331,84.5315886 259.452742,83.6399354 260.739318,82.756203 C264.394912,80.2509745 268.091409,77.8057175 271.828809,75.4204321 C272.098045,75.2473065 272.370944,75.074181 272.643679,74.9010554 C277.427999,71.8594771 282.274759,68.9174743 287.183959,66.0750469 C287.207912,66.0605575 287.23303,66.0480678 287.259054,66.0377061 C287.77054,65.834029 288.251238,66.5061635 287.852295,66.8422307 Z" id="Path" fill="#FFFFFF">
                    </path>
                    <path d="M284.187239,85.6816543 C277.826578,89.2505185 270.11569,89.8728545 263.248366,87.6531359 C261.308164,87.0216855 259.444117,86.1561533 257.693506,85.0738505 C257.132955,84.7286136 256.703202,85.6869303 257.258935,86.0292061 C263.717398,90.0070068 271.662217,90.997381 278.876897,88.994971 C280.923659,88.422206 282.900048,87.6011342 284.766195,86.5483182 C285.336579,86.2282864 284.753765,85.3637811 284.187239,85.6816401 L284.187239,85.6816543 Z" id="Path" fill="#FFFFFF">
                    </path>
                    <path d="M236.37246,98.5645535 C236.045316,96.8043055 235.933106,95.0135801 236.038092,93.2284924 C236.274587,89.1573735 237.576104,85.2085651 239.822931,81.7452734 C241.467879,80.0847497 243.190877,78.5029919 244.991927,77 C245.026551,77.1999919 244.948298,77.402625 244.78613,77.532902 C243.475469,78.6785343 242.307768,79.9657163 241.306372,81.3687151 C237.729379,86.3688243 236.333266,92.5094606 237.415705,98.4813514 C237.451308,98.6190748 237.40959,98.7646218 237.305559,98.8656301 C237.152781,98.9930952 236.940866,99.0333592 236.748854,98.9714042 C236.556843,98.9094493 236.413565,98.7545775 236.37246,98.5645535 L236.37246,98.5645535 Z" id="Path" fill="#FFFFFF">
                    </path>
                    <path d="M277.128683,61.1779327 C274.034456,64.9768469 272.237727,69.6605901 272,74.5474625 C272.024211,74.8184104 272.262698,75.0195121 272.534878,74.9984915 C272.804343,74.9697039 273.003599,74.7350913 272.987525,74.4655265 C273.23404,69.8384569 274.949004,65.4089576 277.885114,61.8157814 C278.288192,61.3231023 277.532566,60.6842702 277.128683,61.1779327 L277.128683,61.1779327 Z" id="Path" fill="#FFFFFF">
                    </path>
                    <path d="M241.898318,72.1325177 L241.898318,72.1359014 C241.873943,72.4269168 241.845986,72.7145146 241.81445,73.0021293 L241.81445,73.0088967 C241.571763,75.0561896 241.192764,77.0861334 240.679824,79.0860271 C240.435544,80.067301 240.170114,81.0418074 239.880505,82.0163139 C239.845559,82.1415109 239.807034,82.2667079 239.76868,82.3885212 L239.76868,82.3919049 C238.916011,85.2261287 237.897296,88.0109243 236.717495,90.7327325 C234.546665,95.7438881 231.859986,100.530099 228.698232,105.018726 C228.471338,105.346945 228.237458,105.675165 228,106 L228,53.0112126 C228.23388,52.9976778 228.464348,52.9976778 228.698232,53.0044452 C228.809886,53.0044452 228.921603,53.0078289 229.033383,53.0145963 C230.018457,53.0647654 230.991461,53.248137 231.924156,53.5593894 C232.252304,53.6642842 232.569884,53.7827138 232.884225,53.9146782 C236.692963,55.5320882 239.685001,59.098511 240.98361,63.0202227 C241.957643,65.9572599 242.153166,69.0465806 241.898318,72.1325177 Z" id="Path" fill="#F2F2F2">
                    </path>
                    <path d="M232.979322,53.5671627 C232.970962,53.6000389 232.957741,53.6316453 232.940047,53.6610552 C231.498663,56.3001236 230.089257,58.9525851 228.711828,61.6184398 C228.473391,62.0778421 228.234957,62.5405977 228,63 L228,60.7197549 C228.234958,60.2636925 228.472234,59.8076435 228.711828,59.3516079 C229.776095,57.3195072 230.858087,55.2963486 231.957805,53.2821321 C231.9699,53.2586177 231.984208,53.2361725 232.000558,53.2150661 C232.32797,52.7724303 233.13938,53.0742274 232.979322,53.5671627 Z" id="Path" fill="#FFFFFF">
                    </path>
                    <path d="M241.932564,72.6707217 C241.870178,72.7807125 241.807626,72.8906861 241.738119,73.000694 C240.71866,74.7595785 239.505361,76.4011369 238.12046,77.8952835 C235.460571,80.7522599 232.257351,83.0614952 228.694374,84.6906509 C228.465175,84.8006417 228.232587,84.9037581 228,85 L228,83.8829062 C228.232587,83.7797899 228.465175,83.6732363 228.694374,83.5632455 C233.851912,81.1277516 238.136015,77.1922041 240.974409,72.2823168 C241.057273,72.1404765 241.198218,72.0412036 241.360739,72.0102102 C241.523259,71.9792167 241.691367,72.0195516 241.821523,72.1207679 C241.909988,72.1790571 241.971405,72.2697846 241.992234,72.3729487 C242.013064,72.4761129 241.991597,72.5832431 241.932564,72.6707217 L241.932564,72.6707217 Z" id="Path" fill="#FFFFFF">
                    </path>
                    <path d="M229,11.2018349 L229,37 L228.319465,37 L228.319465,36.7250459 L0.680534918,36.7250459 L0.680534918,37 L0,37 L0,11.2018349 C0.00608482439,5.0177484 5.02983888,0.006070198 11.2288262,0 L217.771174,0 C223.970161,0.006070198 228.993915,5.0177484 229,11.2018349 L229,11.2018349 Z" id="Path" fill="#DA2128">
                    </path>
                    <path d="M217.771174,0 L11.2288262,0 C5.02983888,0.00608004156 0.00608482439,5.02588529 0,11.22 L0,158.78 C0.00608482439,164.974115 5.02983888,169.99392 11.2288262,170 L217.771174,170 C223.970161,169.99392 228.993915,164.974115 229,158.78 L229,11.22 C228.993915,5.02588529 223.970161,0.00608004156 217.771174,0 L217.771174,0 Z M228.319465,158.78 C228.312034,164.598003 223.593753,169.312575 217.771174,169.32 L11.2288262,169.32 C5.40624585,169.312577 0.687964193,164.598004 0.680534918,158.78 L0.680534918,11.22 C0.687964193,5.4019964 5.40624585,0.687423435 11.2288262,0.68 L217.771174,0.68 C223.593753,0.687425303 228.312034,5.40199717 228.319465,11.22 L228.319465,158.78 Z" id="Shape" fill="#3F3D56">
                    </path>
                    <circle id="Oval" fill="#FFFFFF" cx="46" cy="19" r="7">
                    </circle>
                    <circle id="Oval" fill="#FFFFFF" cx="182" cy="19" r="7">
                    </circle>
                    <path d="M65.5820864,94 L25.4179136,94 C21.8750611,93.9959681 19.004011,91.1085801 19,87.5455648 L19,68.4544352 C19.004011,64.8914199 21.8750611,62.0040319 25.4179136,62 L65.5820864,62 C69.1249389,62.0040319 71.995989,64.8914199 72,68.4544352 L72,87.5455648 C71.995989,91.1085801 69.1249389,93.9959681 65.5820864,94 Z" id="Path" fill="#DA2128">
                    </path>
                    <path d="M134.582089,94 L94.4179106,94 C90.8750592,93.9959662 88.004011,91.1085787 88,87.5455648 L88,68.4544352 C88.004011,64.8914213 90.8750592,62.0040338 94.4179106,62 L134.582089,62 C138.124941,62.0040338 140.995989,64.8914213 141,68.4544352 L141,87.5455648 C140.995989,91.1085787 138.124941,93.9959662 134.582089,94 L134.582089,94 Z" id="Path" fill="#DA2128">
                    </path>
                    <path d="M134.311936,143 L93.6880742,143 C89.9960752,142.995919 87.0041548,140.056964 87,136.430324 L87,117.569676 C87.0041529,113.943035 89.9960744,111.004079 93.6880742,111 L134.311936,111 C138.003932,111.004085 140.995847,113.943039 141,117.569676 L141,136.430324 C140.995847,140.056961 138.003932,142.995915 134.311936,143 Z" id="Path" stroke="#413B5A" fill="#FFFFFF">
                    </path>
                    <path d="M25.688061,143 C21.996067,142.995911 19.0041548,140.056959 19,136.430324 L19,117.569676 C19.0041529,113.943041 21.9960662,111.004087 25.688061,111 L66.3119254,111 C70.0039241,111.004079 72.9958452,113.943033 73,117.569673 L73,136.43032 C72.9958471,140.056962 70.003926,142.995919 66.3119254,143 L25.688061,143 Z" id="Path" stroke="#413B5A" fill="#FFFFFF">
                    </path>
                    <path d="M162.688072,143 C158.996073,142.995919 156.004153,140.056963 156,136.430324 L156,117.569676 C156.004153,113.943037 158.996073,111.004081 162.688072,111 L203.311925,111 C207.003924,111.004079 209.995845,113.943033 210,117.569673 L210,136.43032 C209.995847,140.056962 207.003926,142.995919 203.311925,143 L162.688072,143 Z" id="Path" stroke="#413B5A" fill="#FFFFFF">
                    </path>
                    <path d="M203.311925,94 L162.688072,94 C158.996074,93.9959188 156.004155,91.0569653 156,87.4303269 L156,68.5696765 C156.004153,64.9430367 158.996073,62.0040812 162.688072,62 L203.311925,62 C207.003924,62.0040812 209.995845,64.9430362 210,68.5696765 L210,87.4303235 C209.995847,91.0569646 207.003925,93.9959206 203.311925,94 Z" id="Path" stroke="#403C58" fill="#FAFAFA">
                    </path><circle id="Oval" fill="#FFFFFF" cx="46" cy="78" r="11"></circle><path d="M44.9150521,82 C44.6556137,82.0004391 44.4030534,81.9239095 44.1954701,81.7819512 L44.1826027,81.7731479 L41.4726834,79.8804859 C41.1307639,79.6419985 40.9544206,79.2551456 41.0101577,78.8658204 C41.0658948,78.4764952 41.3452327,78.1439276 41.7428251,77.9935381 C42.1404176,77.8431486 42.5957771,77.8978167 42.9371747,78.1369256 L44.6924575,79.3646913 L48.840465,74.4299997 C49.0347522,74.1988469 49.3217477,74.0475696 49.6383109,74.0094497 C49.9548741,73.9713298 50.2750718,74.0494901 50.5284587,74.226735 L50.5026704,74.2586877 L50.52912,74.2272077 C51.05608,74.5966567 51.1557603,75.2854956 50.7519433,75.7670241 L45.8728911,81.5714058 C45.6441671,81.8425045 45.2900654,82.0009491 44.9150521,82 L44.9150521,82 Z" id="Path" fill="#DA2128"></path><circle id="Oval" fill="#FFFFFF" cx="115" cy="78" r="11"></circle><path d="M113.914501,82 C113.655039,82.0004398 113.402455,81.9239113 113.19485,81.7819544 L113.181982,81.7731511 L110.471813,79.880488 C109.943958,79.5115821 109.843915,78.8222154 110.24836,78.3407442 C110.652806,77.859273 111.408585,77.7680208 111.936441,78.1369267 L113.691879,79.3646931 L117.840263,74.4299955 C118.03457,74.1988443 118.321592,74.0475687 118.638184,74.0094495 C118.954776,73.9713302 119.275003,74.0494902 119.528413,74.2267339 L119.502623,74.2586866 L119.529075,74.22721 C120.056086,74.596656 120.155776,75.2854972 119.751918,75.7670239 L114.872427,81.5714089 C114.643682,81.8425065 114.289548,82.0009499 113.914501,82 L113.914501,82 Z" id="Path" fill="#DA2128"></path><path d="M189.059802,129.802456 C189.776351,129.014108 190.109035,127.946918 189.968336,126.888045 C189.827637,125.829173 189.228009,124.887388 188.330799,124.316108 L182.315547,92 L175,94.7293786 L183.213137,125.636821 C182.340008,127.2524 182.805864,129.269704 184.297504,130.332468 C185.789143,131.395232 187.835082,131.167533 189.059802,129.802456 L189.059802,129.802456 Z" id="Path" fill="#A0616A"></path><path d="M128.803809,80.4224786 C128.822545,80.6215525 128.825059,80.8217489 128.811329,81.0212061 L143.454804,91.9483461 L147.60741,90.2950618 L151,96.0450932 L143.941976,99.6645697 C142.770739,100.2652 141.331169,100.044165 140.408659,99.1220554 L125.771716,84.4914874 C124.185332,84.8383728 122.543073,84.1973399 121.647124,82.8815097 C120.751174,81.5656795 120.788491,79.8496254 121.740846,78.5715768 C122.693201,77.2935282 124.361867,76.7201745 125.931762,77.1315781 C127.501657,77.5429817 128.645192,78.8532952 128.803792,80.4224786 L128.803809,80.4224786 Z" id="Path" fill="#A0616A"></path><polygon id="Path" fill="#A0616A" points="162.999005 188 158.934125 188 157 175 163 175.000349"></polygon><path d="M163.99975,192 L151,191.999541 L151,191.842186 C151,190.557941 151.533076,189.326292 152.481997,188.4182 C153.430917,187.510109 154.71793,187 156.059896,187 L156.060225,187 L164,187.000315 L163.99975,192 Z" id="Path" fill="#2F2E41"></path><polygon id="Path" fill="#A0616A" points="178.999005 188 174.934125 188 173 175 179 175.000349"></polygon><path d="M179.99975,192 L167,191.999541 L167,191.842186 C167,190.557941 167.533076,189.326292 168.481997,188.4182 C169.430917,187.510109 170.71793,187 172.059896,187 L172.060225,187 L180,187.000315 L179.99975,192 Z" id="Path" fill="#2F2E41"></path><path d="M158.122806,184.934041 C157.338915,184.934768 156.683486,184.338974 156.610527,183.559359 L153,135.053789 L153.170625,135.039949 L178.017103,133 L178.023787,133.176368 L179.998934,183.424195 C180.014395,183.836651 179.861154,184.237631 179.574472,184.534877 C179.28779,184.832122 178.892353,185 178.479146,185 L173.607403,185 C172.855514,185.00357 172.215177,184.454853 172.104363,183.711999 L165.488582,143.120581 C165.475158,143.033653 165.397155,142.971593 165.309332,142.97797 C165.221509,142.984346 165.15331,143.05702 165.152611,143.144974 L164.852531,183.222786 C164.846075,184.026217 164.21499,184.685982 163.411787,184.729007 L158.204408,184.931746 C158.177098,184.933383 158.149788,184.934041 158.122806,184.934041 Z" id="Path" fill="#2F2E41"></path><circle id="Oval" fill="#A0616A" cx="162.5" cy="65.5" r="8.5"></circle><path d="M163.564437,138 C159.870108,137.989116 156.193665,137.493097 152.631857,136.524997 C151.925297,136.321965 151.460258,135.657065 151.518309,134.932877 C152.65617,118.050929 152.9237,104.950055 150.530968,95.8855236 C149.511155,92.0221766 149.97416,87.9533043 151.801194,84.7222928 C154.550796,79.859846 159.604592,76.9003814 164.995343,77.0025631 L164.995343,77.0025631 C165.252954,77.0073736 165.513125,77.0164419 165.775855,77.0297681 C173.956916,77.4456291 180.331807,84.7518181 179.986617,93.3167058 L178.341048,134.140621 C178.328755,134.749688 177.946534,135.291663 177.37218,135.514441 C172.957877,137.153834 168.280783,137.995767 163.564437,138 L163.564437,138 Z" id="Path" fill="#3F3D56"></path><path d="M152.591685,99.2616849 L146.434311,91.4054973 C146.079813,90.9531771 145.931961,90.3625965 146.029282,89.7876486 C146.126603,89.2127008 146.459458,88.7103336 146.941112,88.4114537 L155.281912,83.2365849 C157.579413,81.306434 160.943786,81.6762468 162.803552,84.0633653 C164.663317,86.4504839 164.316944,89.9544523 162.029175,91.8970942 L155.510454,99.345068 C155.132653,99.7764549 154.593224,100.015256 154.032731,99.9992434 C153.472237,99.9832313 152.946196,99.7139925 152.591682,99.2616849 L152.591685,99.2616849 Z" id="Path" fill="#3F3D56"></path><path d="M172.3723,98.8245918 C171.856442,98.5865418 171.466758,98.1284573 171.304997,97.5699467 L168.511333,87.9306764 C167.248607,85.1515366 168.404823,81.8425593 171.096122,80.5332616 C173.787421,79.2239638 176.998394,80.4083354 178.274441,83.1809945 L183.677036,91.5966822 C183.988997,92.082704 184.080406,92.6847121 183.927443,93.2458361 C183.77448,93.8069601 183.392297,94.2716217 182.880481,94.5187401 L173.990729,98.810741 C173.478933,99.0581573 172.888005,99.0632145 172.3723,98.8245918 L172.3723,98.8245918 Z" id="Path" fill="#3F3D56"></path><path d="M166.535326,71.8831153 L160.437654,70.4553597 C159.808682,70.3080871 159.053024,70.0271032 158.965796,69.3730846 C158.848572,68.4941945 160.084949,67.8819151 159.97091,67.0025865 C159.860441,66.1508841 158.734181,66.0411158 157.931091,65.7897077 C156.376166,65.2317588 155.535134,63.5116872 156.031267,61.9042067 C155.162344,63.1568614 153.177174,63.264149 152.050146,62.2492761 C150.923119,61.2344031 150.706947,59.3930694 151.383767,58.0219882 C152.125391,56.6560419 153.459862,55.7343271 154.975518,55.5411769 C156.478013,55.3668811 157.997116,55.6565989 159.337286,56.3730376 C159.426591,55.4022337 160.611417,55.0086617 161.564548,55 C165.623162,55.0483871 169.205664,57.7233237 170.488045,61.6628823 C171.657608,65.5181941 170.875283,69.7442692 167.602921,72 L166.535326,71.8831153 Z" id="Path" fill="#2F2E41"></path><path d="M228.660574,192 L99.3394256,192 C99.151966,192 99,191.776142 99,191.5 C99,191.223858 99.151966,191 99.3394256,191 L228.660574,191 C228.848034,191 229,191.223858 229,191.5 C229,191.776142 228.848034,192 228.660574,192 Z" id="Path" fill="#3F3D56"></path></g></g></g></g></g></svg>