<svg xmlns="http://www.w3.org/2000/svg" xmlnsXlink="http://www.w3.org/1999/xlink" width="320px" height="272px" viewBox="0 0 320 272" version="1.1">
        <g id="16-March" stroke="none" strokeWidth="1" fill="none" fillRule="evenodd">
          <g id="3-Easy-Steps" transform="translate(-255.000000, -1256.000000)">
            <g id="Group-24" transform="translate(0.000000, 1114.000000)">
              <g id="Illustration-_Earn" transform="translate(255.000000, 142.000000)">
                <g id="336x336(mobile)-01-copy" transform="translate(0.000000, -0.000000)" fill="#FBE1E5" fillRule="nonzero" opacity="0.69">
                  <path d="M192.249564,37.8646047 L130.85586,2.75811683 C126.161588,0.0859694575 120.91505,-0.559031632 116.03669,0.454541508 C111.158329,1.56025766 106.648147,4.32454804 103.426588,8.65526964 L62.0065481,65.9682236 M61.9145036,66.0603666 L27.9500705,113.237589 C27.8580259,113.329732 27.7659814,113.514018 27.6739369,113.606161 L27.7659814,113.514018 L27.7659814,113.514018 C27.1216697,114.435448 26.661447,115.449021 26.1091798,116.370452 C26.5694024,115.356878 27.1216697,114.435448 27.6739369,113.514018 L5.67529318,144.105498 C-2.79280396,155.899804 -1.68826955,172.024831 8.34458467,182.436992 C30.2511838,205.288459 67.6212647,244.17281 87.2267505,264.35213 C91.6448881,268.867138 96.8914266,271.07857 102.137965,272 L110.053795,272 C110.698107,271.907857 111.342418,271.815714 111.98673,271.631428 C118.153714,270.341426 123.860475,266.839991 127.81839,261.219268 L141.809159,241.777092 C147.607965,233.76065 155.891973,228.600641 164.820293,226.665638 C173.840657,224.730634 183.505333,226.020637 192.065475,230.904216 L212.86754,242.790665 C218.850434,246.199956 225.477641,247.029244 231.644625,245.647098 C232.288936,245.554955 232.933248,245.370669 233.57756,245.186383 L233.57756,245.186383 C235.878673,244.541382 238.732054,243.159237 240.849078,241.869235 L240.849078,241.869235 C245.175171,238.920658 249.133086,234.68208 251.25011,228.692784 C260.730697,202.155596 278.679382,151.384796 289.264503,121.53046 C294.142863,107.893294 288.436102,92.6896972 275.918046,85.5025423 L242.966102,66.9817967 C243.150191,67.0739397 243.33428,67.1660827 243.426325,67.3503687 C243.242236,67.2582257 243.058147,67.1660827 242.966102,66.9817967 L242.966102,66.9817967 C242.874058,66.8896537 242.782013,66.8896537 242.689969,66.7975107 L192.249564,37.8646047" id="Shape">
                  </path>
                </g>
                <g id="Illustration" transform="translate(100.000000, 50.000000)">
                  <g id="Group-75" transform="translate(31.000000, 28.000000)">
                    <circle id="Oval" fill="#433A5C" cx="9" cy="9" r="9">
                    </circle>
                    <path d="M11.8846154,6.84615385 L11.0896154,6.84615385 C10.9759615,6.28984615 10.7221154,5.79323077 10.3776923,5.38461538 L11.8846154,5.38461538 C12.2030769,5.38461538 12.4615385,5.10892308 12.4615385,4.76923077 C12.4615385,4.42953846 12.2030769,4.15384615 11.8846154,4.15384615 L6.11538462,4.15384615 C5.79692308,4.15384615 5.53846154,4.42953846 5.53846154,4.76923077 C5.53846154,5.10892308 5.79692308,5.38461538 6.11538462,5.38461538 L7.84615385,5.38461538 C8.73288462,5.38461538 9.47769231,5.99815385 9.74942308,6.84615385 L6.11538462,6.84615385 C5.79692308,6.84615385 5.53846154,7.12184615 5.53846154,7.46153846 C5.53846154,7.80123077 5.79692308,8.07692308 6.11538462,8.07692308 L9.79384615,8.07692308 C9.56884615,9.00430769 8.78596154,9.69230769 7.84615385,9.69230769 L6.15173077,9.69230769 C5.81307692,9.69230769 5.53846154,9.98523077 5.53846154,10.3464615 C5.53846154,10.5255385 5.60653846,10.6867692 5.71557692,10.8049231 L5.715,10.8055385 L5.71730769,10.808 C5.71730769,10.808 5.71730769,10.808 5.71788462,10.8086154 L9.75923077,15.0646154 L9.76269231,15.0627692 C9.86596154,15.1649231 10.0021154,15.2307692 10.1538462,15.2307692 C10.4723077,15.2307692 10.7307692,14.9550769 10.7307692,14.6153846 C10.7307692,14.4443077 10.665,14.2898462 10.5588462,14.1784615 L10.5588462,14.1778462 L7.26923077,10.7692308 C7.62346154,10.7692308 8.04403846,10.7692308 8.13461538,10.7692308 C9.63461538,10.7692308 10.8709615,9.60369231 11.1126923,8.07692308 L11.8846154,8.07692308 C12.2030769,8.07692308 12.4615385,7.80123077 12.4615385,7.46153846 C12.4615385,7.12184615 12.2030769,6.84615385 11.8846154,6.84615385 Z" id="Path" fill="#FFFFFF" fillRule="nonzero">
                    </path>
                  </g>
                  <g id="Group-75-Copy-2" transform="translate(159.000000, 16.000000)">
                    <circle id="Oval" fill="#413B5A" cx="9" cy="9" r="9">
                    </circle>
                    <path d="M11.8846154,6.84615385 L11.0896154,6.84615385 C10.9759615,6.28984615 10.7221154,5.79323077 10.3776923,5.38461538 L11.8846154,5.38461538 C12.2030769,5.38461538 12.4615385,5.10892308 12.4615385,4.76923077 C12.4615385,4.42953846 12.2030769,4.15384615 11.8846154,4.15384615 L6.11538462,4.15384615 C5.79692308,4.15384615 5.53846154,4.42953846 5.53846154,4.76923077 C5.53846154,5.10892308 5.79692308,5.38461538 6.11538462,5.38461538 L7.84615385,5.38461538 C8.73288462,5.38461538 9.47769231,5.99815385 9.74942308,6.84615385 L6.11538462,6.84615385 C5.79692308,6.84615385 5.53846154,7.12184615 5.53846154,7.46153846 C5.53846154,7.80123077 5.79692308,8.07692308 6.11538462,8.07692308 L9.79384615,8.07692308 C9.56884615,9.00430769 8.78596154,9.69230769 7.84615385,9.69230769 L6.15173077,9.69230769 C5.81307692,9.69230769 5.53846154,9.98523077 5.53846154,10.3464615 C5.53846154,10.5255385 5.60653846,10.6867692 5.71557692,10.8049231 L5.715,10.8055385 L5.71730769,10.808 C5.71730769,10.808 5.71730769,10.808 5.71788462,10.8086154 L9.75923077,15.0646154 L9.76269231,15.0627692 C9.86596154,15.1649231 10.0021154,15.2307692 10.1538462,15.2307692 C10.4723077,15.2307692 10.7307692,14.9550769 10.7307692,14.6153846 C10.7307692,14.4443077 10.665,14.2898462 10.5588462,14.1784615 L10.5588462,14.1778462 L7.26923077,10.7692308 C7.62346154,10.7692308 8.04403846,10.7692308 8.13461538,10.7692308 C9.63461538,10.7692308 10.8709615,9.60369231 11.1126923,8.07692308 L11.8846154,8.07692308 C12.2030769,8.07692308 12.4615385,7.80123077 12.4615385,7.46153846 C12.4615385,7.12184615 12.2030769,6.84615385 11.8846154,6.84615385 Z" id="Path" fill="#FFFFFF" fillRule="nonzero">
                    </path>
                  </g>
                  <g id="Group-75-Copy" transform="translate(109.000000, 0.000000)">
                    <circle id="Oval" fill="#403C58" cx="13" cy="13" r="13">
                    </circle>
                    <path d="M18.245614,9.46491228 L16.9884912,9.46491228 C16.8087719,8.64021053 16.4073684,7.904 15.8627368,7.29824561 L18.245614,7.29824561 C18.749193,7.29824561 19.1578947,6.88954386 19.1578947,6.38596491 C19.1578947,5.88238596 18.749193,5.47368421 18.245614,5.47368421 L9.12280702,5.47368421 C8.61922807,5.47368421 8.21052632,5.88238596 8.21052632,6.38596491 C8.21052632,6.88954386 8.61922807,7.29824561 9.12280702,7.29824561 L11.8596491,7.29824561 C13.2618246,7.29824561 14.4395789,8.20778947 14.8692632,9.46491228 L9.12280702,9.46491228 C8.61922807,9.46491228 8.21052632,9.87361404 8.21052632,10.377193 C8.21052632,10.8807719 8.61922807,11.2894737 9.12280702,11.2894737 L14.9395088,11.2894737 C14.5837193,12.6642807 13.3457544,13.6842105 11.8596491,13.6842105 L9.1802807,13.6842105 C8.64477193,13.6842105 8.21052632,14.1184561 8.21052632,14.6539649 C8.21052632,14.9194386 8.31817544,15.1584561 8.49059649,15.333614 L8.48968421,15.3345263 L8.49333333,15.3381754 C8.49333333,15.3381754 8.49333333,15.3381754 8.49424561,15.3390877 L14.8847719,21.6484211 L14.8902456,21.6456842 C15.0535439,21.7971228 15.2688421,21.8947368 15.5087719,21.8947368 C16.0123509,21.8947368 16.4210526,21.4860351 16.4210526,20.9824561 C16.4210526,20.7288421 16.3170526,20.4998596 16.149193,20.3347368 L16.149193,20.3338246 L10.9473684,15.2807018 C11.5075088,15.2807018 12.1725614,15.2807018 12.3157895,15.2807018 C14.6877193,15.2807018 16.6427368,13.5528421 17.0249825,11.2894737 L18.245614,11.2894737 C18.749193,11.2894737 19.1578947,10.8807719 19.1578947,10.377193 C19.1578947,9.87361404 18.749193,9.46491228 18.245614,9.46491228 Z" id="Path" fill="#FFFFFF" fillRule="nonzero">
                    </path>
                  </g>
                  <g id="undraw_partying_p92d" transform="translate(0.000000, 20.018105)" fillRule="nonzero">
                    <path d="M52.9358086,112.483686 C56.6110393,106.933658 55.6507536,99.5917176 50.6660722,95.1302363 C50.4561783,94.9424552 50.2395786,94.7601405 50.0231085,94.5778105 C49.3883698,94.0833364 48.8143498,93.5182773 48.3125814,92.8939863 C47.6983373,92.0677023 46.7073222,90.245014 47.2383197,89.1218049 L47.6715198,89.4262684 C47.2350323,90.349293 48.2040302,91.88538 48.7313561,92.5948209 C49.2094013,93.1874804 49.7561798,93.723586 50.3606577,94.192319 C50.5811777,94.3781137 50.8017003,94.563662 51.0155146,94.7551644 C56.1872593,99.3843423 57.1836034,107.001944 53.3705238,112.760521 L52.9358086,112.483686 Z" id="Path" fill="#403C58">
                    </path>
                    <path d="M212.259212,172.546781 L211.824507,172.269948 C215.499583,166.720034 214.539434,159.378255 209.555075,154.916745 C209.344553,154.728468 209.127704,154.545887 208.910858,154.363326 C208.276592,153.869053 207.702934,153.304337 207.201382,152.680495 C206.587279,151.854211 206.120183,150.571002 206.651306,149.447544 L207.121436,149.661372 C206.684958,150.584648 207.092844,151.67164 207.620412,152.381334 C208.098083,152.9736 208.644422,153.50937 209.24841,153.977839 C209.469306,154.163886 209.690202,154.349929 209.90452,154.541678 C215.076255,159.170722 216.072493,166.788401 212.259222,172.546781 L212.259212,172.546781 Z" id="Path" fill="#403C58">
                    </path>
                    <path d="M120.41414,156.241437 C115.457794,145.400934 103.088724,139.606481 91.1781387,142.545452 C90.6795838,142.668545 90.1729825,142.809451 89.6831921,142.945499 C88.316006,143.325879 86.9023493,143.718985 85.4482295,143.788397 C83.6317185,143.873774 81.2770256,143.331201 80.1234568,141.545219 L80.5410808,141.294872 C81.5821407,142.906629 83.7473505,143.395754 85.4239847,143.315004 C86.8208306,143.248368 88.2066276,142.862899 89.5467973,142.490385 C90.0401905,142.35318 90.5502739,142.211116 91.0561547,142.086405 C103.199783,139.08983 115.810927,144.997664 120.864198,156.050322 L120.41414,156.241437 Z" id="Path" fill="#575A89">
                    </path>
                    <path d="M108.255773,89.6612845 L107.820313,89.5789144 C109.831242,78.4311775 103.671386,67.4300638 93.2608733,63.5766752 C92.8250904,63.4153679 92.3739553,63.2640235 91.9377407,63.1176606 C90.7202339,62.7092409 89.4613111,62.286872 88.3426108,61.5874974 C86.9440167,60.7131883 85.4782926,59.0622497 85.5587225,57.0505975 L86.0010899,57.0691901 C85.9285509,58.8842158 87.2822773,60.3933422 88.5733038,61.2004387 C89.6481128,61.8723552 90.8821652,62.2863097 92.0755699,62.6867596 C92.5149196,62.8341179 92.9692982,62.9865687 93.4113513,63.1502024 C104.025531,67.0790765 110.305917,78.2953997 108.255773,89.6612845 L108.255773,89.6612845 Z" id="Path" fill="#575A89">
                    </path>
                    <path d="M58.4421097,84.7478435 C56.3365004,88.6100551 52.3452164,90.3459769 49.0873008,89.0162225 C49.0410526,88.9981638 48.9943774,88.9784864 48.9492102,88.9584416 L48.8972948,89.1374126 C48.8955396,89.1441731 48.8932455,89.1507838 48.8904344,89.1571819 C48.8289641,89.3723846 48.6668905,89.5448922 48.4551543,89.6204844 C48.2434182,89.6960766 48.0080175,89.6654719 47.8229402,89.5382896 L46.9877032,88.9932705 C46.7956401,88.8666057 46.6641054,88.6672622 46.6237101,88.4416315 C46.5833148,88.2160008 46.6375821,87.9837618 46.7738828,87.7989615 L46.785981,87.7839564 L46.9260714,87.6059511 L46.9571856,87.565633 C44.4980277,85.0220164 44.0683747,80.4834615 46.1252292,76.710677 C48.458899,72.4301479 53.1074023,70.7593631 56.5089758,72.9790002 C59.9105492,75.1986372 60.7757795,80.4673144 58.4421097,84.7478435 Z" id="Path" fill="#284180">
                    </path>
                    <ellipse id="Oval" fill="#FFFFFF" opacity="0.2" transform="translate(51.416660, 75.249188) rotate(-30.313480) translate(-51.416660, -75.249188) " cx="51.4166598" cy="75.2491878" rx="2.09977902" ry="1">
                    </ellipse>
                    <path d="M49.0353866,88.8230736 C49.0333151,88.8289954 48.9497721,88.9762909 48.9464543,88.9818952 L46.9571856,87.565633 L47.0871702,87.4808075 L49.0353866,88.8230736 Z" id="Path" fill="#9B9B9B">
                    </path>
                    <ellipse id="Oval" fill="#F5F5F5" cx="110" cy="171.188002" rx="110" ry="6.79389313">
                    </ellipse>
                    <polygon id="Path" fill="#FBBEBE" points="179.259259 156.888377 179.568003 163.03533 186.049383 162.388097 185.432175 156.241437">
                    </polygon>
                    <polygon id="Path" fill="#FBBEBE" points="157.530864 150.094511 157.839608 156.241437 164.320988 155.59447 163.70378 149.447544">
                    </polygon>
                    <path d="M184.547318,86.9437272 L164.218109,90.5034175 L162.880661,128.29089 L157.530864,152.387259 L166.090545,156.22077 L174.382723,132.39823 L177.325109,111.313912 L179.465027,132.39823 L179.732515,158.958994 L192.839506,158.137518 L189.705878,106.125249 C189.302786,99.4346676 187.546145,92.9027947 184.547323,86.9437272 L184.547318,86.9437272 Z" id="Path" fill="#2F2E41">
                    </path>
                    <path d="M180.88802,160.400959 C180.88802,160.400959 178.987336,158.367565 178.987336,159.130086 C178.987336,159.892608 177.901235,167.26366 177.901235,167.26366 C177.901235,167.26366 185.232435,169.297052 185.232435,170.567924 C185.232435,171.838797 195.821947,173.872186 195.550422,171.330455 C195.278897,168.788724 186.047012,159.130096 186.047012,159.130096 C186.047012,159.130096 182.24565,158.621738 180.88802,160.400959 Z" id="Path" fill="#2F2E41">
                    </path>
                    <path d="M159.738806,154.423512 C159.738806,154.423512 159.154234,151.564125 158.747617,152.280194 C158.341,152.996263 153.45679,159.375481 153.45679,159.375481 C153.45679,159.375481 158.809573,164.948782 158.131889,166.14223 C157.454204,167.335679 165.667909,174.537329 166.784868,172.014734 C167.901828,169.49214 164.946274,155.80828 164.946274,155.80828 C164.946274,155.80828 161.879615,153.431163 159.738806,154.423512 Z" id="Path" fill="#2F2E41">
                    </path>
                    <polygon id="Path" fill="#2F2E41" points="158.888889 58.2852754 174.166729 59.7681547 179.259259 45.6804187 164.633387 42.1040326">
                    </polygon>
                    <ellipse id="Oval" fill="#FBBEBE" cx="170.432099" cy="46.8597578" rx="7.4691358" ry="7.47328244">
                    </ellipse>
                    <path d="M167.372396,52.9742616 C167.372396,52.9742616 167.372396,57.6682249 163.648494,59.6446288 C159.924591,61.6210326 172.58586,63.8444906 172.58586,63.8444906 L173.82716,59.6446288 C173.82716,59.6446288 170.103258,57.9152746 173.33064,53.9624646 L167.372396,52.9742616 Z" id="Path" fill="#FBBEBE">
                    </path>
                    <path d="M173.28395,57.5844204 C173.28395,57.5844204 168.309574,60.6123145 164.14244,57.8972567 L162.419754,57.5844204 L157.259259,58.652076 L154.814815,67.7271438 L164.049384,90.414817 C164.049384,90.414817 180.074073,93.0839536 183.333333,87.2118502 L181.432097,63.1896112 L176.271612,57.0505975 L173.28395,57.5844204 Z" id="Path" fill="#284180">
                    </path>
                    <polygon id="Path" fill="#284180" points="175.924432 57.3810582 184.695122 44.9929761 183.897764 43.6465094 172.469136 37.7216147 172.469136 33.9513608 190.276623 38.7989351 191.481481 40.7334096 180.974201 63.8444906">
                    </polygon>
                    <polygon id="Path" fill="#284180" points="158.888889 60.5179756 158.332666 60.2367608 144.425065 59.6745869 154.994821 50.3973117 151.656977 46.1803685 135.802469 58.2687687 135.802469 61.0801494 158.332666 70.6383837">
                    </polygon>
                    <path d="M150.740741,47.1524177 L152.699237,46.0235857 C152.699237,46.0235857 156.896016,40.3794284 158.574726,42.6370923 C160.253436,44.8947563 154.657733,49.1278724 154.657733,49.1278724 L151.580096,50.2567043 L150.740741,47.1524177 Z" id="Path" fill="#FBBEBE">
                    </path>
                    <path d="M173.82716,35.5818957 L170.86442,33.9513608 C170.86442,33.9513608 161.976192,34.7666369 163.053549,36.6689164 C164.130905,38.571196 170.325737,36.9406735 170.325737,36.9406735 L173.82716,38.0276967 L173.82716,35.5818957 Z" id="Path" fill="#FBBEBE">
                    </path>
                    <path d="M166.184949,39.8464187 C166.184949,39.8464187 162.756189,40.9981158 162.582081,45.5464162 C162.564392,46.2738539 162.644453,47.0003591 162.820085,47.7061645 C163.013148,48.5306726 163.137263,50.3047561 161.641019,52.623106 C160.639124,54.1537394 159.723864,55.7402003 158.899616,57.3749018 L158.888889,57.3965188 L162.654594,57.8708446 L163.455309,51.5809926 C163.843513,48.5315224 164.675171,45.5562643 165.923528,42.7509343 L165.949587,42.692373 C165.949587,42.692373 167.597084,45.7755011 170.892075,45.7755011 L169.715292,44.5896832 C169.715292,44.5896832 174.893137,46.724155 176.77599,46.724155 C176.77599,46.724155 178.188128,47.6728088 176.77599,49.0957908 C175.363853,50.5187729 172.539571,53.839065 174.187058,56.447865 C175.834545,59.0566649 174.422413,59.7681547 174.422413,59.7681547 L177.011345,58.3451727 L178.188128,57.6336829 L178.188128,58.582327 L184.3074,57.8708348 C184.3074,57.8708348 185.954894,57.6336731 182.424546,53.6018912 C182.424546,53.6018912 181.4923,52.0362167 181.900166,50.6858447 C182.235311,49.6595805 182.323383,48.5677012 182.157109,47.5003687 C181.366219,43.0543429 178.263209,34.2150516 166.184949,39.8464187 Z" id="Path" fill="#2F2E41">
                    </path>
                    <path d="M122.036623,164.394109 C122.003501,164.346156 121.222585,163.1908 120.95185,160.791678 C120.703523,158.590607 120.863203,154.880534 123.034717,149.705284 C127.148589,139.901113 122.086652,131.990585 122.034929,131.911796 L122.284666,131.783422 C123.259335,133.436059 123.963372,135.203282 124.375566,137.031847 C125.395112,141.28971 125.023857,145.71686 123.305311,149.794453 C119.198487,159.581884 122.251688,164.215167 122.282975,164.260872 L122.036623,164.394109 Z" id="Path" fill="#B3354C">
                    </path>
                    <ellipse id="Oval" fill="#B3354C" cx="121.54321" cy="129.745254" rx="2.03703704" ry="2.03816794">
                    </ellipse>
                    <ellipse id="Oval" fill="#B3354C" cx="126.975309" cy="135.180368" rx="2.03703704" ry="2.03816794">
                    </ellipse>
                    <ellipse id="Oval" fill="#B3354C" cx="122.901235" cy="139.256704" rx="2.03703704" ry="2.03816794">
                    </ellipse>
                    <ellipse id="Oval" fill="#B3354C" cx="126.975309" cy="143.33304" rx="2.03703704" ry="2.03816794">
                    </ellipse>
                    <ellipse id="Oval" fill="#B3354C" cx="121.54321" cy="148.768155" rx="2.03703704" ry="2.03816794">
                    </ellipse>
                    <path d="M123.882031,164.394109 C123.882031,164.394109 121.995884,159.735438 127.654321,156.241437 L123.882031,164.394109 Z" id="Path" fill="#B3354C">
                    </path>
                    <path d="M120.864198,164.394109 C120.864198,164.394109 120.08728,160.282769 114.074074,160.317998 L120.864198,164.394109 Z" id="Path" fill="#B3354C">
                    </path>
                    <path d="M22.2470592,118.827939 L23.690622,130.027772 C23.690622,130.027772 19.1193398,143.965343 23.9312158,157.405144 L25.6153724,167.111666 L31.8708112,167.111666 L32.5925926,163.876159 C32.5925926,163.876159 29.705467,161.387307 29.705467,155.662947 L32.111405,130.027772 L32.5925926,116.836857 L22.2470592,118.827939 Z" id="Path" fill="#FFBE9D">
                    </path>
                    <path d="M28.7522955,165.393667 C28.7522955,165.393667 26.3063202,163.891569 26.0617227,165.393667 C25.8171251,166.895766 22.8819548,173.905559 25.5725276,173.905559 C28.2631004,173.905559 32.665856,172.65381 32.665856,172.65381 C32.665856,172.65381 35.3564288,170.651012 38.5361967,170.651012 C41.7159646,170.651012 42.4497572,166.645416 41.9605621,165.644017 C41.471367,164.642618 40.2483794,163.140519 39.0253917,163.390869 C38.1369258,163.550979 37.2369288,163.634721 36.3348189,163.641219 L32.4736463,161.676552 C32.4736463,161.676552 31.9320634,165.644017 28.7522955,165.393667 Z" id="Path" fill="#2F2E41">
                    </path>
                    <path d="M39.382716,116.64173 L45.6116714,125.832285 C45.6116714,125.832285 47.7025941,140.25135 57.9149924,149.837872 L63.6984031,157.600216 L69.2592593,154.670863 L68.4721445,151.482523 C68.4721445,151.482523 64.8065548,150.641963 62.2787635,145.599052 L53.0974383,121.888913 L47.7002832,110.042964 L39.382716,116.64173 Z" id="Path" fill="#FFBE9D">
                    </path>
                    <path d="M64.8548247,155.092816 C64.8548247,155.092816 62.0741548,154.898859 62.5169057,156.36556 C62.9596567,157.832261 63.4672198,165.525358 65.8051364,164.252614 C68.143053,162.97987 71.4226646,159.771368 71.4226646,159.771368 C71.4226646,159.771368 72.8868646,156.697296 75.6498589,155.193144 C78.4128532,153.688991 77.3030283,149.739226 76.4410924,149.069969 C75.5791564,148.400712 73.8611771,147.628234 72.9077016,148.431921 C72.2055355,148.996205 71.4600337,149.497258 70.6789978,149.929836 L66.4668267,149.989284 C66.4668267,149.989284 67.7270389,153.813829 64.8548247,155.092816 Z" id="Path" fill="#2F2E41">
                    </path>
                    <ellipse id="Oval" fill="#FFBE9D" cx="29.8765432" cy="44.8215898" rx="6.79012346" ry="6.79389313">
                    </ellipse>
                    <polygon id="Path" fill="#FFBE9D" points="24.3450768 48.8979257 19.0123457 56.0895101 25.5043662 58.4093761 28.5185185 51.6817649">
                    </polygon>
                    <path d="M35.3405175,58.5156544 L35.0586391,58.2519265 C33.2197064,56.5314063 30.7258827,55.720237 28.2425905,56.0348614 L28.2425905,56.0348614 C28.2425905,56.0348614 28.6588694,52.6833704 21.7199335,52.9946799 L18.4523405,55.7867848 C18.4523405,55.7867848 13.9243511,60.3762473 15.148132,67.3224609 C16.3719129,74.2686744 16.494291,91.7582478 16.494291,91.7582478 L20.1656338,122.271972 C20.1656338,122.271972 47.823083,121.031576 52.962963,109.61994 L37.298567,76.3773464 L35.3405175,58.5156544 Z" id="Path" fill="#2F2E41">
                    </path>
                    <path d="M28.5185185,65.2032692 L31.1874845,80.2191596 L42.3486149,99.2392873 C42.3486149,99.2392873 42.3486149,108.248821 46.958647,107.247762 C51.5686791,106.246703 46.4733805,97.9879631 46.4733805,97.9879631 L36.5254164,77.7165112 L34.5843503,65.2032692 L28.5185185,65.2032692 Z" id="Path" fill="#FFBE9D">
                    </path>
                    <polygon id="Path" fill="#2F2E41" points="27.1604938 60.4291822 27.6543958 67.9208265 35.308642 67.2498836 34.0751217 59.7681547">
                    </polygon>
                    <path d="M37.1776174,42.993298 C37.1776174,42.993298 41.2024568,35.2298776 31.7055682,34.7682863 C31.7055682,34.7682863 26.0304581,31.4110449 21.2432616,38.3082706 L16.2962963,45.564448 L17.4775631,45.3892261 L17.5685422,46.5641629 L19.0159444,47.5561759 L20.1958786,46.448467 L19.9224954,48.2200885 L32.5136633,54.3330402 C32.5136633,54.3330402 27.9300784,48.7094509 30.1130292,42.4547739 L30.7957892,44.0461635 L37.1776174,42.993298 Z" id="Path" fill="#2F2E41">
                    </path>
                    <path d="M105.008489,123.088936 C102.109413,133.794101 93.1072803,140.972103 84.0345857,140.381743 C83.9063011,140.37528 83.7759306,140.365341 83.6491337,140.353393 L83.6302404,140.813971 C83.6300359,140.831323 83.6283861,140.84863 83.6253073,140.865723 C83.5872714,141.435965 83.2893685,141.959738 82.8132165,142.293542 C82.3370646,142.627345 81.7325893,142.736179 81.1654021,142.590225 L78.711262,141.959613 C78.1520848,141.816549 77.6860373,141.440736 77.4373373,140.932341 C77.1886373,140.423947 77.1825574,139.834633 77.4207181,139.321473 L77.4418857,139.276839 L77.6843441,138.749993 L77.7377016,138.631143 C69.9225191,134.569772 65.9864196,124.246864 68.8183645,113.789574 C72.0314364,101.92493 82.7362764,94.3890956 92.7309708,96.9573172 C102.725665,99.5255388 108.221549,111.224292 105.008489,123.088936 Z" id="Path" fill="#E71C24">
                    </path>
                    <ellipse id="Oval" fill="#FFFFFF" opacity="0.2" transform="translate(78.439936, 104.617164) rotate(-45.222380) translate(-78.439936, -104.617164) " cx="78.4399358" cy="104.617164" rx="5.55839045" ry="1.8607139">
                    </ellipse>
                    <path d="M83.7810694,139.86962 C83.7808588,139.891909 83.7791596,139.914139 83.7759885,139.936094 L77.4074074,137.895246 L77.6571264,137.218536 L84.1975309,139.314444 C84.0654046,139.306143 83.9311301,139.293377 83.8005362,139.27803 L83.7810694,139.86962 Z" id="Path" fill="#575A89">
                    </path>
                    <path d="M154.289015,13.8622372 C163.035986,19.65759 166.517163,29.3104171 162.916648,36.5342722 C162.867452,36.6370179 162.814399,36.7403621 162.760713,36.8401301 L163.172786,37.0029959 C163.188442,37.0087001 163.203607,37.0155878 163.218138,37.0235947 C163.717104,37.2209562 164.093335,37.6296634 164.237277,38.1307041 C164.38122,38.6317449 164.27669,39.1687914 163.954127,39.5854602 L162.552346,41.3887545 C162.221587,41.8022043 161.724481,42.0610807 161.184444,42.1011125 C160.644408,42.1411442 160.112086,41.9585771 159.719638,41.598737 L159.686235,41.567154 L159.289459,41.2004121 L159.199499,41.1187736 C152.870138,46.2041194 142.162014,46.1158077 133.617586,40.4546327 C123.923241,34.0315828 120.692008,22.8730257 126.400873,15.5289597 C132.109739,8.18489363 144.594668,7.43918482 154.289015,13.8622372 Z" id="Path" fill="#E61E27">
                    </path>
                    <ellipse id="Oval" fill="#FFFFFF" opacity="0.2" transform="translate(129.163081, 30.178867) rotate(-25.526460) translate(-129.163081, -30.178867) " cx="129.163081" cy="30.1788672" rx="1.74070459" ry="5.06269689">
                    </ellipse>
                    <path d="M162.915932,37.1751079 C162.932168,37.181268 162.947894,37.1887062 162.962963,37.197353 L159.300348,42.1040326 L158.888889,41.7079803 L162.650321,36.6689181 C162.599304,36.7798754 162.544288,36.8914789 162.488615,36.9992204 L162.915932,37.1751079 Z" id="Path" fill="#575A89">
                    </path>
                    <path d="M90.6747871,31.4579182 C95.4974854,39.8596184 94.4093717,49.4757164 88.4902496,54.2218356 C88.4077227,54.2901357 88.3217704,54.3574232 88.2367632,54.421408 L88.5090578,54.723164 C88.519602,54.734216 88.5292571,54.7460841 88.537933,54.7586575 C88.8675845,55.1241746 89.0097533,55.6216793 88.9230411,56.1063024 C88.8363289,56.5909254 88.5304839,57.0081846 88.0945658,57.2365774 L86.2032174,58.2227594 C85.7618744,58.4451684 85.2469744,58.4699221 84.7863516,58.2908747 C84.3257289,58.1118274 83.9625813,57.7457703 83.7870676,57.2835846 L83.7725217,57.2434321 L83.596274,56.7736464 L83.5557021,56.6684228 C76.2673058,58.5112419 67.4949806,54.2078656 62.7839495,46.0007051 C57.4389026,36.6890133 59.3490524,25.8860125 67.0517149,21.8697072 C74.7543774,17.8534019 85.3297403,22.1462264 90.6747871,31.4579182 Z" id="Path" fill="#E71C24">
                    </path>
                    <ellipse id="Oval" fill="#FFFFFF" opacity="0.2" transform="translate(71.710709, 5.061727) rotate(-89.897720) translate(-71.710709, -5.061727) " cx="71.7107089" cy="5.0617265" rx="5.05863173" ry="1.73816224">
                    </ellipse><path d="M88.7989311,54.0075669 C88.5313955,54.2007226 88.3285718,54.3384883 88.1904599,54.4208639 C87.1947994,55.0147173 85.6969646,55.8912951 83.6969554,57.0505975 L83.4552999,56.4624938 L88.2477993,53.6505876 C88.2564922,53.6654975 88.7917783,53.9906044 88.7989311,54.0075669 Z" id="Path" fill="#575A89"></path><path d="M217.330997,145.892883 C215.225388,149.755095 211.234104,151.491015 207.976188,150.161262 C207.92994,150.143201 207.883265,150.123523 207.838097,150.10348 L207.786184,150.28245 C207.784428,150.289211 207.782134,150.295822 207.779323,150.302221 C207.717852,150.517423 207.555778,150.689931 207.344042,150.765523 C207.132306,150.841115 206.896906,150.81051 206.711828,150.683328 L205.876591,150.138309 C205.684528,150.011644 205.552993,149.812301 205.512598,149.58667 C205.472203,149.36104 205.52647,149.128801 205.66277,148.944 L205.67487,148.928995 L205.814959,148.750981 L205.846073,148.710663 C203.386916,146.167047 202.957264,141.628495 205.014119,137.855713 C207.347786,133.575185 211.996279,131.904401 215.397861,134.124039 C218.799444,136.343677 219.664666,141.612355 217.330997,145.892883 Z" id="Path" fill="#284180"></path><ellipse id="Oval" fill="#FFFFFF" opacity="0.2" transform="translate(209.458799, 135.005575) rotate(-30.313352) translate(-209.458799, -135.005575) " cx="209.458799" cy="135.005575" rx="2.06746497" ry="1"></ellipse><path d="M208.911557,149.430226 C208.909485,149.436148 208.906777,149.441939 208.903459,149.447544 L206.419753,148.244694 L206.585089,148.088765 L209.135802,149.324067 C209.081219,149.308247 209.026133,149.291011 208.972825,149.273455 L208.911557,149.430226 Z" id="Path" fill="#9B9B9B"></path></g></g></g></g></g></g></svg>