<svg xmlns="http://www.w3.org/2000/svg" xmlnsXlink="http://www.w3.org/1999/xlink" width="337px" height="272px" viewBox="0 0 337 272" version="1.1">
        <defs>
          <polygon id="path-1" points="0.0212290648 0.0203428121 12.7679608 0.0203428121 12.7679608 16.8798975 0.0212290648 16.8798975">
          </polygon>
        </defs>
        <g id="16-March" stroke="none" strokeWidth="1" fill="none" fillRule="evenodd">
          <g id="3-Easy-Steps" transform="translate(-254.000000, -142.000000)">
            <g id="Refer_illustration" transform="translate(175.000000, 70.000000)">
              <g id="Illustration-" transform="translate(79.000000, 72.000000)">
                <g id="336x336(mobile)-01" fill="#FBE1E5" fillRule="nonzero" opacity="0.69">
                  <path d="M192.249564,37.8646047 L130.85586,2.75811683 C126.161588,0.0859694575 120.91505,-0.559031632 116.03669,0.454541508 C111.158329,1.56025766 106.648147,4.32454804 103.426588,8.65526964 L62.0065481,65.9682236 M61.9145036,66.0603666 L27.9500705,113.237589 C27.8580259,113.329732 27.7659814,113.514018 27.6739369,113.606161 L27.7659814,113.514018 L27.7659814,113.514018 C27.1216697,114.435448 26.661447,115.449021 26.1091798,116.370452 C26.5694024,115.356878 27.1216697,114.435448 27.6739369,113.514018 L5.67529318,144.105498 C-2.79280396,155.899804 -1.68826955,172.024831 8.34458467,182.436992 C30.2511838,205.288459 67.6212647,244.17281 87.2267505,264.35213 C91.6448881,268.867138 96.8914266,271.07857 102.137965,272 L110.053795,272 C110.698107,271.907857 111.342418,271.815714 111.98673,271.631428 C118.153714,270.341426 123.860475,266.839991 127.81839,261.219268 L141.809159,241.777092 C147.607965,233.76065 155.891973,228.600641 164.820293,226.665638 C173.840657,224.730634 183.505333,226.020637 192.065475,230.904216 L212.86754,242.790665 C218.850434,246.199956 225.477641,247.029244 231.644625,245.647098 C232.288936,245.554955 232.933248,245.370669 233.57756,245.186383 L233.57756,245.186383 C235.878673,244.541382 238.732054,243.159237 240.849078,241.869235 L240.849078,241.869235 C245.175171,238.920658 249.133086,234.68208 251.25011,228.692784 C260.730697,202.155596 278.679382,151.384796 289.264503,121.53046 C294.142863,107.893294 288.436102,92.6896972 275.918046,85.5025423 L242.966102,66.9817967 C243.150191,67.0739397 243.33428,67.1660827 243.426325,67.3503687 C243.242236,67.2582257 243.058147,67.1660827 242.966102,66.9817967 L242.966102,66.9817967 C242.874058,66.8896537 242.782013,66.8896537 242.689969,66.7975107 L192.249564,37.8646047" id="Shape">
                  </path>
                </g>
                <g id="undraw_develop_app_re_bi4i" transform="translate(74.000000, 27.000000)">
                  <path d="M199.43128,58.221282 L198.085335,58.221282 L198.085335,21.3437921 C198.085335,9.55594124 188.530192,-1.42108547e-14 176.743326,-1.42108547e-14 L98.6216299,-1.42108547e-14 C86.8347638,-1.42108547e-14 77.2796209,9.55594124 77.2796209,21.3437921 L77.2796209,223.656208 C77.2796209,235.444059 86.8347638,245 98.6216299,245 L176.744767,245 C188.531633,245 198.086776,235.444059 198.086776,223.656208 L198.086776,84.471192 L199.43128,84.471192 L199.43128,58.221282 Z" id="a55003b0-0446-4784-a3ce-c481a9759178" fill="#3F3D56" fillRule="nonzero">
                  </path>
                  <path d="M194.445498,19.9172517 L194.445498,225.083829 C194.44409,234.020688 187.115488,241.265654 178.07345,241.269036 L97.4012113,241.269036 C88.3550592,241.269036 81.0207691,234.022953 81.0189573,225.082028 L81.0189573,19.9172517 C81.0217754,10.9770887 88.3558298,3.73096447 97.4012113,3.73096447 L107.186966,3.73096447 C106.2113,6.1040128 106.492537,8.79986513 107.937291,10.9248097 C109.382046,13.0497542 111.801208,14.3256464 114.391498,14.3288285 L160.38327,14.3288285 C162.973686,14.325362 165.392805,13.0490814 166.837292,10.9238099 C168.28178,8.7985385 168.562542,6.10249173 167.586344,3.73096447 L178.068712,3.73096447 C187.110608,3.73096447 194.440619,10.9758499 194.44404,19.912568 L194.445498,19.9172517 Z" id="ad332593-d547-4870-8db7-c0503e6eb31e" fill="#E6E6E6" fillRule="nonzero">
                  </path>
                  <path d="M186.330295,230.076142 L89.1341603,230.076142 C87.4066287,230.076142 86.0066689,228.710124 86.0047393,227.026796 L86.0047393,27.9224424 C86.0066689,26.2391146 87.4066287,24.8730964 89.1341603,24.8730964 L186.330295,24.8730964 C188.057826,24.8730964 189.457786,26.2391146 189.459716,27.9224424 L189.459716,227.026796 C189.457786,228.710124 188.057826,230.076142 186.330295,230.076142 Z" id="Path" fill="#FFFFFF" fillRule="nonzero">
                  </path>
                  <ellipse id="edacdc74-dfad-4c1d-939b-d6c7a98a2115" fill="#E6E6E6" fillRule="nonzero" cx="137.732227" cy="66.535533" rx="26.7985782" ry="26.7385787">
                  </ellipse>
                  <ellipse id="aec4df6d-8b06-4bbe-8d40-2c8bcc37cf40" fill="#FFFFFF" fillRule="nonzero" cx="136.485782" cy="66.535533" rx="23.0592417" ry="23.0076142">
                  </ellipse>
                  <g id="Group-14" transform="translate(124.644550, 53.477157)">
                    <path d="M28.8920538,11.5606904 L26.0594879,9.06105291 L26.0594879,9.0615238 C26.1514903,9.14961803 26.2366806,9.24470329 26.3147624,9.34504088 C26.5953977,9.69125989 26.7864741,10.1064112 26.8644818,10.54163 C26.95119,11.0101377 26.9018752,11.5147235 26.731865,11.9561002 L22.1039733,25.9107767 C22.5939004,25.7163318 23.0698698,25.3911221 23.4074838,24.8608181 C24.9082535,22.5031383 27.7638478,17.9795069 29.4428099,15.3168661 C30.2109288,14.0986881 29.979127,12.5179183 28.8920538,11.5606904" id="Fill-1" fill="#8CC0E5">
                    </path>
                    <path d="M26.86453,10.5414598 C26.7860039,10.1062409 26.5954458,9.69156054 26.3147735,9.34534153 C26.2290649,9.23478907 26.1356926,9.13119141 26.0332125,9.03563526 L21.6734794,5.19697994 C20.8210958,4.83062096 19.7968138,4.94066631 19.0071474,5.63600217 L14.9471905,9.22776182 L20.9781849,14.5446035 C21.1955848,14.7474521 21.3206119,15.0449512 21.3206119,15.3579538 L21.3206119,26.0802385 C21.5648165,26.0624168 21.8727379,25.9926514 22.1040214,25.9111135 L26.7319131,11.9559662 C26.9019233,11.5145895 26.9512752,11.0100399 26.86453,10.5414598" id="Fill-3" fill="#284180">
                    </path>
                    <path d="M13.5312482,0.53080033 C13.9339488,0.177083165 14.4401291,-1.08668868e-05 14.947272,-1.08668868e-05 C15.4534523,-1.08668868e-05 15.9601138,0.177083165 16.3628515,0.53080033 L21.6735979,5.19686041 C20.8211772,4.83046521 19.7968952,4.94109011 19.0071918,5.63591886 L14.947272,9.22764228 L10.8873892,5.63591886 C10.0972045,4.94109011 9.07288542,4.83046521 8.22050181,5.19686041 L13.5312482,0.53080033 Z" id="Fill-5" fill="#3777B6">
                    </path>
                    <g id="Group-9" transform="translate(8.552344, 9.207586)">
                      <mask id="mask-2" fill="white">
                        <use xlinkHref="#path-1">
                        </use>
                      </mask>
                      <g id="Clip-8">
                      </g>
                      <path d="M0.364063282,5.33718452 L6.3945764,0.0203428121 L12.4255708,5.33718452 C12.6429707,5.53963462 12.7679608,5.83713375 12.7679608,6.15006387 L12.7679608,16.8728195 C12.072148,16.9225174 11.3529366,16.7116636 10.7840021,16.2093961 L8.9891576,14.6258009 C8.2516938,13.9754539 7.32363491,13.6493749 6.3945764,13.6465857 C5.46607323,13.6493749 4.53753304,13.9754539 3.8004765,14.6258009 L2.00570605,16.2093961 C1.43629025,16.7116636 0.717004814,16.9225174 0.0212290648,16.8728195 L0.0212290648,6.15006387 C0.0212290648,5.83713375 0.146182141,5.53963462 0.364063282,5.33718452" id="Fill-7" fill="#E71C24" mask="url(#mask-2)">
                      </path>
                    </g>
                    <path d="M1.00180897,11.5606904 L3.83437488,9.06105291 L3.83437488,9.0615238 C3.74244644,9.14961803 3.65718216,9.24470329 3.57958167,9.34504088 C3.29898334,9.69125989 3.10746267,10.1064112 3.02938088,10.54163 C2.94270973,11.0101377 2.99254287,11.5147235 3.16207179,11.9561002 L7.78996349,25.9107767 C7.30051767,25.7163318 6.82402994,25.3911221 6.48645301,24.8608181 C4.98560922,22.5031383 2.13005195,17.9795069 0.45108986,15.3168661 C-0.31699207,14.0986881 -0.0852272535,12.5179183 1.00180897,11.5606904" id="Fill-10" fill="#FFC766">
                    </path>
                    <path d="M3.0295697,10.5414598 C3.13012453,9.96801414 3.43567645,9.43905032 3.86092417,9.03563526 L8.22062029,5.19697994 C9.07304091,4.83062096 10.09736,4.94066631 10.8869893,5.63600217 L14.9469092,9.22776182 L8.91595176,14.5446035 C8.69855192,14.7474521 8.57359884,15.0449512 8.57359884,15.3579538 L8.57359884,26.0802385 C8.32932021,26.0624168 8.0213988,25.9926514 7.79011529,25.9111135 L3.16222359,11.9559662 C2.99221336,11.5145895 2.94241724,11.0100399 3.0295697,10.5414598" id="Fill-12" fill="#F18E48">
                    </path>
                  </g>
                  <rect id="af237293-25a3-489f-aa06-65014690590a" fill="#E6E6E6" fillRule="nonzero" x="113.42654" y="100.736041" width="46.1184834" height="4.97461929">
                  </rect>
                  <rect id="aecd757e-3845-4054-8ef4-8f3b3f1464a2" fill="#E6E6E6" fillRule="nonzero" x="107.194313" y="108.19797" width="57.3364929" height="4.97461929">
                  </rect>
                  <rect id="a528162f-764e-4523-bc44-e6dc5465582a" fill="#E6E6E6" fillRule="nonzero" x="98.4691943" y="134.314721" width="81.0189573" height="80.8375635">
                  </rect>
                  <rect id="ac408f88-9589-4a26-924c-e7a781ddb6bc" fill="#FFFFFF" fillRule="nonzero" x="98.4691943" y="136.80203" width="77.2796209" height="77.106599">
                  </rect>
                  <g id="be47c712-4ebf-4226-80ad-879612060a69" transform="translate(114.672986, 144.263959)" fillRule="nonzero">
                    <rect id="fadc6105-0551-448d-b6d9-436c4cc2b7a7" fill="#E6E6E6" x="0" y="0" width="29.0582162" height="2.29747935">
                    </rect>
                    <rect id="a4376b16-bb23-442d-8938-a8bcab4f190c" fill="#E71C24" x="0" y="6.74506271" width="44.8720379" height="2.29747935">
                    </rect>
                    <rect id="ae6c1c25-1aef-4af7-84b7-a99cb79f7c28" fill="#E6E6E6" x="0.466424061" y="13.1685187" width="36.5697903" height="2.29747935">
                    </rect>
                    <rect id="ad31106a-9486-4fc6-9d92-2d07f7dcec19" fill="#E6E6E6" x="0" y="20.2164363" width="21.3488864" height="2.29747935">
                    </rect>
                    <rect id="e133e237-d12d-4331-8259-b0f1b7869d24" fill="#E71C24" x="0" y="27.1007739" width="32.2209107" height="2.29747935">
                    </rect>
                    <rect id="a9ae706b-b3a6-4b62-8ac7-3a7f4cd0039d" fill="#E6E6E6" x="0" y="34.0281354" width="29.0582162" height="2.29747935">
                    </rect>
                    <rect id="bd082349-b2f2-4b60-be0c-57e16efac88b" fill="#E71C24" x="0" y="40.7728269" width="44.8720379" height="2.29747935">
                    </rect>
                    <rect id="ac0416d6-b57f-4bc7-9ff0-bb8dbe215cb0" fill="#E6E6E6" x="0.466424061" y="47.1962829" width="36.5697903" height="2.29747935">
                    </rect>
                    <rect id="b9702d28-4113-492b-a4b0-dbfc92fa702e" fill="#E6E6E6" x="0" y="54.244557" width="21.3488864" height="2.29747935">
                    </rect>
                    <rect id="b41357bb-831a-49ca-b340-115c840dd657" fill="#E6E6E6" x="0" y="61.1289166" width="32.2209107" height="2.29747935">
                    </rect>
                  </g>
                  <g id="ac800076-fc8a-4256-a3b5-70e496d28429" transform="translate(204.417062, 103.223350)" fillRule="nonzero">
                    <path d="M46.1089747,71.8719307 C45.5370585,72.8871819 44.4749577,73.515624 43.3227553,73.5205577 C42.170553,73.5254336 41.103296,72.9060561 40.5230099,71.8957097 C39.9427238,70.8853633 39.9375678,69.6375437 40.5094841,68.6222926 C40.516676,68.6095358 40.5239516,68.5968221 40.5313108,68.5841514 C40.6214995,68.4307389 40.7230547,68.284512 40.8350976,68.1467359 L38.1222106,48.5204075 L38.0409653,47.9324064 L37.4899101,43.9275454 L37.4086648,43.3503005 L37.7089192,43.364642 L42.9651378,43.6084473 L44.3745674,43.672984 L44.5511876,47.3264785 L45.5508583,67.8670769 C46.625851,68.9109809 46.8565465,70.5663663 46.1089782,71.8719379 L46.1089747,71.8719307 Z" id="b13647df-bb42-4a02-9bba-2700c526619d" fill="#FFB8B8">
                    </path>
                    <path d="M38.0565008,48.1102265 L44.73098,47.4888815 C45.4515184,47.4195686 45.9820799,46.773316 45.919281,46.0414666 L44.6829393,31.9538214 C44.434413,29.1283009 41.9762443,27.0422553 39.1924657,27.2945081 C36.4086872,27.5467609 34.3534591,30.0417892 34.6019853,32.8673098 C34.6105196,32.96433 34.6217656,33.061037 34.6357233,33.1574309 L36.637184,46.9754562 C36.7321932,47.6297561 37.2848058,48.1148619 37.9364026,48.1161081 C37.9765152,48.1166759 38.0166314,48.1147597 38.0565008,48.1102265 L38.0565008,48.1102265 Z" id="bd34735f-0976-456f-8e45-072b5e73a744" fill="#E71C24">
                    </path>
                    <path d="M43.1156112,36.7291861 C44.5028626,32.7407367 43.1055336,28.3025808 39.6965964,25.8698102 C37.1797579,24.1219411 33.735663,23.494501 30.0266378,27.9762165 C22.6085874,36.9396475 20.6657646,46.7994215 20.6657646,46.7994215 L35.855106,49.3091822 C35.855106,49.3091822 41.0205418,42.9003219 43.1156112,36.7291861 Z" id="f1e660d0-c56f-45d1-8714-e8a3d2ffeea9" fill="#E71C24">
                    </path>
                    <polygon id="eb60bd0b-2a6b-4db7-a453-977e2259822f" fill="#FFB8B8" points="18.5487978 137.695413 14.2180693 137.695413 12.1579708 120.740904 18.5495043 120.740904">
                    </polygon>
                    <path d="M5.86711074,141.77665 L19.4778204,141.77665 L19.4778204,136.439106 L11.125802,136.439106 C8.22150703,136.439106 5.86711074,138.828806 5.86711074,141.77665 L5.86711074,141.77665 Z" id="b4104c20-2c86-47e7-b6b0-d86d656d7ba2" fill="#2F2E41">
                    </path>
                    <polygon id="b4e48bf6-fea8-48c3-adaa-b392a855b3f6" fill="#FFB8B8" points="54.1533206 133.861578 50.0416012 135.241229 42.8425598 119.799748 48.9112316 117.763615">
                    </polygon>
                    <path d="M43.3734556,141.776614 L56.2965543,137.44116 L54.6462359,132.373268 L46.7161598,135.033658 C45.391926,135.477911 44.2958012,136.437906 43.6689204,137.702456 C43.0420397,138.967005 42.935754,140.432524 43.373445,141.776614 L43.3734556,141.776614 Z" id="a6908023-9fbc-48a9-be4c-c86c0c45ebaf" fill="#2F2E41">
                    </path>
                    <ellipse id="a687fec6-02c9-4040-89ed-32d713123e7f" fill="#FFB8B8" cx="33.580594" cy="12.6182702" rx="8.67593986" ry="8.80603314">
                    </ellipse>
                    <path d="M25.9841535,132.975984 L30.0057966,106.033703 C30.0943332,105.44074 30.5838703,104.994246 31.1741803,104.968052 C31.7644903,104.941857 32.29055,105.343284 32.4297329,105.926142 L38.5542167,131.601711 C38.7542146,132.416952 39.5334075,132.943115 40.3515043,132.815359 L57.2452311,130.059642 C57.6984712,129.985813 58.0981382,129.716715 58.3413923,129.32159 C58.5846463,128.926465 58.6477348,128.443895 58.5144242,127.998053 L36.4859935,54.2827965 C36.4234712,54.0732647 36.4160427,53.8507767 36.4644459,53.6374294 L37.1977731,50.4105943 C37.3635277,49.6908138 37.024368,48.9490664 36.3757825,48.6128886 C33.3760642,47.0593467 25.7785676,43.8296432 20.0451211,47.3673302 C19.6689825,47.6002163 19.4035005,47.9795899 19.3107341,48.4167687 L2.10226999,130.51104 C2.00756591,130.962596 2.10798173,131.433697 2.37810868,131.805139 C2.64823563,132.176581 3.06219196,132.412774 3.51523198,132.453954 L24.2705839,134.340577 C24.3176826,134.344879 24.3647814,134.34703 24.4118801,134.34703 C25.1971158,134.345623 25.864125,133.763436 25.9830938,132.975625 L25.9841535,132.975984 Z" id="badfc474-5669-4d61-bc01-f70cc92406de" fill="#2F2E41">
                    </path>
                    <path d="M39.3334687,6.39657352 C38.6794855,5.99727438 38.0991285,5.48525991 37.6184861,4.88354637 C37.1358567,4.26526022 37.0059717,3.43620955 37.2758428,2.69646921 C37.7142143,1.71479425 39.016612,1.40573515 40.0261733,1.73881624 C41.0357347,2.07189734 41.8153365,2.87609637 42.5529026,3.65089534 C43.2025119,4.3321161 43.8708429,5.04632228 44.1778089,5.94230684 C44.4847749,6.8382914 44.3275829,7.97449591 43.561051,8.5183969 C42.8086487,9.05190032 41.7270263,8.83355114 41.0035898,8.26060863 C40.2801533,7.68766612 39.8322443,6.83721579 39.4051765,6.01258014 L39.3334687,6.39657352 Z" id="eb685785-93ca-4296-839e-b201e57ae5bb" fill="#2F2E41">
                    </path>
                    <path d="M42.2720729,3.8875335 C42.3201136,1.40645581 45.1064746,-0.372964511 47.5131022,0.0669606819 C49.9197297,0.506885875 51.7692969,2.58927016 52.6951403,4.88605972 C54.6513861,9.73886125 53.1829654,15.2761104 51.2980741,20.1597461 C49.4131828,25.0433819 47.0803825,29.9976494 47.3555569,35.2337273 C47.7347322,40.9990551 51.1940142,46.0906741 56.3684882,48.4996051 C53.6527752,49.7491074 50.4064951,48.4583733 48.1242082,46.5104405 C43.0559136,42.1846887 41.0996677,34.4829503 43.47521,28.2092657 C44.6469088,25.1147308 46.7119527,22.4672918 48.3241423,19.5842938 C49.936332,16.7012959 51.1193344,13.3034385 50.2867465,10.097757 C49.4541587,6.89207557 45.911863,4.29698303 42.8835322,5.53716334 L42.2720729,3.8875335 Z" id="a7ccb8bb-f2b9-4447-b454-9c546e399f41" fill="#2F2E41">
                    </path>
                    <path d="M33.0602743,16.5259712 C33.8165622,15.2287835 34.5792084,13.5257316 33.1973316,12.3916783 C32.5900894,11.9162577 31.8196319,11.709445 31.0602266,11.8180187 C29.5017295,12.0087605 27.8044089,12.0872802 26.2957187,11.512545 C25.1525358,11.1132376 24.2176707,10.2606011 23.7046997,9.14942603 C22.9275706,7.27642749 23.9011014,5.0004331 25.5291869,3.81654313 C27.5657299,2.38947641 30.2468502,2.34129014 32.3318924,3.69428193 C34.4407381,2.74881923 36.999259,3.16938341 38.9152355,4.47087359 C40.831212,5.77236377 42.1420875,7.85654075 42.8542203,10.0819814 C43.5102707,11.9975295 43.6232382,14.0615606 43.1802613,16.0390776 C42.4568462,18.8310058 40.4377012,21.0895711 37.7700298,22.0908277 C36.7280652,22.5079872 35.5460801,22.3303943 34.6678718,21.6247293 C34.6678718,21.6247293 33.4721527,20.5652517 33.098071,19.2892177 C32.8101765,18.3079013 32.6565168,17.2190201 33.0602743,16.5259712 Z" id="bd42e2a1-f38b-413b-b655-cc202f14f4c1" fill="#2F2E41">
                    </path>
                    <path d="M7.32245806,24.3836697 C7.36578491,24.5771127 7.39401392,24.7737226 7.40688254,24.9716708 L22.5810346,33.8569407 L26.2692186,31.7017733 L30.2011386,36.926378 L24.0370919,41.3858642 C23.0140369,42.1261714 21.6322875,42.0919862 20.6459831,41.3019665 L4.99742911,28.7725241 C3.55113205,29.3162985 1.92422708,28.8948666 0.911546669,27.714121 C-0.101133746,26.5333753 -0.288224716,24.8397592 0.441677978,23.460697 C1.17158067,22.0816348 2.66613301,21.3049621 4.19516406,21.5101262 C5.7241951,21.7152903 6.96856816,22.8594696 7.32033862,24.3836697 L7.32245806,24.3836697 Z" id="a0cecca8-8fe0-4420-9365-651f9eef8dd5" fill="#FFB8B8">
                    </path>
                    <path d="M23.0886447,34.277867 L27.9930358,40.7293861 C28.2753895,41.1003619 28.7027479,41.3283493 29.1639101,41.3540247 C29.6250722,41.3797001 30.0744348,41.2005245 30.3950712,40.8631205 L35.9469521,35.0114342 C37.212464,34.0554978 37.8793934,32.4869099 37.6965144,30.8965425 C37.5136354,29.3061751 36.5087316,27.9356427 35.0603406,27.3012117 C33.6119496,26.6667807 31.9401165,26.8648362 30.6746045,27.8207727 C30.6266062,27.8570351 30.5793509,27.8942704 30.5328385,27.9324785 L23.5697618,31.884276 C23.1664072,32.1133933 22.8812846,32.5093664 22.7886924,32.9690108 C22.6961002,33.4286553 22.8052096,33.9064432 23.0875885,34.2778706 L23.0886447,34.277867 Z" id="b21f2b01-13d8-4bae-8637-c810de2f9faf" fill="#E71C24">
                    </path>
                  </g>
                  <g id="b22d1c68-5a77-444f-a5cc-3f82f20a89dd" transform="translate(0.000000, 103.223350)" fillRule="nonzero">
                    <path d="M45.7665649,49.8117032 C45.5850498,49.8919478 45.4104782,49.9861439 45.2445284,50.0933859 L28.6503538,43.2417307 L28.0583918,39.0129105 L21.4276775,38.9735393 L21.8194823,48.6731609 L43.7220761,54.2774662 C43.7682176,54.4247048 43.8235695,54.5690935 43.8878255,54.7098331 C44.7718407,56.5346386 47.0134301,57.3259942 48.9045746,56.4809123 C50.7957191,55.6358305 51.6261411,53.4717077 50.7630858,51.6375361 C49.9000304,49.8033644 47.6676447,48.9880235 45.7669349,49.8127769 L45.7665649,49.8117032 Z" id="e5b1612b-0075-49ae-a43a-e875f9772667" fill="#F4BE99">
                    </path>
                    <polygon id="aa9c986c-d78a-4457-b2bb-b0791fabccea" fill="#F4BE99" points="19.0161797 137.702093 23.5520885 137.702093 25.70979 120.77679 19.0154398 120.77679">
                    </polygon>
                    <path d="M26.7919594,136.448304 L18.044241,136.448304 L18.044241,141.774864 L32.2997958,141.774864 C32.2997958,138.832098 29.8338534,136.446514 26.7919594,136.446514 L26.7919372,136.446514 L26.7919594,136.448304 Z" id="b210f84f-9c85-4cf8-a59b-65b7d4fb35d0" fill="#2F2E41">
                    </path>
                    <polygon id="f66096e0-a946-448d-a2e8-3cde5fe284ed" fill="#F4BE99" points="1.37569378 136.462263 5.88940399 136.891766 9.75232598 120.252799 3.0901637 119.61964">
                    </polygon>
                    <path d="M9.24374923,135.9528 L0.539769446,135.123465 L0,140.425167 L14.1839052,141.77665 C14.3270623,140.37055 13.8869692,138.967025 12.9604414,137.874835 C12.0339136,136.782644 10.6968475,136.091255 9.24338295,135.952764 L9.24374923,135.9528 Z" id="fcefb2c9-d6d5-4bec-a5f5-cc8066a5bb74" fill="#2F2E41"></path><ellipse id="b1d8892c-f39d-4126-8224-86b256c1ff9d" fill="#F4BE99" cx="17.7534434" cy="12.2702343" rx="9.0869866" ry="8.79086364"></ellipse><path d="M24.5658234,134.279331 C25.3708749,134.281223 26.0604437,133.722161 26.1992685,132.955009 C28.5452879,120.349438 36.2211851,79.1238986 36.4046933,77.9810613 C36.4088181,77.9547665 36.4106248,77.9281984 36.4106248,77.9016032 L36.4106248,74.8277895 C36.4106248,74.7158486 36.3748256,74.6066496 36.3073896,74.5156836 L35.2936547,73.1419881 C35.1959843,73.0080446 35.0396793,72.9254335 34.8704018,72.9182884 C29.0906329,72.6562912 10.1619082,71.8878378 9.2473269,72.9930936 L9.2473269,72.9930936 C8.32904586,74.1026444 8.65536491,77.4695942 8.72936016,78.1328192 L8.72566039,78.2018977 L0.221756363,130.816081 C0.0831398675,131.689288 0.695539504,132.508183 1.59621812,132.653998 L6.90759712,133.500478 C7.72512236,133.627484 8.5156706,133.156741 8.76672776,132.393433 C10.4094223,127.315269 15.9179986,110.231766 17.8270761,103.621349 C17.8523265,103.535271 17.939413,103.480463 18.0309891,103.493016 C18.1225651,103.505569 18.1904847,103.581624 18.1900228,103.6711 C18.0945689,109.972632 17.8640737,126.049308 17.7830489,131.602072 L17.7745394,132.200156 C17.767238,133.039528 18.4250199,133.744748 19.2888522,133.82368 L24.4104334,134.272511 C24.4620791,134.277301 24.5139415,134.279331 24.5658234,134.279331 Z" id="ac2d3eab-b9a5-4eb5-9d63-fe405943fbfc" fill="#2F2E41"></path><path d="M23.5206368,24.5178891 C25.106355,25.4298683 26.0553441,27.1056479 26.5999491,28.8129245 C27.6080381,31.9701706 28.2148283,35.2344572 28.4069131,38.5336633 L28.9825962,48.4122446 L36.1064888,74.6012228 C29.9319552,79.6554057 26.3705639,78.5064837 18.0586775,74.3725122 C9.74679113,70.2385406 8.79743209,75.7508606 8.79743209,75.7508606 L7.13549879,53.4675013 L4.76099123,29.1175141 C5.29408894,28.4965928 5.89746564,27.9354493 6.55981575,27.4445978 C11.0066783,24.0986735 16.7944854,22.9113409 22.2623476,24.2233213 L23.5206368,24.5178891 Z" id="bbed60f3-1a89-4078-91d7-bc96163e326a" fill="#E6E6E6"></path><path d="M25.8344572,55.1006921 C25.6429589,55.1699872 25.4573974,55.2537606 25.2794928,55.3512358 L8.87104626,47.4054204 L8.59874374,43.1010791 L1.83039828,42.6497424 L1.46782156,52.4613928 L23.3948338,59.4766173 C23.761128,60.9986106 25.0627936,62.1424842 26.6639105,62.3494062 C28.2650273,62.5563282 29.8314229,61.7831114 30.5978447,60.4075059 C31.3642665,59.0319003 31.1707531,57.3410116 30.1118442,56.1609123 C29.0529353,54.9808131 27.349638,54.5578045 25.8340872,55.0985445 L25.8344572,55.1006921 Z" id="ff536e95-7831-431c-8ca8-0e166a93b4bb" fill="#F4BE99"></path><path d="M4.87937993,29.2270411 C0.842569105,30.6053895 0.131104783,45.5388696 0.131104783,45.5388696 C4.88048986,43.0119571 10.579604,47.1470024 10.579604,47.1470024 C10.579604,47.1470024 11.7668577,43.2413836 13.1916363,38.1875586 C14.0661013,35.2981396 13.3491887,32.1767586 11.2921782,29.917468 C11.2921782,29.917468 8.91657924,27.8479804 4.87937993,29.2270411 Z" id="ed99b844-bab2-4090-afff-3e8d6994d5eb" fill="#E6E6E6"></path><path d="M9.60730269,14.5952872 C10.73943,13.7191 12.2840808,15.3111265 12.2840808,15.3111265 L13.1897827,7.42579946 C13.1897827,7.42579946 18.8504193,8.08186611 22.4739666,7.20675265 C26.097514,6.3316392 26.6632077,10.3832892 26.6632077,10.3832892 C26.8500009,8.74669167 26.8878839,7.09738725 26.7764204,5.45437822 C26.5499949,3.48295699 23.6064639,1.51117783 18.3983083,0.196897012 C13.1901527,-1.11738381 10.4730471,4.57819101 10.4730471,4.57819101 C6.84804204,6.33020394 8.47371027,15.4714745 9.60730269,14.5952872 Z" id="a410275c-d14b-4b59-9c0e-be849f4d4fe2" fill="#2F2E41"></path></g></g></g></g></g></g></svg>