<?xml version="1.0" encoding="UTF-8"?>
<svg width="1388px" height="204px" viewBox="0 0 1388 204" version="1.1" xmlns="http://www.w3.org/2000/svg" xmlns:xlink="http://www.w3.org/1999/xlink">
    <!-- Generator: Sketch 64 (93537) - https://sketch.com -->
    <title>abcd</title>
    <desc>Created with Sketch.</desc>
    <g id="Apollo" stroke="none" stroke-width="1" fill="none" fill-rule="evenodd">
        <g id="abcd备份" transform="translate(-301.000000, -527.000000)" fill-rule="nonzero">
            <g id="abcd" transform="translate(293.000000, 481.000000)">
                <path d="M58.4,233.4 C50,219.4 43.6,205.6 39.2,192 C33.2,174.6 30.4,157.2 30.4,140 C30.4,122.6 33.2,105.2 39.2,88 C43.6,74.2 50,60.4 58.4,46.6 L39.4,46.6 C29.8,59.6 22.6,73.2 17.4,87.6 C11.2,104.4 8.2,121.8 8.2,140.2 C8.2,158.2 11.2,175.8 17.4,192.6 C22.6,206.6 29.8,220.2 39.4,233.4 L58.4,233.4 Z M345.2,249.6 C355.6,246.6 364,241.2 370.2,233.4 C376.2,225.4 379.4,216.2 379.4,205.6 C379.4,198.6 377.6,192.8 374.2,188.4 C370.6,184 366,181.8 360.6,181.8 C355.6,181.8 351.6,183.2 348.6,186.2 C345.4,189 343.8,192.8 343.8,197.6 C343.8,202 345.2,205.8 348.2,208.8 C351.2,211.8 354.8,213.4 359.2,213.4 C361.4,213.4 363,213 364.2,212.6 C364.2,217.4 362.6,222 359,226.8 C355.2,231.2 350.6,234.4 345.2,236.4 L345.2,249.6 Z M666.6,249.6 C677,246.6 685.4,241.2 691.6,233.4 C697.6,225.4 700.8,216.2 700.8,205.6 C700.8,198.6 699,192.8 695.6,188.4 C692,184 687.4,181.8 682,181.8 C677,181.8 673,183.2 670,186.2 C666.8,189 665.2,192.8 665.2,197.6 C665.2,202 666.6,205.8 669.6,208.8 C672.6,211.8 676.2,213.4 680.6,213.4 C682.8,213.4 684.4,213 685.6,212.6 C685.6,217.4 684,222 680.4,226.8 C676.6,231.2 672,234.4 666.6,236.4 L666.6,249.6 Z M1007.98,249.6 C1018.38,246.6 1026.78,241.2 1032.98,233.4 C1038.98,225.4 1042.18,216.2 1042.18,205.6 C1042.18,198.6 1040.38,192.8 1036.98,188.4 C1033.38,184 1028.78,181.8 1023.38,181.8 C1018.38,181.8 1014.38,183.2 1011.38,186.2 C1008.18,189 1006.58,192.8 1006.58,197.6 C1006.58,202 1007.98,205.8 1010.98,208.8 C1013.98,211.8 1017.58,213.4 1021.98,213.4 C1024.18,213.4 1025.78,213 1026.98,212.6 C1026.98,217.4 1025.38,222 1021.78,226.8 C1017.98,231.2 1013.38,234.4 1007.98,236.4 L1007.98,249.6 Z M1364.36,233.4 C1373.76,220.2 1381.16,206.6 1386.36,192.6 C1392.36,175.8 1395.56,158.2 1395.56,140.2 C1395.56,121.8 1392.36,104.4 1386.36,87.6 C1381.16,73.2 1373.76,59.6 1364.36,46.6 L1345.36,46.6 C1353.56,60.4 1359.96,74.2 1364.56,88 C1370.36,105.2 1373.36,122.6 1373.36,140 C1373.36,157.2 1370.36,174.6 1364.56,192 C1359.96,205.6 1353.56,219.4 1345.36,233.4 L1364.36,233.4 Z" id="(,,,)" fill="#222222"></path>
                <g id="编组" transform="translate(119.000000, 47.000000)">
                    <g id="Group-5">
                        <circle id="Oval" fill="#0332FF" cx="53.5" cy="132.21" r="53.5"></circle>
                        <polygon id="Path" fill="#141414" points="171.0097 0 171.0097 185.77 158.5903 185.77 158.5903 0"></polygon>
                        <polygon id="Path" fill="#141414" points="200.7255 0 200.7255 185.77 191.8545 185.77 191.8545 0"></polygon>
                        <polygon id="Path" fill="#141414" points="7.35 185.39 26.63 185.39 124.44 40.98 124.44 185.77 140.41 185.77 140.41 0.14 132.82 0.14"></polygon>
                    </g>
                    <g id="Group-4" transform="translate(329.000000, 0.000000)">
                        <g id="Group-6" transform="translate(64.000000, 0.000000)">
                            <g id="Group-7">
                                <ellipse id="Oval" fill="#0332FF" cx="54" cy="54.5" rx="54" ry="54.5"></ellipse>
                                <path d="M134.372624,56 C134.291896,57.8756736 134.165056,59.5856939 133.992104,61.1300611 C133.819152,62.6744282 133.49362,64.551969 133.015506,66.7626835 L63.3569505,66.8867399 C34.2962311,66.9335893 10.7174967,91.152358 10.763397,121.033252 C10.8089643,150.611073 33.9963099,174.563473 62.6604513,174.994167 L63.5307199,175 L134.372624,174.87587 L134.391483,185.638553 L63.5488119,185.762849 C28.4834485,185.819132 0.0558101479,156.815593 7.7939887e-05,121.049808 C-0.0536851527,85.6390101 27.7136659,56.76326 62.2890504,56.1344418 L63.3388516,56.1240552 L134.372624,56 Z" id="Path" fill="#141414" transform="translate(67.195741, 120.881465) scale(-1, 1) translate(-67.195741, -120.881465) "></path>
                            </g>
                        </g>
                        <polygon id="Path" fill="#141414" points="48.15 0 48.15 185.77 36.15 185.77 36.15 0"></polygon>
                        <polygon id="Path" fill="#141414" points="18.37095 0.3 18.37095 186.07 0.62905 186.07 0.62905 0.3"></polygon>
                    </g>
                    <g id="Group-2" transform="translate(657.000000, 1.000000)">
                        <circle id="Oval" fill="#0332FF" cx="45.03" cy="95.26" r="45.03"></circle>
                        <path d="M203.887106,0.6434113 L203.912894,15.3565887 L129.742621,15.4865892 C87.1734557,15.5596223 52.7235522,50.1224125 52.7964622,92.6873588 C52.8688797,134.830863 86.7446197,169.016638 128.72258,169.625395 L129.997093,169.633538 L204.167093,169.503411 L204.192907,184.216589 L130.022601,184.346854 C79.3312737,184.433546 38.1703951,143.407147 38.0831463,92.7126012 C37.9973224,42.5281626 78.2064649,1.68455436 128.199211,0.788311106 L129.717106,0.7734113 L203.887106,0.6434113 Z" id="Path" fill="#141414"></path>
                        <path d="M203.950795,30.0186579 L203.969205,40.7813421 L133.818475,40.9013433 C105.042474,40.9466599 81.7460138,64.3215958 81.7912705,93.1015131 C81.8361992,121.589771 104.746438,144.707509 133.129053,145.123104 L133.990789,145.128731 L204.140789,145.008658 L204.159211,155.771342 L134.008462,155.891496 C99.2849958,155.946019 71.0833416,127.839069 71.0285044,93.1184622 C70.9745269,58.7422163 98.5216245,30.7580199 132.761205,30.1487206 L133.800795,30.1386579 L203.950795,30.0186579 Z" id="Path" fill="#141414"></path>
                        <path d="M203.993415,55.2361558 L204.006585,62.7438442 L135.596013,62.8638452 C118.94314,62.8905182 105.467156,76.4132431 105.493801,93.0639753 C105.52025,109.544027 118.777701,122.922874 135.194963,123.162957 L135.693413,123.1662 L204.103413,123.046156 L204.116587,130.553844 L135.706007,130.673939 C114.912614,130.707163 98.0194818,113.869001 97.9860611,93.0760069 C97.9531645,72.4872832 114.449356,55.7276575 134.960645,55.3621992 L135.583415,55.3561558 L203.993415,55.2361558 Z" id="Path" fill="#141414"></path>
                    </g>
                    <g id="Group-3-Copy" transform="translate(990.000000, 1.000000)">
                        <circle id="Oval" fill="#0332FF" cx="51.28" cy="93.28" r="51.28"></circle>
                        <path d="M94.4573988,0.94300913 C145.148726,0.856454099 186.309605,41.8828531 186.397264,92.5773988 C186.482678,142.761837 146.273535,183.605446 96.3142835,184.501552 L94.7974139,184.516447 L82.6274139,184.646447 L82.5325861,169.933553 L94.7373788,169.803411 C137.306544,169.730378 171.756448,135.167587 171.683538,92.6026412 C171.61112,50.4591374 137.73538,16.273362 95.7909469,15.6644673 L94.5174602,15.65632 L61.3474602,15.7864469 L61.2525398,1.07355309 L94.4573988,0.94300913 Z" id="Path" fill="#141414"></path>
                        <g id="Group-8" transform="translate(31.000000, 1.000000)" fill="#141414">
                            <path d="M0.3,0 L15.0131678,0.0307592359 L14.7099584,143.22863 C12.0919234,142.96454 9.58077277,142.506766 7.17650646,141.855309 C4.77224015,141.203852 2.38007133,140.404048 0,139.455898 L0.3,0 Z" id="Path"></path>
                            <path d="M29.4211105,41.8161621 C31.1531186,42.1208814 32.7102103,42.4744706 34.0923856,42.8769299 C35.4745608,43.2793891 36.8744514,43.738956 38.2920574,44.2556305 L37.7920574,183.530727 L28.9211105,183.500032 L29.4211105,41.8161621 Z" id="Path"></path>
                        </g>
                    </g>
                </g>
            </g>
        </g>
    </g>
</svg>