<svg width="80" height="80" fill="none" xmlns="http://www.w3.org/2000/svg"><path d="M40 80C17.945 80 0 62.055 0 40S17.945 0 40 0s40 17.945 40 40a39.968 39.968 0 0 1-27.24 37.922 1.59 1.59 0 0 1-2.012-1 1.59 1.59 0 0 1 1-2.012A36.794 36.794 0 0 0 76.826 40c0-20.305-16.518-36.823-36.823-36.823S3.182 19.695 3.182 40s16.517 36.823 36.822 36.823c1.68 0 3.368-.112 5.02-.34a1.588 1.588 0 1 1 .427 3.148c-1.792.245-3.626.369-5.447.369H40z" fill="#fff"/><path d="m73.293 28.792-17.879-8.317v-5.662h2.153v3.198a1.41 1.41 0 1 0 2.82 0v-4.609c0-.78-.63-1.41-1.41-1.41H54c-.78 0-1.41.63-1.41 1.41v5.758l-12.08-5.62a1.425 1.425 0 0 0-1.198 0L6.703 28.791a1.416 1.416 0 1 0 1.199 2.568L39.91 16.389l32.185 14.975a1.418 1.418 0 0 0 1.883-.684c.332-.71.02-1.552-.684-1.88v-.008z" fill="#fff"/><path d="M67.859 58.766h-1.714v-26.64c0-.779-.634-1.414-1.414-1.414H20.628c-.78 0-1.414.635-1.414 1.415s.635 1.414 1.414 1.414h42.688v25.225H16.24v-26.64c0-.779-.635-1.414-1.415-1.414s-1.414.635-1.414 1.415v26.639H11.98c-.78 0-1.415.635-1.415 1.414 0 .78.635 1.415 1.415 1.415h55.883c.78 0 1.414-.635 1.414-1.415s-.634-1.414-1.414-1.414h-.004z" fill="#fff"/><path d="M45.339 46.508c.78 0 1.41-.63 1.41-1.41v-5.53c0-.78-.63-1.41-1.41-1.41H34.612c-.78 0-1.41.63-1.41 1.41v10.727c0 .78.63 1.41 1.41 1.41h10.727a1.41 1.41 0 1 0 0-2.82h-9.317v-7.902h7.902v4.12c0 .779.63 1.41 1.41 1.41l.005-.005z" fill="#fff"/></svg>