<?xml version="1.0" encoding="UTF-8"?>
<svg width="560px" height="593px" viewBox="0 0 560 593" version="1.1" xmlns="http://www.w3.org/2000/svg" xmlns:xlink="http://www.w3.org/1999/xlink">
    <title>Combined Shape Copy</title>
    <g id="Page-1" stroke="none" stroke-width="1" fill="none" fill-rule="evenodd" opacity="1">
        <g id="Apollo---Home" transform="translate(-162.000000, -5355.000000)" fill-rule="nonzero" stroke="#FFFFFF" stroke-width="2">
            <g id="section-7" transform="translate(0.000000, 5103.000000)">
                <g id="content" transform="translate(162.000000, 253.000000)">
                    <g id="logo" transform="translate(0.866933, 0.000000)">
                        <path d="M296.581721,591 C133.071452,591 0.133066843,458.487026 0.133066843,295.5 C0.133066843,132.512974 133.071452,0 296.581721,0 C405.062599,0 504.865007,58.9820359 556.935829,154.139721 L469.362174,201.718563 C434.845531,138.607784 368.573577,99.4830339 296.581721,99.4830339 C188.100843,99.4830339 99.9354748,187.366267 99.9354748,295.5 C99.9354748,403.633733 188.100843,491.516966 296.581721,491.516966 C368.770815,491.516966 435.042769,452.195609 469.559412,388.888224 L557.133067,436.270459 C505.062245,531.62475 405.259837,591 296.581721,591 Z" id="Combined-Shape-Copy"></path>
                    </g>
                </g>
            </g>
        </g>
    </g>
</svg>