<?xml version="1.0" encoding="UTF-8"?>
<svg width="301px" height="163px" viewBox="0 0 301 163" version="1.1" xmlns="http://www.w3.org/2000/svg" xmlns:xlink="http://www.w3.org/1999/xlink">
    <title>Combined Shape</title>
    <defs>
        <radialGradient cx="28.378277%" cy="28.4053179%" fx="28.378277%" fy="28.4053179%" r="80.8974362%" gradientTransform="translate(0.283783,0.284053),scale(0.541528,1.000000),rotate(70.927790),translate(-0.283783,-0.284053)" id="radialGradient-1">
            <stop stop-color="#FFFFFF" offset="0.0765413851%"></stop>
            <stop stop-color="#EBF4FF" offset="64.7522054%"></stop>
            <stop stop-color="#AAB9FF" offset="100%"></stop>
        </radialGradient>
    </defs>
    <g id="Page-1" stroke="none" stroke-width="1" fill="none" fill-rule="evenodd">
        <g id="Apollo---Account-Set" transform="translate(-464.000000, -346.000000)" fill="url(#radialGradient-1)" fill-rule="nonzero">
            <g id="Group-9" transform="translate(279.000000, 164.000000)">
                <path d="M266.962465,182 C296.955382,182 324.548867,198.267465 338.945467,224.512309 L314.733003,237.634731 C305.189802,220.228543 286.866856,209.437791 266.962465,209.437791 C236.969547,209.437791 212.593484,233.676314 212.593484,263.5 C212.593484,293.323686 236.969547,317.562209 266.962465,317.562209 C286.921388,317.562209 305.244334,306.717232 314.787535,289.25682 L339,302.325017 C324.603399,328.624085 297.009915,345 266.962465,345 C221.754958,345 185,308.452428 185,263.5 C185,218.547572 221.754958,182 266.962465,182 Z M371,234.457146 L371,295.542854 C371,296.958388 369.805921,298.101703 368.449013,297.992816 C351.40625,296.68617 338,282.421949 338,265 C338,247.578051 351.40625,233.31383 368.449013,232.007184 C369.860197,231.898297 371,233.041612 371,234.457146 Z M421,234.457146 L421,295.542854 C421,296.958388 419.805921,298.101703 418.449013,297.992816 C401.40625,296.68617 388,282.421949 388,265 C388,247.578051 401.40625,233.31383 418.449013,232.007184 C419.860197,231.898297 421,233.041612 421,234.457146 Z M468.51634,239 C469.224401,239 469.769063,239.599129 469.769063,240.252723 L469.769063,240.252723 L469.769063,255.176471 L484.69281,255.176471 C485.400871,255.176471 485.945534,255.721133 486,256.429194 L486,256.429194 L486,271.570806 C486,272.278867 485.455338,272.823529 484.747277,272.823529 L484.747277,272.823529 L469.823529,272.823529 L469.823529,287.747277 C469.823529,288.455338 469.278867,289 468.570806,289 L468.570806,289 L453.429194,289 C452.721133,289 452.176471,288.455338 452.176471,287.747277 L452.176471,287.747277 L452.176471,272.823529 L437.252723,272.823529 C436.544662,272.823529 436,272.278867 436,271.570806 L436,271.570806 L436,256.429194 C436,255.721133 436.599129,255.176471 437.252723,255.176471 L437.252723,255.176471 L452.176471,255.176471 L452.176471,240.252723 C452.176471,239.544662 452.775599,239 453.429194,239 L453.429194,239 Z" id="Combined-Shape"></path>
            </g>
        </g>
    </g>
</svg>