<?xml version="1.0" encoding="UTF-8"?>
<svg width="105px" height="56px" viewBox="0 0 105 56" version="1.1" xmlns="http://www.w3.org/2000/svg" xmlns:xlink="http://www.w3.org/1999/xlink">
    <title>Group</title>
    <g id="Page-1" stroke="none" stroke-width="1" fill="none" fill-rule="evenodd">
        <g id="Apollo---Home" transform="translate(-355.000000, -2285.000000)" fill="#FFFFFF" fill-rule="nonzero">
            <g id="section-3" transform="translate(-30.000000, 1861.000000)">
                <g id="content" transform="translate(350.000000, 0.000000)">
                    <g id="Group" transform="translate(35.500000, 424.000000)">
                        <path d="M28.1756374,56 C12.9107649,56 0.5,43.4437791 0.5,28 C0.5,12.5562209 12.9107649,0 28.1756374,0 C38.3031161,0 47.6203966,5.58882236 52.4815864,14.6054558 L44.305949,19.1137725 C41.0835694,13.1337325 34.8966006,9.42648037 28.1756374,9.42648037 C18.0481586,9.42648037 9.81728045,17.7538257 9.81728045,28 C9.81728045,38.2461743 18.0481586,46.5735196 28.1756374,46.5735196 C34.9150142,46.5735196 41.101983,42.8476381 44.3243626,36.8489687 L52.5,41.338656 C47.6388102,50.3739188 38.3215297,56 28.1756374,56 Z" id="Path"></path>
                        <path d="M65.5,38.1809515 C65.5,38.6527959 65.1019737,39.0339011 64.6496711,38.9976053 C58.96875,38.5620566 54.5,33.8073163 54.5,28 C54.5,22.1926837 58.96875,17.4379434 64.6496711,17.0023947 C65.1200658,16.9660989 65.5,17.3472041 65.5,17.8190485 L65.5,38.1809515 Z" id="Path"></path>
                        <path d="M81.5,38.1809515 C81.5,38.6527959 81.1019737,39.0339011 80.6496711,38.9976053 C74.96875,38.5620566 70.5,33.8073163 70.5,28 C70.5,22.1926837 74.96875,17.4379434 80.6496711,17.0023947 C81.1200658,16.9660989 81.5,17.3472041 81.5,17.8190485 L81.5,38.1809515 Z" id="Path"></path>
                        <path d="M103.055556,25.5 L97.9814815,25.5 L97.9814815,20.4259259 C97.9814815,20.2037037 97.7962963,20 97.5555556,20 L92.4259259,20 C92.2037037,20 92,20.1851852 92,20.4259259 L92,25.5 L86.9259259,25.5 C86.7037037,25.5 86.5,25.6851852 86.5,25.9259259 L86.5,31.0740741 C86.5,31.3148148 86.6851852,31.5 86.9259259,31.5 L92,31.5 L92,36.5740741 C92,36.8148148 92.1851852,37 92.4259259,37 L97.5740741,37 C97.8148148,37 98,36.8148148 98,36.5740741 L98,31.5 L103.074074,31.5 C103.314815,31.5 103.5,31.3148148 103.5,31.0740741 L103.5,25.9259259 C103.481481,25.6851852 103.296296,25.5 103.055556,25.5 Z" id="Path"></path>
                    </g>
                </g>
            </g>
        </g>
    </g>
</svg>