<?xml version="1.0" encoding="UTF-8"?>
<svg width="200px" height="211px" viewBox="0 0 200 211" version="1.1" xmlns="http://www.w3.org/2000/svg" xmlns:xlink="http://www.w3.org/1999/xlink">
    <!-- Generator: Sketch 64 (93537) - https://sketch.com -->
    <title>account icon</title>
    <desc>Created with Sketch.</desc>
    <g id="Page-1" stroke="none" stroke-width="1" fill="none" fill-rule="evenodd">
        <g id="Artboard" transform="translate(-694.000000, -1633.000000)" fill="#FFFFFF" fill-rule="nonzero">
            <g id="Group-2">
                <g id="account-icon" transform="translate(694.000000, 1633.000000)">
                    <g id="Group">
                        <path d="M31.010453,88.3012242 C32.2648084,88.3012242 33.3797909,87.4662245 33.728223,86.2137248 C41.8118467,55.6666504 68.4320557,33.1912403 99.9303136,33.1912403 C131.358885,33.1912403 157.839721,55.5274838 166.062718,85.8658083 C166.41115,87.2574745 167.735192,88.2316409 169.198606,88.2316409 L196.655052,88.2316409 C198.397213,88.2316409 199.721254,86.6312247 199.442509,84.8916419 C190.10453,36.8791559 149.12892,0.556666504 100,0.556666504 C50.8013937,0.556666504 9.75609756,36.8791559 0.487804878,84.8916419 C0.139372822,86.6312247 1.46341463,88.2316409 3.27526132,88.2316409 L31.010453,88.2316409 L31.010453,88.3012242 Z" id="Path"></path>
                        <path d="M168.780488,122.953714 C167.526132,122.953714 166.41115,123.788714 166.062718,125.041213 C157.979094,155.588288 131.358885,178.063698 99.8606272,178.063698 C68.3623693,178.063698 41.7421603,155.588288 33.6585366,125.041213 C33.3101045,123.788714 32.195122,122.953714 30.9407666,122.953714 L3.20557491,122.953714 C1.46341463,122.953714 0.139372822,124.55413 0.418118467,126.293713 C9.75609756,174.306199 50.7317073,210.628688 99.8606272,210.628688 C148.919861,210.628688 189.965157,174.306199 199.303136,126.293713 C199.651568,124.55413 198.327526,122.953714 196.515679,122.953714 L168.780488,122.953714 Z" id="Path"></path>
                    </g>
                    <path d="M96.9526599,149.700439 L55.2370809,108.438291 C53.8372292,107.053655 53.8372292,104.769005 55.2370809,103.38437 L96.9526599,62.1222207 C98.3525116,60.7375849 100.662267,60.7375849 102.062118,62.1222207 L143.777697,103.38437 C145.177549,104.769005 145.177549,107.053655 143.777697,108.438291 L102.062118,149.700439 C100.662267,151.085075 98.3525116,151.085075 96.9526599,149.700439 Z" id="Path"></path>
                </g>
            </g>
        </g>
    </g>
</svg>