<?xml version="1.0" encoding="UTF-8"?>
<svg width="975px" height="529px" viewBox="0 0 975 529" version="1.1" xmlns="http://www.w3.org/2000/svg" xmlns:xlink="http://www.w3.org/1999/xlink">
    <title>Combined Shape Copy</title>
    <g id="Page-1" stroke="none" stroke-width="1" fill="none" fill-rule="evenodd" opacity="0.2">
        <g id="Apollo---Account-Set" transform="translate(-278.000000, -163.000000)" fill-rule="nonzero" stroke="#FFFFFF" stroke-width="2">
            <g id="Group-9" transform="translate(279.000000, 164.000000)">
                <path d="M265.04745,0 C362.037535,0 451.268414,52.5948104 497.823654,137.447771 L419.526204,179.874251 C388.665722,123.597804 329.413598,88.7099135 265.04745,88.7099135 C168.057365,88.7099135 89.2308782,167.076181 89.2308782,263.5 C89.2308782,359.923819 168.057365,438.290086 265.04745,438.290086 C329.589943,438.290086 388.842068,403.22688 419.70255,346.775116 L498,389.026281 C451.444759,474.054558 362.213881,527 265.04745,527 C118.856941,527 0,408.836993 0,263.5 C0,118.163007 118.856941,0 265.04745,0 Z M601,169.929879 L601,367.070121 C601,371.638433 597.128289,375.328224 592.728618,374.976815 C537.46875,370.759912 494,324.725381 494,268.5 C494,212.274619 537.46875,166.240088 592.728618,162.023185 C597.304276,161.671776 601,165.361567 601,169.929879 Z M763,169.929879 L763,367.070121 C763,371.638433 759.128289,375.328224 754.728618,374.976815 C699.46875,370.759912 656,324.725381 656,268.5 C656,212.274619 699.46875,166.240088 754.728618,162.023185 C759.304276,161.671776 763,165.361567 763,169.929879 Z M916.352941,184 C918.647059,184 920.411765,185.941176 920.411765,188.058824 L920.411765,188.058824 L920.411765,236.411765 L968.764706,236.411765 C971.058824,236.411765 972.823529,238.176471 973,240.470588 L973,240.470588 L973,289.529412 C973,291.823529 971.235294,293.588235 968.941176,293.588235 L968.941176,293.588235 L920.588235,293.588235 L920.588235,341.941176 C920.588235,344.235294 918.823529,346 916.529412,346 L916.529412,346 L867.470588,346 C865.176471,346 863.411765,344.235294 863.411765,341.941176 L863.411765,341.941176 L863.411765,293.588235 L815.058824,293.588235 C812.764706,293.588235 811,291.823529 811,289.529412 L811,289.529412 L811,240.470588 C811,238.176471 812.941176,236.411765 815.058824,236.411765 L815.058824,236.411765 L863.411765,236.411765 L863.411765,188.058824 C863.411765,185.764706 865.352941,184 867.470588,184 L867.470588,184 Z" id="Combined-Shape-Copy"></path>
            </g>
        </g>
    </g>
</svg>