<?xml version="1.0" encoding="UTF-8"?>
<svg width="60px" height="60px" viewBox="0 0 60 60" version="1.1" xmlns="http://www.w3.org/2000/svg" xmlns:xlink="http://www.w3.org/1999/xlink">
    <!-- Generator: Sketch 64 (93537) - https://sketch.com -->
    <title>b2b-4</title>
    <desc>Created with Sketch.</desc>
    <g id="Apollo" stroke="none" stroke-width="1" fill="none" fill-rule="evenodd">
        <g id="Apollo---b2b" transform="translate(-1178.000000, -1197.000000)" fill="#022575" fill-rule="nonzero">
            <g id="b2b-4" transform="translate(1178.000000, 1197.000000)">
                <path d="M48.6268657,20.7761194 L43.7910448,12.358209 C43.3432836,11.5522388 42.4477612,11.1044776 41.5522388,11.1044776 L17.641791,11.1044776 C16.7462687,11.1044776 15.8507463,11.641791 15.4029851,12.358209 L10.5671642,20.7761194 C10.4776119,20.8656716 10.4776119,21.0447761 10.4776119,21.2238806 L10.4776119,21.2238806 L10.4776119,42.5373134 C10.4776119,44.5970149 12.1791045,46.2985075 14.238806,46.2985075 L45.0447761,46.2985075 C47.1044776,46.2985075 48.8059701,44.5970149 48.8059701,42.5373134 L48.8059701,21.2238806 L48.8059701,21.2238806 C48.7164179,21.0447761 48.6268657,20.7761194 48.6268657,20.7761194 Z M42.1791045,13.2537313 L46.2985075,20.3283582 L36.5373134,20.3283582 L34.3880597,12.8955224 L41.5522388,12.8955224 C41.8208955,12.8059701 42.0895522,12.9850746 42.1791045,13.2537313 Z M32.5074627,12.8955224 L34.6567164,20.1492537 L24.5373134,20.1492537 L26.6865672,12.8955224 L32.5074627,12.8955224 Z M24.2686567,22.119403 L34.9253731,22.119403 L34.9253731,27.3134328 L24.2686567,27.3134328 L24.2686567,22.119403 Z M17.0149254,13.2537313 C17.1940299,12.9850746 17.4626866,12.8955224 17.7313433,12.8955224 L24.8955224,12.8955224 L22.7462687,20.3283582 L12.8955224,20.3283582 L17.0149254,13.2537313 Z M46.9253731,42.5373134 C46.9253731,43.6119403 46.0298507,44.5074627 44.9552239,44.5074627 L14.238806,44.5074627 C13.1641791,44.5074627 12.2686567,43.6119403 12.2686567,42.5373134 L12.2686567,22.119403 L22.4776119,22.119403 L22.4776119,28.2089552 C22.4776119,28.7462687 22.8358209,29.1044776 23.3731343,29.1044776 L35.8208955,29.1044776 C36.358209,29.1044776 36.7164179,28.7462687 36.7164179,28.2089552 L36.7164179,22.119403 L46.9253731,22.119403 L46.9253731,42.5373134 Z" id="Shape"></path>
                <path d="M25.0746269,31.7014925 C25.0746269,31.7014925 25.0746269,31.7014925 25.0746269,31.7014925 C24.8955224,31.5223881 24.7164179,31.4328358 24.4477612,31.4328358 C24.1791045,31.4328358 24,31.5223881 23.8208955,31.7014925 C23.8208955,31.7014925 23.8208955,31.7014925 23.8208955,31.7014925 L20.4179104,35.1044776 C20.0597015,35.4626866 20.0597015,36 20.4179104,36.358209 C20.7761194,36.7164179 21.3134328,36.7164179 21.6716418,36.358209 L23.4626866,34.4776119 L23.4626866,41.8208955 C23.4626866,42.358209 23.8208955,42.7164179 24.358209,42.7164179 C24.8955224,42.7164179 25.2537313,42.358209 25.2537313,41.8208955 L25.2537313,34.4776119 L27.0447761,36.358209 C27.4029851,36.7164179 27.9402985,36.7164179 28.2985075,36.358209 C28.6567164,36 28.6567164,35.4626866 28.2985075,35.1044776 L25.0746269,31.7014925 Z" id="Path"></path>
                <path d="M35.3731343,31.7014925 C35.3731343,31.7014925 35.3731343,31.7014925 35.3731343,31.7014925 C35.1940299,31.5223881 35.0149254,31.4328358 34.7462687,31.4328358 C34.4776119,31.4328358 34.2985075,31.5223881 34.119403,31.7014925 C34.119403,31.7014925 34.119403,31.7014925 34.119403,31.7014925 L30.7164179,35.1044776 C30.358209,35.4626866 30.358209,36 30.7164179,36.358209 C31.0746269,36.7164179 31.6119403,36.7164179 31.9701493,36.358209 L33.761194,34.4776119 L33.761194,41.8208955 C33.761194,42.358209 34.119403,42.7164179 34.6567164,42.7164179 C35.1940299,42.7164179 35.5522388,42.358209 35.5522388,41.8208955 L35.5522388,34.4776119 L37.3432836,36.358209 C37.7014925,36.7164179 38.238806,36.7164179 38.5970149,36.358209 C38.9552239,36 38.9552239,35.4626866 38.5970149,35.1044776 L35.3731343,31.7014925 Z" id="Path"></path>
                <path d="M4.56716418,31.1641791 L7.79104478,27.9402985 C8.14925373,27.5820896 8.14925373,27.0447761 7.79104478,26.6865672 C7.43283582,26.3283582 6.89552239,26.3283582 6.53731343,26.6865672 L4.92537313,28.2985075 C5.91044776,17.0149254 14.238806,7.88059701 25.4328358,6 C25.880597,5.91044776 26.238806,5.46268657 26.1492537,4.92537313 C26.0597015,4.47761194 25.6119403,4.11940299 25.0746269,4.20895522 C13.0746269,6.26865672 4.11940299,16.2089552 3.13432836,28.2089552 L1.6119403,26.4179104 C1.25373134,26.0597015 0.71641791,25.9701493 0.358208955,26.3283582 C1.11022302e-16,26.6865672 -0.0895522388,27.2238806 0.268656716,27.5820896 L3.31343284,31.0746269 C3.58208955,31.4328358 4.20895522,31.5223881 4.56716418,31.1641791 Z" id="Path"></path>
                <path d="M30.1791045,55.6119403 L26.9552239,52.3880597 C26.5970149,52.0298507 26.0597015,52.0298507 25.7014925,52.3880597 C25.3432836,52.7462687 25.3432836,53.2835821 25.7014925,53.641791 L27.3134328,55.2537313 C16.119403,54.1791045 6.80597015,45.4925373 5.10447761,34.2089552 C5.01492537,33.761194 4.56716418,33.4029851 4.11940299,33.4925373 C3.58208955,33.5820896 3.2238806,34.0298507 3.31343284,34.4776119 C5.10447761,46.5671642 15.0447761,55.7910448 26.9552239,56.9552239 L25.0746269,58.2985075 C24.7164179,58.5671642 24.6268657,59.1940299 24.8955224,59.5522388 C25.1641791,59.9104478 25.7910448,60 26.1492537,59.7313433 L30,56.8656716 C30.5373134,56.6865672 30.5373134,55.9701493 30.1791045,55.6119403 Z" id="Path"></path>
                <path d="M58.9253731,33.4029851 L55.880597,29.9104478 C55.7014925,29.7313433 55.5223881,29.641791 55.2537313,29.641791 C54.9850746,29.641791 54.8059701,29.7313433 54.6268657,29.9104478 L51.4029851,33.1343284 C51.0447761,33.4925373 51.0447761,34.0298507 51.4029851,34.3880597 C51.761194,34.7462687 52.2985075,34.7462687 52.6567164,34.3880597 L54.2686567,32.7761194 C53.2835821,44.1492537 44.4179104,53.641791 33.0447761,55.1641791 C32.5970149,55.2537313 32.238806,55.7014925 32.238806,56.1492537 C32.3283582,56.6865672 32.7761194,56.9552239 33.2238806,56.9552239 C45.5820896,55.2537313 54.9850746,45.0447761 56.0597015,32.7761194 L57.6716418,34.5671642 C58.0298507,34.9253731 58.5671642,35.0149254 58.9253731,34.6567164 C59.1940299,34.2985075 59.1940299,33.761194 58.9253731,33.4029851 Z" id="Path"></path>
                <path d="M28.9253731,5.37313433 L32.1492537,8.59701493 C32.5074627,8.95522388 33.0447761,8.95522388 33.4029851,8.59701493 C33.761194,8.23880597 33.761194,7.70149254 33.4029851,7.34328358 L31.7910448,5.73134328 C43.0746269,6.80597015 52.3880597,15.5820896 54,26.9552239 C54.0895522,27.4029851 54.5373134,27.761194 54.9850746,27.6716418 C55.4328358,27.5820896 55.7910448,27.1343284 55.7014925,26.6865672 C54.0895522,14.4179104 43.9701493,5.01492537 31.880597,3.94029851 L33.6716418,2.41791045 C34.0298507,2.05970149 34.119403,1.52238806 33.761194,1.1641791 C33.4029851,0.805970149 32.8656716,0.71641791 32.5074627,1.07462687 L29.0149254,4.02985075 C28.5671642,4.3880597 28.4776119,5.01492537 28.9253731,5.37313433 Z" id="Path"></path>
            </g>
        </g>
    </g>
</svg>