<?xml version="1.0" encoding="UTF-8"?>
<svg width="112px" height="56px" viewBox="0 0 112 56" version="1.1" xmlns="http://www.w3.org/2000/svg" xmlns:xlink="http://www.w3.org/1999/xlink">
    <title>Group</title>
    <defs>
        <filter id="filter-1">
            <feColorMatrix in="SourceGraphic" type="matrix" values="0 0 0 0 1.000000 0 0 0 0 1.000000 0 0 0 0 1.000000 0 0 0 1.000000 0"></feColorMatrix>
        </filter>
    </defs>
    <g id="Page-1" stroke="none" stroke-width="1" fill="none" fill-rule="evenodd">
        <g id="Apollo---Home" transform="translate(-351.000000, -2145.000000)">
            <g id="section-3" transform="translate(-30.000000, 1861.000000)">
                <g id="Group" transform="translate(350.000000, 0.000000)" filter="url(#filter-1)">
                    <g transform="translate(31.250000, 284.000000)">
                        <path d="M25.8403733,27.0112534 C26.7480354,26.2724098 27.5476424,25.403182 28.2175835,24.4253007 C29.9464637,21.9480016 30.8109037,19.0795499 30.8109037,15.798215 C30.8325147,13.516492 30.3354617,11.2564998 29.3629666,9.19208382 C29.3413556,9.14862243 28.9955796,8.49670159 28.9739686,8.4532402 C28.2175835,7.12766783 27.2883104,5.91074893 26.1861493,4.86767559 L26.1429273,4.8242142 C21.0859528,0.173845557 15.1861493,0.0869227784 13.6733792,0.0434613892 C12.8737721,0.0217306946 9.09184676,0 9.09184676,0 L1.50638507,0 C1.09577603,0 0.75,0.347691114 0.75,0.760574311 L0.75,55.2394257 C0.75,55.6523089 1.09577603,56 1.50638507,56 L13.4572692,56 C17.2391945,56 20.3944008,55.6523089 22.922888,54.9569267 C25.2784872,54.218083 27.4179764,52.9142414 29.1468566,51.1323244 C32.2156189,48.1552192 33.75,44.5261932 33.75,40.201785 C33.75,36.9204501 32.8855599,34.0302678 31.1566798,31.5746993 C29.8167976,29.5972061 27.9798625,28.0108653 25.8403733,27.0112534 Z M9.11345776,7.86651145 L10.5613949,7.86651145 C15.0780943,7.86651145 18.1900786,8.67054715 19.9405697,10.2568879 C21.6910609,11.7563058 22.685167,13.9511059 22.641945,16.2545596 C22.685167,18.6014746 21.6478389,20.8397361 19.8325147,22.3174234 C18.0604126,23.7951106 15.2725933,24.5339542 11.490668,24.5339542 L9.09184676,24.5339542 L9.09184676,7.86651145 L9.11345776,7.86651145 Z M22.663556,45.9604191 C20.8914538,47.4381063 18.1036346,48.1769499 14.3217092,48.1769499 L9.13506876,48.1769499 L9.13506876,31.5095072 L13.3708251,31.5095072 C17.8875246,31.5095072 20.9995088,32.3135429 22.75,33.8998836 C24.5004912,35.3993015 25.4945972,37.5941017 25.4513752,39.8975553 C25.5162083,42.2444703 24.4788802,44.4827319 22.663556,45.9604191 Z" id="Shape" fill="#0332FF" fill-rule="nonzero"></path>
                        <path d="M108.15668,31.5746993 C106.816798,29.5972061 104.979862,28.032596 102.840373,27.0112534 C103.748035,26.2724098 104.547642,25.403182 105.217583,24.4253007 C106.946464,21.9480016 107.810904,19.0795499 107.810904,15.798215 C107.832515,13.516492 107.335462,11.2564998 106.362967,9.19208382 C106.341356,9.14862243 105.99558,8.49670159 105.973969,8.4532402 C105.217583,7.12766783 104.28831,5.91074893 103.186149,4.86767559 L103.142927,4.8242142 C98.0859528,0.173845557 92.1861493,0.0869227784 90.6733792,0.0434613892 C89.160609,0 83.2608055,0 83.2608055,0 L78.5063851,0 C78.095776,0 77.75,0.347691114 77.75,0.760574311 L77.75,55.2394257 C77.75,55.6523089 78.095776,56 78.5063851,56 L90.4572692,56 C94.2391945,56 97.3944008,55.6523089 99.922888,54.9569267 C102.278487,54.218083 104.417976,52.9142414 106.146857,51.1323244 C109.215619,48.1552192 110.75,44.5261932 110.75,40.201785 C110.75,36.9204501 109.88556,34.0519984 108.15668,31.5746993 Z M86.1134578,7.86651145 L87.5613949,7.86651145 C92.0780943,7.86651145 95.1900786,8.67054715 96.9405697,10.2568879 C98.6910609,11.7563058 99.685167,13.9511059 99.641945,16.2545596 C99.685167,18.6014746 98.6478389,20.8397361 96.8325147,22.3174234 C95.0604126,23.7951106 92.2725933,24.5339542 88.490668,24.5339542 L86.0918468,24.5339542 L86.1134578,7.86651145 L86.1134578,7.86651145 Z M99.663556,45.9604191 C97.8914538,47.4381063 95.1036346,48.1769499 91.3217092,48.1769499 L86.1350688,48.1769499 L86.1350688,31.5095072 L90.3708251,31.5095072 C94.8875246,31.5095072 97.9995088,32.3135429 99.75,33.8998836 C101.500491,35.3993015 102.494597,37.5941017 102.451375,39.8975553 C102.516208,42.2444703 101.47888,44.4827319 99.663556,45.9604191 Z" id="Shape" fill="#0332FF" fill-rule="nonzero"></path>
                        <path d="M38.1659547,7.61183011 C37.6259641,7.07178205 37.6043645,6.18610324 38.144355,5.64605518 C38.1659547,5.62445326 38.1875543,5.60285134 38.2307535,5.58124941 C46.2442128,-1.26655996 58.3184008,-0.337677301 65.1654805,7.6982378 C71.2781732,14.8484741 71.2781732,25.3686103 65.1654805,32.5188465 C64.6470896,33.1020985 63.7615052,33.1669042 63.199915,32.6484581 C63.1783154,32.6268562 63.1567158,32.6052542 63.1351162,32.5836523 L38.1659547,7.61183011 Z" id="Path" fill="#0332FF" fill-rule="nonzero"></path>
                        <path d="M71.3258872,49.366568 C71.8877165,49.906616 71.8877165,50.7922948 71.347496,51.3539448 C71.3258872,51.3755467 71.3042784,51.3971487 71.2826696,51.4187506 C63.2657976,58.26656 51.1864676,57.3376773 44.3364719,49.3017622 C38.221176,42.1515259 38.221176,31.6313897 44.3364719,24.4811535 C44.8334747,23.8979015 45.7194363,23.8330958 46.3028745,24.3515419 C46.3244833,24.3731438 46.3460921,24.3947458 46.3893097,24.4163477 L71.3258872,49.366568 Z" id="Path" fill="#0332FF" fill-rule="nonzero"></path>
                    </g>
                </g>
            </g>
        </g>
    </g>
</svg>