<?xml version="1.0" encoding="UTF-8"?>
<svg width="60px" height="40px" viewBox="0 0 60 40" version="1.1" xmlns="http://www.w3.org/2000/svg" xmlns:xlink="http://www.w3.org/1999/xlink">
    <!-- Generator: Sketch 64 (93537) - https://sketch.com -->
    <title>b2b-3</title>
    <desc>Created with Sketch.</desc>
    <g id="Apollo" stroke="none" stroke-width="1" fill="none" fill-rule="evenodd">
        <g id="Apollo---b2b" transform="translate(-853.000000, -1207.000000)" fill="#022575" fill-rule="nonzero">
            <g id="b2b-3" transform="translate(853.000000, 1207.000000)">
                <path d="M1,40 L21,40 C21.5522847,40 22,39.5522847 22,39 L22,31 L20,31 L20,38 L16,38 L16,33 C16,32.4477153 15.5522847,32 15,32 L7,32 C6.44771525,32 6,32.4477153 6,33 L6,38 L2,38 L2,6 L20,6 L20,15 L22,15 L22,5 C22,4.44771525 21.5522847,4 21,4 L20,4 L20,1 C20,0.44771525 19.5522847,0 19,0 L3,0 C2.44771525,0 2,0.44771525 2,1 L2,4 L1,4 C0.44771525,4 0,4.44771525 0,5 L0,39 C0,39.5522847 0.44771525,40 1,40 Z M14,38 L12,38 L12,34 L14,34 L14,38 Z M8,34 L10,34 L10,38 L8,38 L8,34 Z M4,2 L18,2 L18,4 L4,4 L4,2 Z" id="Shape"></path>
                <path d="M9,24 L5,24 C4.44771525,24 4,24.4477153 4,25 L4,29 C4,29.5522847 4.44771525,30 5,30 L9,30 C9.55228475,30 10,29.5522847 10,29 L10,25 C10,24.4477153 9.55228475,24 9,24 Z M8,28 L6,28 L6,26 L8,26 L8,28 Z" id="Shape"></path>
                <path d="M12,29 C12,29.5522847 12.4477153,30 13,30 L17,30 C17.5522847,30 18,29.5522847 18,29 L18,26 L16,26 L16,28 L14,28 L14,26 L16,26 L16,24 L13,24 C12.4477153,24 12,24.4477153 12,25 L12,29 Z" id="Path"></path>
                <path d="M10,17 C10,16.4477153 9.55228475,16 9,16 L5,16 C4.44771525,16 4,16.4477153 4,17 L4,21 C4,21.5522847 4.44771525,22 5,22 L9,22 C9.55228475,22 10,21.5522847 10,21 L10,17 Z M8,20 L6,20 L6,18 L8,18 L8,20 Z" id="Shape"></path>
                <path d="M12,21 C12,21.5522847 12.4477153,22 13,22 L16,22 L16,20 L14,20 L14,18 L16,18 L16,20 L18,20 L18,17 C18,16.4477153 17.5522847,16 17,16 L13,16 C12.4477153,16 12,16.4477153 12,17 L12,21 Z" id="Path"></path>
                <path d="M10,9 C10,8.44771525 9.55228475,8 9,8 L5,8 C4.44771525,8 4,8.44771525 4,9 L4,13 C4,13.5522847 4.44771525,14 5,14 L9,14 C9.55228475,14 10,13.5522847 10,13 L10,9 Z M8,12 L6,12 L6,10 L8,10 L8,12 Z" id="Shape"></path>
                <path d="M13,14 L17,14 C17.5522847,14 18,13.5522847 18,13 L18,9 C18,8.44771525 17.5522847,8 17,8 L13,8 C12.4477153,8 12,8.44771525 12,9 L12,13 C12,13.5522847 12.4477153,14 13,14 Z M14,10 L16,10 L16,12 L14,12 L14,10 Z" id="Shape"></path>
                <path d="M59,4 L58,4 L58,1 C58,0.44771525 57.5522847,0 57,0 L41,0 C40.4477153,0 40,0.44771525 40,1 L40,4 L39,4 C38.4477153,4 38,4.44771525 38,5 L38,15 L40,15 L40,6 L58,6 L58,38 L54,38 L54,33 C54,32.4477153 53.5522847,32 53,32 L45,32 C44.4477153,32 44,32.4477153 44,33 L44,38 L40,38 L40,31 L38,31 L38,39 C38,39.5522847 38.4477153,40 39,40 L59,40 C59.5522847,40 60,39.5522847 60,39 L60,5 C60,4.44771525 59.5522847,4 59,4 Z M46,34 L48,34 L48,38 L46,38 L46,34 Z M50,38 L50,34 L52,34 L52,38 L50,38 Z M42,4 L42,2 L56,2 L56,4 L42,4 Z" id="Shape"></path>
                <path d="M47,24 L44,24 L44,26 L46,26 L46,28 L44,28 L44,26 L42,26 L42,29 C42,29.5522847 42.4477153,30 43,30 L47,30 C47.5522847,30 48,29.5522847 48,29 L48,25 C48,24.4477153 47.5522847,24 47,24 Z" id="Path"></path>
                <path d="M50,29 C50,29.5522847 50.4477153,30 51,30 L55,30 C55.5522847,30 56,29.5522847 56,29 L56,25 C56,24.4477153 55.5522847,24 55,24 L51,24 C50.4477153,24 50,24.4477153 50,25 L50,29 Z M52,26 L54,26 L54,28 L52,28 L52,26 Z" id="Shape"></path>
                <path d="M42,20 L44,20 L44,18 L46,18 L46,20 L44,20 L44,22 L47,22 C47.5522847,22 48,21.5522847 48,21 L48,17 C48,16.4477153 47.5522847,16 47,16 L43,16 C42.4477153,16 42,16.4477153 42,17 L42,20 Z" id="Path"></path>
                <path d="M50,21 C50,21.5522847 50.4477153,22 51,22 L55,22 C55.5522847,22 56,21.5522847 56,21 L56,17 C56,16.4477153 55.5522847,16 55,16 L51,16 C50.4477153,16 50,16.4477153 50,17 L50,21 Z M52,18 L54,18 L54,20 L52,20 L52,18 Z" id="Shape"></path>
                <path d="M43,14 L47,14 C47.5522847,14 48,13.5522847 48,13 L48,9 C48,8.44771525 47.5522847,8 47,8 L43,8 C42.4477153,8 42,8.44771525 42,9 L42,13 C42,13.5522847 42.4477153,14 43,14 Z M44,10 L46,10 L46,12 L44,12 L44,10 Z" id="Shape"></path>
                <path d="M51,14 L55,14 C55.5522847,14 56,13.5522847 56,13 L56,9 C56,8.44771525 55.5522847,8 55,8 L51,8 C50.4477153,8 50,8.44771525 50,9 L50,13 C50,13.5522847 50.4477153,14 51,14 Z M52,10 L54,10 L54,12 L52,12 L52,10 Z" id="Shape"></path>
                <path d="M17.293,23.707 L24.293,30.707 C24.5789943,30.9929079 25.0090366,31.0784219 25.3826546,30.923678 C25.7562725,30.7689341 25.9999137,30.4043959 26,30 L26,27 L34,27 L34,30 C34.0000863,30.4043959 34.2437275,30.7689341 34.6173454,30.923678 C34.9909634,31.0784219 35.4210057,30.9929079 35.707,30.707 L42.707,23.707 C43.0973819,23.3165001 43.0973819,22.6834999 42.707,22.293 L35.707,15.293 C35.4210057,15.0070921 34.9909634,14.9215781 34.6173454,15.076322 C34.2437275,15.2310659 34.0000863,15.5956041 34,16 L34,19 L26,19 L26,16 C25.9999137,15.5956041 25.7562725,15.2310659 25.3826546,15.076322 C25.0090366,14.9215781 24.5789943,15.0070921 24.293,15.293 L17.293,22.293 C16.9026181,22.6834999 16.9026181,23.3165001 17.293,23.707 Z M24,18.414 L24,20 C24,20.5522847 24.4477153,21 25,21 L35,21 C35.5522847,21 36,20.5522847 36,20 L36,18.414 L40.586,23 L36,27.586 L36,26 C36,25.4477153 35.5522847,25 35,25 L25,25 C24.4477153,25 24,25.4477153 24,26 L24,27.586 L19.414,23 L24,18.414 Z" id="Shape"></path>
            </g>
        </g>
    </g>
</svg>