<?xml version="1.0" encoding="UTF-8"?>
<svg width="987px" height="501px" viewBox="0 0 987 501" version="1.1" xmlns="http://www.w3.org/2000/svg" xmlns:xlink="http://www.w3.org/1999/xlink">
    <title>Group Copy</title>
    <g id="Page-1" stroke="none" stroke-width="1" fill="none" fill-rule="evenodd" opacity="1">
        <g id="Apollo---Home" transform="translate(-978.000000, -4497.000000)" fill-rule="nonzero" stroke="#222222" stroke-width="2">
            <g id="section-6" transform="translate(-415.000000, 4264.000000)">
                <g id="content" transform="translate(535.000000, 234.000000)">
                    <g id="logo" transform="translate(824.422265, 0.000000)">
                        <g id="Group-Copy" transform="translate(35.577735, 0.000000)">
                            <path d="M75.076898,0.000917060147 C77.5639303,0.0154908809 108.788168,0.201381451 115.604883,0.387272022 C129.038724,0.774544043 181.430703,1.54908809 226.338113,42.9871944 L226.338113,42.9871944 L226.721937,43.3744664 C236.50945,52.668995 244.761667,63.5126116 251.478587,75.3244082 C251.670499,75.7116802 254.741091,81.5207606 254.933003,81.9080326 C263.569044,100.303454 267.98302,120.441599 267.791108,140.77338 C267.791108,170.012418 260.114628,195.572371 244.761667,217.646876 C238.812394,226.360497 231.71165,234.105937 223.651345,240.689562 C242.650634,249.596818 258.963155,263.732247 270.8617,281.353124 C286.214661,303.233993 293.891142,328.987582 293.891142,358.22662 C293.891142,396.760186 280.265389,429.0974 253.013883,455.625534 C237.660922,471.503686 218.661633,483.121847 197.743224,489.705471 C175.289518,495.901824 147.270365,499 113.685763,499 L113.685763,499 L7.55842027,499 C3.91209205,499 0.841499865,495.901824 0.841499865,492.22274 L0.841499865,492.22274 L0.841499865,6.77726038 C0.841499865,3.09817617 3.91209205,0 7.55842027,0 L7.55842027,0 Z M741.226909,0.000850836632 C751.734854,0.00654489717 792.90971,0.0503453628 804.597151,0.387272022 C818.030992,0.774544043 870.422971,1.54908809 915.330382,42.9871944 L915.330382,42.9871944 L915.714206,43.3744664 C925.501719,52.668995 933.753935,63.5126116 940.470856,75.3244082 C940.662768,75.7116802 943.73336,81.5207606 943.925272,81.9080326 C952.561312,100.303454 956.975289,120.441599 956.783377,140.77338 C956.783377,170.012418 949.106896,195.572371 933.753935,217.646876 C927.804663,226.360497 920.703918,234.105937 912.643614,240.689562 C931.642903,249.790454 947.955424,263.732247 959.853969,281.353124 C975.20693,303.427629 982.88341,328.987582 982.88341,358.22662 C982.88341,396.760186 969.257657,429.0974 942.006152,455.625534 C926.653191,471.503686 907.653902,483.121847 886.735492,489.705471 C864.281787,495.901824 836.262633,499 802.678031,499 L802.678031,499 L696.550689,499 C692.904361,499 689.833769,495.901824 689.833769,492.22274 L689.833769,492.22274 L689.833769,6.77726038 C689.833769,3.09817617 692.904361,0 696.550689,0 L696.550689,0 Z M403.362781,215.516993 C403.556273,215.710487 403.749765,215.903981 404.136748,216.097475 L627.426209,439.582721 C632.456994,444.420064 632.456994,452.353307 627.619701,457.384143 C627.426209,457.577637 627.232717,457.771131 627.039226,457.964625 C555.253792,519.302134 447.091913,510.981904 385.755033,439.00224 C330.996873,374.955819 330.996873,280.724377 385.755033,216.677956 C390.205343,211.453625 398.138504,210.873144 403.362781,215.516993 Z M112.918115,280.772216 L75.3033604,280.772216 L75.3033604,429.291036 L121.362243,429.291036 C154.946845,429.291036 179.703495,422.707412 195.44028,409.540163 C211.560889,396.372914 220.772665,376.428405 220.196929,355.515716 C220.580753,334.990299 211.752801,315.433062 196.207928,302.072177 C180.663055,287.936748 153.027725,280.772216 112.918115,280.772216 L112.918115,280.772216 Z M801.910383,280.772216 L764.295629,280.772216 L764.295629,429.291036 L810.354512,429.291036 C843.939114,429.291036 868.695763,422.707412 884.432548,409.540163 C900.553157,396.372914 909.764934,376.428405 909.189198,355.515716 C909.573022,334.990299 900.745069,315.433062 885.200196,302.072177 C869.655323,287.936748 842.019994,280.772216 801.910383,280.772216 L801.910383,280.772216 Z M571.938502,63.9063761 C626.673353,127.952797 626.673353,222.184239 571.938502,286.23066 C567.296677,291.454991 559.366893,292.035472 554.33825,287.391623 L553.758022,286.811142 L553.758022,286.811142 L330.176793,63.1324013 C325.341559,58.2950583 325.14815,50.3618157 329.983384,45.5244727 C330.176793,45.330979 330.370203,45.1374853 330.757021,44.9439916 C402.511897,-16.3935177 510.627733,-8.07328771 571.938502,63.9063761 Z M87.9695531,70.0962359 L74.9195363,70.0962359 L74.9195363,218.615056 L96.2217696,218.615056 C129.806372,218.615056 154.563021,212.031432 170.299806,198.864183 C186.420415,185.696934 195.632192,165.752425 195.248368,144.839736 C195.632192,124.314319 186.804239,104.757082 171.259366,91.3961971 C155.714493,77.2607683 128.079164,70.0962359 87.9695531,70.0962359 L87.9695531,70.0962359 Z M776.961822,70.0962359 L764.103717,70.0962359 L763.911805,218.615056 L785.214038,218.615056 C818.79864,218.615056 843.55529,212.031432 859.292075,198.864183 C875.412684,185.696934 884.62446,165.752425 884.240636,144.839736 C884.62446,124.314319 875.796508,104.757082 860.251635,91.3961971 C844.706762,77.2607683 817.071432,70.0962359 776.961822,70.0962359 L776.961822,70.0962359 Z" id="Combined-Shape"></path>
                        </g>
                    </g>
                </g>
            </g>
        </g>
    </g>
</svg>