<?xml version="1.0" encoding="UTF-8"?>
<svg width="40px" height="55px" viewBox="0 0 40 55" version="1.1" xmlns="http://www.w3.org/2000/svg" xmlns:xlink="http://www.w3.org/1999/xlink">
    <!-- Generator: Sketch 64 (93537) - https://sketch.com -->
    <title>b2b-1</title>
    <desc>Created with Sketch.</desc>
    <g id="Apollo" stroke="none" stroke-width="1" fill="none" fill-rule="evenodd">
        <g id="Apollo---b2b" transform="translate(-214.000000, -1200.000000)" fill="#022575" fill-rule="nonzero">
            <g id="b2b-1" transform="translate(214.000000, 1200.000000)">
                <path d="M33.003,33.064 C33.5528775,33.1886815 34.0626904,33.4801627 34.4955815,33.9096898 L35.176,33.445 C35.735,33.062 36.425,32.938 37.122,33.096 C38.032,33.302 38.866,33.96 39.412,34.9 C40.372,36.554 40.139,38.53 38.887,39.431 C37.994,40.185 25.744,50.468 20.566,52.114 C20.029,52.283 16.604,52.333 12.784,52.333 C10.5435629,52.333 8.1673176,52.3162963 6.15967462,52.2965049 L6.162,54 C6.162,54.552 5.714,55 5.162,55 L1,55 C0.448,55 -2.3625546e-13,54.552 -2.3625546e-13,54 L-2.3625546e-13,42.383 C-2.3625546e-13,41.831 0.448,41.383 1,41.383 C1.552,41.383 2,41.831 2,42.383 L2,53 L4.162,53 L4.162,42.383 C4.162,42.275 4.18,42.167 4.214,42.064 C6.226,36.093 13.559,33.997 17.092,34.499 C18.886,34.755 23.098,37.211 23.573,37.49 C24.5789034,37.9578621 25.2622207,38.9665657 25.4490729,40.0978411 L32.7674825,35.0913872 C32.6990808,35.0561781 32.6299652,35.03045 32.561,35.015 C32.4,34.978 32.257,35.004 32.126,35.094 L27.549,38.224 C27.376,38.343 27.179,38.399 26.985,38.399 C26.666,38.399 26.352,38.247 26.159,37.963 C25.847,37.507 25.964,36.885 26.42,36.573 L30.997,33.443 C31.586,33.04 32.3,32.904 33.003,33.064 Z M36.305,35.096 L24.7084965,43.0277683 C24.3368524,43.4951668 23.8544166,43.8604326 23.307,44.077 C22.492,44.399 21.606,44.379 20.808,44.021 L16.245,42.424 C15.724,42.241 15.449,41.671 15.632,41.15 C15.815,40.629 16.385,40.357 16.906,40.537 L21.513,42.149 C21.545,42.16 21.576,42.173 21.607,42.187 C22.001,42.373 22.349,42.305 22.571,42.218 C22.933,42.075 23.22,41.776 23.379,41.376 C23.701,40.565 23.363,39.596 22.643,39.258 C20.899,38.237 17.87,36.631 16.811,36.479 C13.975,36.08 7.874,37.813 6.162,42.553 L6.1610483,50.2961283 C12.4906142,50.3568402 19.2468352,50.3422515 20.009,50.194 C24.843,48.655 37.501,37.983 37.629,37.875 C37.655,37.853 37.682,37.833 37.71,37.813 C38.067,37.569 38.133,36.682 37.681,35.904 C37.37,35.369 36.96,35.111 36.68,35.047 C36.451,34.994 36.341,35.071 36.305,35.096 Z" id="Combined-Shape"></path>
                <path d="M35.5,31 L17.333,31 C16.781,31 16.333,30.552 16.333,30 C16.333,29.448 16.781,29 17.333,29 L34.612,29 C34.995,27.32 36.32,25.995 38,25.612 L38,15.388 C36.32,15.005 34.995,13.68 34.612,12 L5.388,12 C5.005,13.68 3.68,15.005 2,15.388 L2,25.612 C3.68,25.995 5.005,27.32 5.388,29 L11.333,29 C11.885,29 12.333,29.448 12.333,30 C12.333,30.552 11.885,31 11.333,31 L4.5,31 C3.948,31 3.5,30.552 3.5,30 C3.5,28.622 2.378,27.5 1,27.5 C0.448,27.5 0,27.052 0,26.5 L0,14.5 C0,13.948 0.448,13.5 1,13.5 C2.378,13.5 3.5,12.378 3.5,11 C3.5,10.448 3.948,10 4.5,10 L35.5,10 C36.052,10 36.5,10.448 36.5,11 C36.5,12.378 37.622,13.5 39,13.5 C39.552,13.5 40,13.948 40,14.5 L40,26.5 C40,27.052 39.552,27.5 39,27.5 C37.622,27.5 36.5,28.622 36.5,30 C36.5,30.552 36.052,31 35.5,31 Z" id="Path"></path>
                <path d="M32.0246239,0.00689212828 L32.0789415,0.0146976249 C32.0976309,0.017921617 32.1161977,0.0216706202 32.1346203,0.02593457 C32.1705718,0.0343893712 32.206165,0.0447803625 32.2410398,0.0570874857 C32.5155527,0.153313601 32.7453655,0.367677871 32.851,0.663 L32.852,0.668 C33.311,1.967 34.741,2.652 36.042,2.192 C36.292,2.104 36.567,2.118 36.806,2.233 C37.045,2.347 37.229,2.552 37.318,2.802 L38.262,5.474 C38.446,5.995 38.173,6.566 37.652,6.75 C37.542,6.788 37.43,6.806 37.319,6.806 C36.907,6.806 36.521,6.549 36.376,6.139 L35.728,4.305 C34.0133111,4.50549444 32.3253641,3.69683352 31.4056451,2.24149526 L8.503,10.425 C8.392,10.465 8.278,10.484 8.167,10.484 C7.756,10.484 7.372,10.229 7.225,9.82 C7.039,9.3 7.31,8.728 7.83,8.542 L31.573,0.058 C31.6846429,0.0185714286 31.7985816,-5.61224491e-05 31.9105361,0.000129737609 C31.950828,0.000356413994 31.9879169,0.00260787172 32.0246239,0.00689212828 Z" id="Combined-Shape"></path>
                <path d="M32.8309446,4.75190087 L32.9434661,4.76097923 C33.3508469,4.81719388 33.6952143,5.12171429 33.784,5.546 C34.067,6.896 35.398,7.76 36.744,7.479 C37.287,7.368 37.815,7.712 37.928,8.252 L38.511,11.025 C38.625,11.566 38.279,12.096 37.738,12.209 C37.669,12.224 37.6,12.23 37.532,12.23 C37.069,12.23 36.653,11.907 36.554,11.436 L36.154,9.532 C34.4308813,9.50262389 32.8613335,8.47785457 32.1418613,6.91237127 L14.33,10.655 C14.261,10.669 14.192,10.676 14.124,10.676 C13.661,10.676 13.245,10.353 13.146,9.882 C13.032,9.341 13.378,8.811 13.919,8.698 L32.6,4.773 C32.6777143,4.75685714 32.7550816,4.75008163 32.8309446,4.75190087 Z" id="Combined-Shape"></path>
                <path d="M20,15.624 C21.482,15.624 22.688,16.83 22.688,18.312 C22.688,18.864 22.24,19.312 21.688,19.312 C21.136,19.312 20.688,18.864 20.688,18.312 C20.688,17.933 20.379,17.624 20,17.624 C19.621,17.624 19.312,17.933 19.312,18.312 C19.312,18.691 19.621,19 20,19 L20.032,19.001 L20.1697222,19.0052992 C21.5729852,19.0931775 22.688,20.263 22.688,21.688 C22.688,23.17 21.482,24.376 20,24.376 C18.518,24.376 17.312,23.17 17.312,21.688 C17.312,21.136 17.76,20.688 18.312,20.688 C18.864,20.688 19.312,21.136 19.312,21.688 C19.312,22.067 19.621,22.376 20,22.376 C20.379,22.376 20.688,22.067 20.688,21.688 C20.688,21.309 20.379,21 20,21 L19.966,20.998 L19.8302778,20.9947008 C18.4270148,20.9068225 17.312,19.737 17.312,18.312 C17.312,16.83 18.518,15.624 20,15.624 Z" id="Combined-Shape"></path>
                <path d="M20,26.875 C16.209,26.875 13.125,23.791 13.125,20 C13.125,16.209 16.209,13.125 20,13.125 C23.791,13.125 26.875,16.209 26.875,20 C26.875,23.791 23.791,26.875 20,26.875 Z M20,15.125 C17.312,15.125 15.125,17.312 15.125,20 C15.125,22.688 17.312,24.875 20,24.875 C22.688,24.875 24.875,22.688 24.875,20 C24.875,17.312 22.688,15.125 20,15.125 Z" id="Shape"></path>
            </g>
        </g>
    </g>
</svg>