<?xml version="1.0" encoding="UTF-8"?>
<svg width="50px" height="49px" viewBox="0 0 50 49" version="1.1" xmlns="http://www.w3.org/2000/svg" xmlns:xlink="http://www.w3.org/1999/xlink">
    <!-- Generator: Sketch 64 (93537) - https://sketch.com -->
    <title>b2b-2</title>
    <desc>Created with Sketch.</desc>
    <g id="Apollo" stroke="none" stroke-width="1" fill="none" fill-rule="evenodd">
        <g id="Apollo---b2b" transform="translate(-534.000000, -1202.000000)" fill="#022575" fill-rule="nonzero">
            <g id="b2b-2" transform="translate(534.000000, 1202.000000)">
                <path d="M4.23684211,16.0921053 C4.11842105,16.2631579 4.03947368,16.4539474 4.03947368,16.6842105 C4.03947368,18.4868421 5.16447368,20.0592105 6.91447368,21.0657895 L6.91447368,39.75 C6.91447368,40.3684211 7.40131579,40.8552632 8.01315789,40.8552632 C8.61842105,40.8552632 9.11184211,40.3684211 9.11184211,39.75 L9.11184211,21.9605263 C9.90789474,22.1710526 10.7565789,22.2960526 11.6644737,22.2960526 C14.4802632,22.2960526 16.8618421,21.2171053 18.1842105,19.5855263 C19.5065789,21.2171053 21.8881579,22.2960526 24.7039474,22.2960526 C27.5197368,22.2960526 29.9078947,21.2171053 31.2236842,19.5855263 C32.5394737,21.2171053 34.9276316,22.2960526 37.7434211,22.2960526 C38.8355263,22.2960526 39.8618421,22.1447368 40.7894737,21.8421053 L40.7894737,39.7565789 C40.7894737,40.375 41.2763158,40.8618421 41.8815789,40.8618421 C42.5,40.8618421 42.9868421,40.375 42.9868421,39.7565789 L42.9868421,20.7828947 C44.4473684,19.7565789 45.3618421,18.3289474 45.3618421,16.6842105 C45.3618421,16.4539474 45.2697368,16.2697368 45.1710526,16.0921053 C45.5328947,16.0789474 45.8618421,15.8947368 46.0657895,15.5855263 C46.2631579,15.25 46.2763158,14.8486842 46.1118421,14.5131579 L42.4934211,7.28289474 C42.3157895,6.91447368 41.9276316,6.68421053 41.5131579,6.68421053 L40.3684211,6.68421053 L40.3684211,1.09868421 C40.3684211,0.486842105 39.8815789,0 39.2697368,0 L10.1315789,0 C9.52631579,0 9.03289474,0.486842105 9.03289474,1.09868421 L9.03289474,6.68421053 L7.88815789,6.68421053 C7.47368421,6.68421053 7.09210526,6.91447368 6.90789474,7.28289474 L3.28947368,14.5131579 C3.125,14.8421053 3.14473684,15.25 3.34210526,15.5855263 C3.53289474,15.8947368 3.86842105,16.0789474 4.23684211,16.0921053 Z M11.6578947,20.0986842 C8.71710526,20.0986842 6.23684211,18.5394737 6.23684211,16.6776316 C6.23684211,16.4605263 6.15789474,16.2631579 6.04605263,16.0986842 L17.2697368,16.0986842 C17.1644737,16.2697368 17.0789474,16.4605263 17.0789474,16.6842105 C17.0789474,18.5394737 14.5986842,20.0986842 11.6578947,20.0986842 Z M24.6973684,20.0986842 C21.7565789,20.0986842 19.2763158,18.5394737 19.2763158,16.6776316 C19.2763158,16.4605263 19.1973684,16.2631579 19.0855263,16.0986842 L23.8421053,16.0986842 L25.5592105,16.0986842 L30.3092105,16.0986842 C30.2039474,16.2697368 30.125,16.4605263 30.125,16.6842105 C30.125,18.5394737 27.6381579,20.0986842 24.6973684,20.0986842 Z M37.7434211,20.0986842 C34.8092105,20.0986842 32.3157895,18.5394737 32.3157895,16.6776316 C32.3157895,16.4605263 32.2302632,16.2631579 32.1315789,16.0986842 L43.3552632,16.0986842 C43.2434211,16.2697368 43.1710526,16.4605263 43.1710526,16.6842105 C43.1710526,18.5394737 40.6907895,20.0986842 37.7434211,20.0986842 Z M11.2236842,2.19736842 L38.1710526,2.19736842 L38.1710526,6.68421053 L24.7960526,6.68421053 C24.7697368,6.68421053 24.7368421,6.69736842 24.6973684,6.69736842 C24.6644737,6.69736842 24.6381579,6.68421053 24.5986842,6.68421053 L11.2236842,6.68421053 L11.2236842,2.19736842 Z M8.56578947,8.875 L24.5986842,8.875 C24.6315789,8.875 24.6644737,8.86842105 24.6973684,8.85526316 C24.7302632,8.86842105 24.7631579,8.875 24.7960526,8.875 L40.8355263,8.875 L43.3618421,13.9078947 L25.5592105,13.9078947 L23.8421053,13.9078947 L6.05263158,13.9078947 L8.56578947,8.875 Z" id="Shape"></path>
                <path d="M4.92105263,43.5723684 C4.92105263,44.1776316 5.41447368,44.6776316 6.01973684,44.6776316 L43.3881579,44.6776316 C44.0065789,44.6776316 44.4868421,44.1776316 44.4868421,43.5723684 C44.4868421,42.9605263 43.9934211,42.4802632 43.3815789,42.4802632 L6.01315789,42.4802632 C5.41447368,42.4802632 4.92105263,42.9605263 4.92105263,43.5723684 Z" id="Path"></path>
                <path d="M48.3026316,46.3223684 L1.09210526,46.3223684 C0.486842105,46.3223684 -2.92163954e-15,46.8026316 -2.92163954e-15,47.4144737 C-2.92163954e-15,48.0197368 0.486842105,48.5197368 1.09210526,48.5197368 L48.3026316,48.5197368 C48.9144737,48.5197368 49.4013158,48.0197368 49.4013158,47.4144737 C49.4013158,46.8026316 48.9144737,46.3223684 48.3026316,46.3223684 Z" id="Path"></path>
                <path d="M20.6381579,40.8421053 C21.2434211,40.8421053 21.7368421,40.3618421 21.7368421,39.7368421 L21.7368421,26.4078947 C21.7368421,25.8026316 21.2434211,25.3092105 20.6381579,25.3092105 L12.7302632,25.3092105 C12.125,25.3092105 11.6315789,25.8026316 11.6315789,26.4078947 L11.6315789,39.7368421 C11.6315789,40.3618421 12.125,40.8421053 12.7302632,40.8421053 C13.3421053,40.8421053 13.8289474,40.3618421 13.8289474,39.7368421 L13.8289474,27.5065789 L19.5394737,27.5065789 L19.5394737,39.7368421 C19.5328947,40.3618421 20.0328947,40.8421053 20.6381579,40.8421053 Z" id="Path"></path>
                <path d="M36.6644737,37.6513158 C37.2763158,37.6513158 37.7565789,37.1776316 37.7565789,36.5723684 L37.7565789,26.4078947 C37.7565789,25.8026316 37.2763158,25.3092105 36.6644737,25.3092105 L25.5065789,25.3092105 C24.9013158,25.3092105 24.4078947,25.8026316 24.4078947,26.4078947 L24.4078947,36.5723684 C24.4078947,37.1776316 24.9013158,37.6513158 25.5065789,37.6513158 L36.6644737,37.6513158 Z M26.6052632,27.5065789 L35.5723684,27.5065789 L35.5723684,35.4539474 L26.6052632,35.4539474 L26.6052632,27.5065789 Z" id="Shape"></path>
            </g>
        </g>
    </g>
</svg>