<?xml version="1.0" encoding="UTF-8"?>
<svg width="400px" height="192px" viewBox="0 0 400 192" version="1.1" xmlns="http://www.w3.org/2000/svg" xmlns:xlink="http://www.w3.org/1999/xlink">
    <!-- Generator: Sketch 64 (93537) - https://sketch.com -->
    <title>b2b</title>
    <desc>Created with Sketch.</desc>
    <g id="Page-1" stroke="none" stroke-width="1" fill="none" fill-rule="evenodd">
        <g id="Artboard" transform="translate(-612.000000, -1242.000000)" fill="#FFFFFF">
            <g id="Group-2">
                <g id="b2b" transform="translate(612.000000, 1242.000000)">
                    <path d="M61.6727501,55.0690431 C47.8794301,55.0690431 35.0249225,59.6131301 24.7702029,67.4029934 L24.7702029,1.2612831 C24.7702029,0.539999452 23.6869579,-0.397669288 22.8203619,0.179357629 L1.08324503,10.926484 C0.43329801,11.5756392 0,12.0084094 0,12.8739498 L0,190.237598 C0,190.958882 1.08324503,191.896551 1.94984105,191.319524 L23.6869579,180.572397 C24.3369049,179.923242 24.7702029,179.490472 24.7702029,178.624932 L24.7702029,166.218853 C35.0971388,174.008716 47.8794301,178.552803 61.6727501,178.552803 C95.5422112,178.552803 123.489933,150.92764 123.489933,116.810923 C123.489933,82.8384635 95.8310766,55.0690431 61.6727501,55.0690431 Z M61.6727501,155.111085 C42.1743397,155.111085 26.503395,140.252642 24.7702029,121.35501 L24.7702029,114.502816 C26.503395,95.3887989 42.246556,80.3860991 61.6727501,80.3860991 C82.1099729,80.3860991 98.7919463,97.0477513 98.7919463,117.748592 C98.7919463,138.449433 82.3988383,155.111085 61.6727501,155.111085 Z" id="Shape"></path>
                    <path d="M338.182817,55.0690431 C324.389497,55.0690431 311.53499,59.6131301 301.28027,67.4029934 L301.28027,1.2612831 C301.28027,0.539999452 300.197025,-0.397669288 299.330429,0.179357629 L277.593312,10.926484 C276.943365,11.5756392 276.510067,12.0084094 276.510067,12.8739498 L276.510067,190.237598 C276.510067,190.958882 277.593312,191.896551 278.459908,191.319524 L300.197025,180.572397 C300.846972,179.923242 301.28027,179.490472 301.28027,178.624932 L301.28027,166.218853 C311.607206,174.008716 324.389497,178.552803 338.182817,178.552803 C372.052278,178.552803 400,150.92764 400,116.810923 C400,82.8384635 372.341144,55.0690431 338.182817,55.0690431 Z M335.36638,155.111085 C315.86797,155.111085 300.197025,140.252642 298.463833,121.35501 L298.463833,114.502816 C300.197025,95.3887989 315.940186,80.3860991 335.36638,80.3860991 C355.803603,80.3860991 372.485576,97.0477513 372.485576,117.748592 C372.341144,138.449433 356.020252,155.111085 335.36638,155.111085 Z" id="Shape"></path>
                    <path d="M233.740447,113.076842 C238.552551,106.664277 242.143674,101.260431 244.65746,96.5770972 C249.541387,87.7147889 252.055173,78.6363267 252.055173,69.3417107 C252.055173,54.7873507 246.812133,42.6106832 236.254233,32.7396569 C225.839977,22.9406818 212.840113,17.8970917 197.398285,17.8970917 C170.608509,17.8970917 153.65841,30.3619644 146.476165,55.363761 L146.476165,55.363761 C146.476165,55.363761 142.885042,70.7106851 142.310462,76.186583 C142.094995,76.9070958 143.028687,78.0599164 144.034201,77.69966 C144.034201,77.69966 167.735611,71.431198 167.951078,71.2870954 C168.166546,71.2150442 168.310191,70.9988903 168.525658,70.8547877 C168.812948,70.5665826 169.100238,70.2063261 169.17206,69.7740184 L170.680332,62.7129923 C170.752154,62.4247871 170.895799,62.0645307 170.967622,61.7763256 C175.133324,47.8704271 184.254776,40.9535036 198.475622,40.9535036 C206.663381,40.9535036 213.486515,43.6194012 219.160489,49.0232477 C224.690817,54.4270943 227.491893,61.0558127 227.491893,68.909403 C227.491893,74.4573521 225.33722,80.6537628 221.24334,87.498635 C219.232311,91.0291481 216.143945,95.3522253 212.265533,100.611969 C208.38712,105.799662 203.503193,111.996073 197.685575,119.12915 L141.95135,186.785309 C140.658546,188.298386 141.735883,190.604027 143.675089,190.604027 L210.110859,190.604027 C210.182682,190.604027 210.182682,190.604027 210.326327,190.604027 L251.121481,190.604027 C251.839705,190.604027 252.701575,189.523258 252.198818,188.658642 L241.784562,167.547615 C241.497272,166.899153 240.779047,166.250692 239.845355,166.466846 L237.834327,166.466846 L237.834327,166.466846 L189.569637,166.466846 L215.928478,135.196587 C222.823434,126.98274 228.928342,119.417355 233.740447,113.076842 Z" id="Path" fill-rule="nonzero"></path>
                </g>
            </g>
        </g>
    </g>
</svg>