<svg width="104" height="104" fill="none" xmlns="http://www.w3.org/2000/svg"><path d="M34.72 51.08c-3.268 1.877-7.471.704-9.34-2.581-1.867-3.285-.7-7.51 2.57-9.386 3.268-1.877 7.471-.704 9.34 2.58.7 1.174.933 2.347.933 3.52M24.447 70.087c-3.27 1.877-7.473.704-9.34-2.581-1.869-3.285-.701-7.51 2.568-9.386 3.269-1.877 7.472-.704 9.34 2.58.7 1.174.934 2.347.934 3.52M44.995 70.087c-3.269 1.877-7.472.704-9.34-2.581-1.868-3.285-.7-7.51 2.568-9.386 3.27-1.877 7.473-.704 9.34 2.58.701 1.174.935 2.347.935 3.52M27.716 51.08l-3.27 7.04M34.72 51.08l3.27 7.04M76.051 51.08c-3.269 1.877-7.472.704-9.34-2.581-1.868-3.285-.7-7.51 2.569-9.386 3.269-1.877 7.472-.704 9.34 2.58.7 1.174.934 2.347.934 3.52M65.777 70.087c-3.27 1.877-7.472.704-9.34-2.581-1.868-3.285-.7-7.51 2.568-9.386 3.27-1.877 7.473-.704 9.34 2.58.701 1.174.934 2.347.934 3.52M86.326 70.087c-3.27 1.877-7.473.704-9.34-2.581-1.869-3.285-.701-7.51 2.568-9.386 3.269-1.877 7.472-.704 9.34 2.58.7 1.174.934 2.347.934 3.52M69.046 51.08l-3.27 7.04M76.051 51.08l3.27 7.04M58.772 26.207c0 3.754-3.036 6.805-7.005 6.805-3.97 0-7.006-3.05-7.006-6.805s3.036-6.805 7.006-6.805M46.863 30.9l-10.508 9.62M56.904 30.9l10.507 9.62" stroke="#0000F0" stroke-width="3" stroke-miterlimit="10" stroke-linecap="round" stroke-linejoin="round"/><path d="M60.64 101.296c27.087-4.693 45.3-30.74 40.63-57.96C96.6 16.117 70.68-1.951 43.36 2.742c-27.086 4.693-45.3 30.74-40.63 57.96C6.935 84.636 27.717 102 52 102" stroke="#0000F0" stroke-width="3" stroke-miterlimit="10" stroke-linecap="round" stroke-linejoin="round"/></svg>