<svg width="653" height="667" viewBox="0 0 653 667" fill="none" xmlns="http://www.w3.org/2000/svg">
<path fill-rule="evenodd" clip-rule="evenodd" d="M426.739 195.678L495.623 350.23L395.73 487.042L326.846 332.49L426.739 195.678V195.678Z" fill="url(#paint0_linear_170_348)"/>
<path d="M326.835 332.487L395.72 487.038L225.029 469.071L155.908 314.876L326.835 332.487V332.487Z" fill="url(#paint1_linear_170_348)"/>
<path d="M426.728 195.678L326.835 332.49L155.908 314.879L256.038 177.711L426.728 195.678V195.678Z" fill="url(#paint2_linear_170_348)"/>
<path fill-rule="evenodd" clip-rule="evenodd" d="M471.092 138.4L569.634 359.205L426.966 554.82L328.064 333.78L471.092 138.4V138.4Z" stroke="#BBCFFB" stroke-width="0.28"/>
<path fill-rule="evenodd" clip-rule="evenodd" d="M328.056 333.785L426.958 554.824L182.878 529.293L84.3355 308.488L328.056 333.785V333.785Z" stroke="#BBCFFB" stroke-width="0.28"/>
<path fill-rule="evenodd" clip-rule="evenodd" d="M471.087 138.405L328.059 333.785L84.3386 308.488L227.007 112.874L471.087 138.405V138.405Z" stroke="#BBCFFB" stroke-width="0.28"/>
<ellipse rx="7.30115" ry="7.26258" transform="matrix(0.837619 0.546255 -0.554241 0.832357 82.0541 308.026)" fill="#BBCFFB"/>
<ellipse rx="7.30104" ry="7.26245" transform="matrix(0.837683 0.546156 -0.55434 0.832291 227.005 112.874)" fill="#BBCFFB"/>
<ellipse rx="7.30119" ry="7.26278" transform="matrix(0.837703 0.546126 -0.55437 0.832271 327.438 332.369)" fill="#BBCFFB"/>
<ellipse rx="7.30117" ry="7.26258" transform="matrix(0.837692 0.546142 -0.554353 0.832281 427.191 554.466)" fill="#BBCFFB"/>
<ellipse rx="7.30074" ry="7.26202" transform="matrix(0.837731 0.546083 -0.554404 0.832247 471.066 138.402)" fill="#BBCFFB"/>
<ellipse rx="7.30099" ry="7.2625" transform="matrix(0.837684 0.546155 -0.554341 0.83229 181.915 529.179)" fill="#BBCFFB"/>
<ellipse rx="7.30115" ry="7.26257" transform="matrix(0.837692 0.546142 -0.554353 0.832281 570.345 359.677)" fill="#BBCFFB"/>
<defs>
<linearGradient id="paint0_linear_170_348" x1="549.584" y1="201.166" x2="392.313" y2="135.821" gradientUnits="userSpaceOnUse">
<stop stop-color="#DADAFF"/>
<stop offset="1" stop-color="white"/>
</linearGradient>
<linearGradient id="paint1_linear_170_348" x1="362.922" y1="266.319" x2="112.261" y2="392.956" gradientUnits="userSpaceOnUse">
<stop stop-color="#554CFF"/>
<stop offset="1" stop-color="#C4C7F2"/>
</linearGradient>
<linearGradient id="paint2_linear_170_348" x1="434.045" y1="153.76" x2="19.0693" y2="106.794" gradientUnits="userSpaceOnUse">
<stop stop-color="#C4C7F2"/>
<stop offset="1" stop-color="#554CFF"/>
</linearGradient>
</defs>
</svg>
