<?xml version="1.0" encoding="UTF-8"?>
<svg width="25px" height="20px" viewBox="0 0 25 20" version="1.1" xmlns="http://www.w3.org/2000/svg" xmlns:xlink="http://www.w3.org/1999/xlink">
    <title>burger</title>
    <g id="PC" stroke="none" stroke-width="1" fill="none" fill-rule="evenodd">
        <g id="iPhone-8" transform="translate(-331.000000, -35.000000)" fill="#222222">
            <g id="burger" transform="translate(331.000000, 35.000000)">
                <path d="M16.5777192,17.1428571 C16.7157904,17.1428571 16.8277192,17.254786 16.8277192,17.3928571 C16.8277192,17.4550487 16.8045388,17.5150073 16.7627042,17.5610253 L14.6198471,19.9181682 C14.5724665,19.9702868 14.5052983,20 14.4348621,20 L0.25,20 C0.111928813,20 1.69088438e-17,19.8880712 0,19.75 L0,17.3928571 C-1.69088438e-17,17.254786 0.111928813,17.1428571 0.25,17.1428571 L16.5777192,17.1428571 Z M16.5777192,8.57142857 C16.7157904,8.57142857 16.8277192,8.68335738 16.8277192,8.82142857 C16.8277192,8.88362008 16.8045388,8.94357878 16.7627042,8.98959677 L14.6198471,11.3467396 C14.5724665,11.3988582 14.5052983,11.4285714 14.4348621,11.4285714 L0.25,11.4285714 C0.111928813,11.4285714 1.69088438e-17,11.3166426 0,11.1785714 L0,8.82142857 C-1.69088438e-17,8.68335738 0.111928813,8.57142857 0.25,8.57142857 L16.5777192,8.57142857 Z M23.7304475,0 C23.8685186,-3.0699403e-15 23.9804475,0.111928813 23.9804475,0.25 C23.9804475,0.311061175 23.9581002,0.370011165 23.9176221,0.415727592 L21.8305686,2.77287045 C21.7831182,2.82646142 21.7149727,2.85714286 21.6433939,2.85714286 L0.25,2.85714286 C0.111928813,2.85714286 1.69088438e-17,2.74521404 0,2.60714286 L0,0.25 C-1.69088438e-17,0.111928813 0.111928813,2.53632657e-17 0.25,0 L23.7304475,0 Z"></path>
            </g>
        </g>
    </g>
</svg>