<svg width="29" height="24" viewBox="0 0 29 24" fill="none" xmlns="http://www.w3.org/2000/svg">
<path d="M14.2557 21.9463C12.8997 23.3866 10.717 23.3866 9.36105 21.9463L1.49001 13.5858C0.134077 12.1455 0.134077 9.79193 1.49001 8.35168C2.84595 6.91142 5.02867 6.91142 6.38461 8.35168L14.2557 16.7122C15.6116 18.1876 15.6116 20.506 14.2557 21.9463Z" fill="#00D39C"/>
<path d="M9.361 21.9463C8.00506 20.5061 8.00506 18.1876 9.361 16.7474L24.1109 1.08019C25.4669 -0.360064 27.6496 -0.360064 29.0055 1.08019C30.3615 2.52045 30.3615 4.83891 29.0055 6.27917L14.2556 21.9463C12.8997 23.3866 10.7169 23.3866 9.361 21.9463Z" fill="#00D39C"/>
</svg>
