<svg width="100" height="100" fill="none" xmlns="http://www.w3.org/2000/svg"><path fill-rule="evenodd" clip-rule="evenodd" d="M50.177 81.338h-.884c-.883-.528-19.788-10.387-25.441-27.289-1.944-5.633-1.414-13.38-.53-22.007 0-1.408.176-2.817.176-4.049 0-.88.53-1.409 1.414-1.584l24.735-5.986c.176-.176.53-.176.883 0l17.845 4.4c.883.353 1.413 1.057 1.06 1.938-.354 1.056-1.06 1.584-1.944 1.408l-17.314-4.401L26.855 29.4c0 1.057-.176 2.113-.176 2.993-.53 8.451-1.06 15.493.53 20.775 4.416 13.556 19.434 22.887 22.968 24.824 3.533-1.937 18.374-11.092 22.968-24.824 1.59-5.106 1.06-12.324.177-20.775 0-1.408 0-2.816-.177-4.049 0-1.056.53-1.936 1.59-1.936.883 0 1.59.528 1.59 1.584.177 1.408.177 2.64.53 4.05.53 8.626 1.06 16.373-.883 22.006-5.477 16.902-24.735 26.76-25.265 27.289h-.53z" fill="#0000F0"/><path fill-rule="evenodd" clip-rule="evenodd" d="M25.442 36.268c-.884 0-1.414-.529-1.59-1.409-.177-.88.353-1.584 1.413-1.937l24.558-6.337h.884l18.374 4.577c.884.352 1.414 1.056 1.414 1.937-.177 1.056-1.414 1.584-2.12 1.408L50.707 29.93l-24.205 6.162c-.883.176-.883.176-1.06.176zM42.05 48.24h16.43c-.883-3.522-4.416-6.515-8.303-6.515-4.064 0-7.244 2.993-8.127 6.514zm8.303 13.38c-6.537 0-11.837-5.106-11.837-11.444 0-6.514 5.124-11.796 11.837-11.796 6.36 0 11.838 5.106 11.838 11.796 0 .88-.884 1.585-1.944 1.585h-18.02c.883 3.873 4.063 6.514 8.126 6.514 3.004 0 5.654-1.585 7.068-4.05.53-.88 1.59-1.056 2.473-.528.884.176 1.06 1.409.53 2.113-2.12 3.697-6.007 5.81-10.07 5.81z" fill="#0000F0"/><path fill-rule="evenodd" clip-rule="evenodd" d="M50.177 100C22.615 100 0 77.64 0 50.176 0 22.36 22.615 0 50.177 0S100 22.36 100 50.176c0 24.296-17.491 44.894-41.52 48.944-.883.352-1.59-.352-1.943-1.409 0-.88.53-1.584 1.414-1.936C80.389 91.9 96.643 72.71 96.643 50 96.643 24.12 75.618 3.169 50 3.169 24.028 3.169 3.357 24.119 3.357 50c0 25.528 20.671 46.479 46.643 46.479.883 0 1.59.88 1.59 1.584.177 1.057-.707 1.937-1.413 1.937z" fill="#0000F0"/></svg>