<?xml version="1.0" encoding="UTF-8"?>
<svg width="11px" height="135px" viewBox="0 0 11 135" version="1.1" xmlns="http://www.w3.org/2000/svg" xmlns:xlink="http://www.w3.org/1999/xlink">
    <title>0001</title>
    <g id="PC" stroke="none" stroke-width="1" fill="none" fill-rule="evenodd">
        <g id="Apollo---Home-copy" transform="translate(-1383.000000, -3029.000000)" fill="#333333" fill-rule="nonzero">
            <g id="section-4" transform="translate(-279.000000, 2525.000000)">
                <path d="M1667.77333,519.24 C1668.78667,519.24 1669.60667,519.006667 1670.23333,518.54 C1670.86,518.073333 1671.34667,517.48 1671.69333,516.76 C1672.04,516.04 1672.27333,515.25 1672.39333,514.39 C1672.51333,513.53 1672.57333,512.706667 1672.57333,511.92 C1672.57333,511.133333 1672.51333,510.31 1672.39333,509.45 C1672.27333,508.59 1672.04,507.8 1671.69333,507.08 C1671.34667,506.36 1670.86,505.766667 1670.23333,505.3 C1669.60667,504.833333 1668.78667,504.6 1667.77333,504.6 C1666.76,504.6 1665.94,504.833333 1665.31333,505.3 C1664.68667,505.766667 1664.2,506.36 1663.85333,507.08 C1663.50667,507.8 1663.27333,508.59 1663.15333,509.45 C1663.03333,510.31 1662.97333,511.133333 1662.97333,511.92 C1662.97333,512.706667 1663.03333,513.53 1663.15333,514.39 C1663.27333,515.25 1663.50667,516.04 1663.85333,516.76 C1664.2,517.48 1664.68667,518.073333 1665.31333,518.54 C1665.94,519.006667 1666.76,519.24 1667.77333,519.24 Z M1667.77333,517.92 C1667,517.92 1666.39,517.713333 1665.94333,517.3 C1665.49667,516.886667 1665.16,516.373333 1664.93333,515.76 C1664.70667,515.146667 1664.56333,514.493333 1664.50333,513.8 C1664.44333,513.106667 1664.41333,512.48 1664.41333,511.92 C1664.41333,511.36 1664.44333,510.733333 1664.50333,510.04 C1664.56333,509.346667 1664.70667,508.693333 1664.93333,508.08 C1665.16,507.466667 1665.49667,506.953333 1665.94333,506.54 C1666.39,506.126667 1667,505.92 1667.77333,505.92 C1668.54667,505.92 1669.15667,506.126667 1669.60333,506.54 C1670.05,506.953333 1670.38667,507.466667 1670.61333,508.08 C1670.84,508.693333 1670.98333,509.346667 1671.04333,510.04 C1671.10333,510.733333 1671.13333,511.36 1671.13333,511.92 C1671.13333,512.48 1671.10333,513.106667 1671.04333,513.8 C1670.98333,514.493333 1670.84,515.146667 1670.61333,515.76 C1670.38667,516.373333 1670.05,516.886667 1669.60333,517.3 C1669.15667,517.713333 1668.54667,517.92 1667.77333,517.92 Z M1667.77333,559.24 C1668.78667,559.24 1669.60667,559.006667 1670.23333,558.54 C1670.86,558.073333 1671.34667,557.48 1671.69333,556.76 C1672.04,556.04 1672.27333,555.25 1672.39333,554.39 C1672.51333,553.53 1672.57333,552.706667 1672.57333,551.92 C1672.57333,551.133333 1672.51333,550.31 1672.39333,549.45 C1672.27333,548.59 1672.04,547.8 1671.69333,547.08 C1671.34667,546.36 1670.86,545.766667 1670.23333,545.3 C1669.60667,544.833333 1668.78667,544.6 1667.77333,544.6 C1666.76,544.6 1665.94,544.833333 1665.31333,545.3 C1664.68667,545.766667 1664.2,546.36 1663.85333,547.08 C1663.50667,547.8 1663.27333,548.59 1663.15333,549.45 C1663.03333,550.31 1662.97333,551.133333 1662.97333,551.92 C1662.97333,552.706667 1663.03333,553.53 1663.15333,554.39 C1663.27333,555.25 1663.50667,556.04 1663.85333,556.76 C1664.2,557.48 1664.68667,558.073333 1665.31333,558.54 C1665.94,559.006667 1666.76,559.24 1667.77333,559.24 Z M1667.77333,557.92 C1667,557.92 1666.39,557.713333 1665.94333,557.3 C1665.49667,556.886667 1665.16,556.373333 1664.93333,555.76 C1664.70667,555.146667 1664.56333,554.493333 1664.50333,553.8 C1664.44333,553.106667 1664.41333,552.48 1664.41333,551.92 C1664.41333,551.36 1664.44333,550.733333 1664.50333,550.04 C1664.56333,549.346667 1664.70667,548.693333 1664.93333,548.08 C1665.16,547.466667 1665.49667,546.953333 1665.94333,546.54 C1666.39,546.126667 1667,545.92 1667.77333,545.92 C1668.54667,545.92 1669.15667,546.126667 1669.60333,546.54 C1670.05,546.953333 1670.38667,547.466667 1670.61333,548.08 C1670.84,548.693333 1670.98333,549.346667 1671.04333,550.04 C1671.10333,550.733333 1671.13333,551.36 1671.13333,551.92 C1671.13333,552.48 1671.10333,553.106667 1671.04333,553.8 C1670.98333,554.493333 1670.84,555.146667 1670.61333,555.76 C1670.38667,556.373333 1670.05,556.886667 1669.60333,557.3 C1669.15667,557.713333 1668.54667,557.92 1667.77333,557.92 Z M1667.77333,599.24 C1668.78667,599.24 1669.60667,599.006667 1670.23333,598.54 C1670.86,598.073333 1671.34667,597.48 1671.69333,596.76 C1672.04,596.04 1672.27333,595.25 1672.39333,594.39 C1672.51333,593.53 1672.57333,592.706667 1672.57333,591.92 C1672.57333,591.133333 1672.51333,590.31 1672.39333,589.45 C1672.27333,588.59 1672.04,587.8 1671.69333,587.08 C1671.34667,586.36 1670.86,585.766667 1670.23333,585.3 C1669.60667,584.833333 1668.78667,584.6 1667.77333,584.6 C1666.76,584.6 1665.94,584.833333 1665.31333,585.3 C1664.68667,585.766667 1664.2,586.36 1663.85333,587.08 C1663.50667,587.8 1663.27333,588.59 1663.15333,589.45 C1663.03333,590.31 1662.97333,591.133333 1662.97333,591.92 C1662.97333,592.706667 1663.03333,593.53 1663.15333,594.39 C1663.27333,595.25 1663.50667,596.04 1663.85333,596.76 C1664.2,597.48 1664.68667,598.073333 1665.31333,598.54 C1665.94,599.006667 1666.76,599.24 1667.77333,599.24 Z M1667.77333,597.92 C1667,597.92 1666.39,597.713333 1665.94333,597.3 C1665.49667,596.886667 1665.16,596.373333 1664.93333,595.76 C1664.70667,595.146667 1664.56333,594.493333 1664.50333,593.8 C1664.44333,593.106667 1664.41333,592.48 1664.41333,591.92 C1664.41333,591.36 1664.44333,590.733333 1664.50333,590.04 C1664.56333,589.346667 1664.70667,588.693333 1664.93333,588.08 C1665.16,587.466667 1665.49667,586.953333 1665.94333,586.54 C1666.39,586.126667 1667,585.92 1667.77333,585.92 C1668.54667,585.92 1669.15667,586.126667 1669.60333,586.54 C1670.05,586.953333 1670.38667,587.466667 1670.61333,588.08 C1670.84,588.693333 1670.98333,589.346667 1671.04333,590.04 C1671.10333,590.733333 1671.13333,591.36 1671.13333,591.92 C1671.13333,592.48 1671.10333,593.106667 1671.04333,593.8 C1670.98333,594.493333 1670.84,595.146667 1670.61333,595.76 C1670.38667,596.373333 1670.05,596.886667 1669.60333,597.3 C1669.15667,597.713333 1668.54667,597.92 1667.77333,597.92 Z M1669.17333,639 L1669.17333,624.84 L1667.89333,624.84 L1664.29333,627.8 L1665.19333,628.88 L1667.73333,626.64 L1667.73333,639 L1669.17333,639 Z" id="0001"></path>
            </g>
        </g>
    </g>
</svg>