<?xml version="1.0" encoding="UTF-8"?>
<svg width="21px" height="126px" viewBox="0 0 21 126" version="1.1" xmlns="http://www.w3.org/2000/svg" xmlns:xlink="http://www.w3.org/1999/xlink">
    <title>装饰点</title>
    <g id="PC" stroke="none" stroke-width="1" fill="none" fill-rule="evenodd">
        <g id="Apollo---Home" transform="translate(-50.000000, -1896.000000)" fill="#FFFFFF" fill-rule="nonzero">
            <g id="section-3" transform="translate(-30.000000, 1861.000000)">
                <g id="Group-8" transform="translate(80.000000, 0.000000)">
                    <path d="M20.0756674,102.46668 C21.161902,102.917829 21.8689931,103.979355 21.8667516,105.15555 C21.8636893,106.755908 20.5671041,108.052493 18.9667463,108.055556 C17.7905507,108.057797 16.729025,107.350706 16.277876,106.264471 C15.8267269,105.178237 16.0749606,103.927159 16.906658,103.095462 C17.7383554,102.263765 18.9894328,102.015531 20.0756674,102.46668 Z M71.7825086,102.111743 C72.8680604,102.563219 73.5745493,103.624394 73.5723066,104.800084 C73.5723066,105.570176 73.2660053,106.308645 72.7209477,106.852661 C72.17589,107.396676 71.4368357,107.70156 70.6667457,107.70009 C69.4910531,107.70009 68.4312323,106.991564 67.981835,105.90515 C67.5324377,104.818736 67.7820446,103.56857 68.61418,102.738026 C69.4463154,101.907481 70.6969568,101.660267 71.7825086,102.111743 Z M54.4158419,102.111743 C55.5013937,102.563219 56.2078826,103.624394 56.20564,104.800084 C56.20564,105.570176 55.8993387,106.308645 55.354281,106.852661 C54.8092234,107.396676 54.070169,107.70156 53.300079,107.70009 C52.1243864,107.70009 51.0645657,106.991564 50.6151683,105.90515 C50.165771,104.818736 50.4153779,103.56857 51.2475133,102.738026 C52.0796487,101.907481 53.3302901,101.660267 54.4158419,102.111743 Z M37.047889,102.111214 C38.1341237,102.562363 38.8412147,103.623889 38.8389733,104.800084 C38.8359109,106.400442 37.5393257,107.697027 35.9389679,107.70009 C34.7627723,107.702331 33.7012467,106.99524 33.2500976,105.909005 C32.7989485,104.822771 33.0471822,103.571693 33.8788796,102.739996 C34.7105771,101.908299 35.9616544,101.660065 37.047889,102.111214 Z M2.3145557,102.111214 C3.40079034,102.562363 4.1078814,103.623889 4.10563994,104.800084 C4.10257756,106.400442 2.8059924,107.697027 1.20563461,107.70009 C0.029438991,107.702331 -1.03208666,106.99524 -1.48323574,105.909005 C-1.93438481,104.822771 -1.6861511,103.571693 -0.854453685,102.739996 C-0.0227562732,101.908299 1.22832107,101.660065 2.3145557,102.111214 Z M-15.052111,102.111214 C-13.9658763,102.562363 -13.2587853,103.623889 -13.2610267,104.800084 C-13.2610267,106.40171 -14.5594063,107.70009 -16.1610321,107.70009 C-17.3372277,107.702331 -18.3987533,106.99524 -18.8499024,105.909005 C-19.3010515,104.822771 -19.0528178,103.571693 -18.2211204,102.739996 C-17.3894229,101.908299 -16.1383456,101.660065 -15.052111,102.111214 Z M-32.425627,102.110693 C-31.3387093,102.561511 -30.631013,103.623384 -30.633249,104.800084 C-30.633249,106.399543 -31.928243,107.69702 -33.5276987,107.700106 C-34.7043921,107.704582 -35.7676203,106.998923 -36.2205222,105.912872 C-36.673424,104.826821 -36.4265673,103.574834 -35.5953115,102.741983 C-34.7640557,101.909131 -33.5125448,101.659874 -32.425627,102.110693 Z M56.226953,88.2228544 C57.3125049,88.6743301 58.0189937,89.735505 58.0167511,90.9111954 C58.0167511,91.6812868 57.7104498,92.4197563 57.1653921,92.9637718 C56.6203345,93.5077873 55.8812801,93.8126707 55.1111902,93.8112008 C53.9354975,93.8112008 52.8756768,93.1026748 52.4262794,92.0162609 C51.9768821,90.929847 52.2264891,89.679681 53.0586244,88.8491367 C53.8907598,88.0185924 55.1414012,87.7713786 56.226953,88.2228544 Z M38.8602864,88.2228544 C39.9458382,88.6743301 40.652327,89.735505 40.6500844,90.9111954 C40.6500844,91.6812868 40.3437831,92.4197563 39.7987255,92.9637718 C39.2536678,93.5077873 38.5146134,93.8126707 37.7445235,93.8112008 C36.5688309,93.8112008 35.5090101,93.1026748 35.0596128,92.0162609 C34.6102154,90.929847 34.8598224,89.679681 35.6919578,88.8491367 C36.5240932,88.0185924 37.7747345,87.7713786 38.8602864,88.2228544 Z M21.4923335,88.2223251 C22.5785681,88.6734742 23.2856592,89.7349998 23.2834177,90.9111954 C23.2803553,92.5115532 21.9837702,93.8081384 20.3834124,93.8112008 C19.2072168,93.8134422 18.1456911,93.1063512 17.694542,92.0201165 C17.243393,90.9338819 17.4916267,89.6828046 18.3233241,88.8511071 C19.1550215,88.0194097 20.4060988,87.771176 21.4923335,88.2223251 Z M4.12566681,88.2223251 C5.21190145,88.6734742 5.91899251,89.7349998 5.91675106,90.9111954 C5.91368867,92.5115532 4.61710351,93.8081384 3.01674572,93.8112008 C1.8405501,93.8134422 0.77902445,93.1063512 0.327875374,92.0201165 C-0.123273703,90.9338819 0.124960013,89.6828046 0.956657426,88.8511071 C1.78835484,88.0194097 3.03943218,87.771176 4.12566681,88.2223251 Z M-13.2409999,88.2223251 C-12.1547652,88.6734742 -11.4476742,89.7349998 -11.4499156,90.9111954 C-11.452978,92.5115532 -12.7495632,93.8081384 -14.349921,93.8112008 C-15.5261166,93.8134422 -16.5876422,93.1063512 -17.0387913,92.0201165 C-17.4899404,90.9338819 -17.2417067,89.6828046 -16.4100092,88.8511071 C-15.5783118,88.0194097 -14.3272345,87.771176 -13.2409999,88.2223251 Z M-30.6076665,88.2223251 C-29.5214319,88.6734742 -28.8143408,89.7349998 -28.8165823,90.9111954 C-28.8165823,91.6803233 -29.1221225,92.4179496 -29.665978,92.9618051 C-30.2098334,93.5056606 -30.9474598,93.8112008 -31.7165876,93.8112008 C-32.8927832,93.8134422 -33.9543089,93.1063512 -34.405458,92.0201165 C-34.856607,90.9338819 -34.6083733,89.6828046 -33.7766759,88.8511071 C-32.9449785,88.0194097 -31.6939012,87.771176 -30.6076665,88.2223251 Z M-47.9811826,88.221804 C-46.8942648,88.6726225 -46.1865685,89.7344956 -46.1888045,90.9111954 C-46.1888045,92.5106541 -47.4837985,93.8081313 -49.0832543,93.8112168 C-50.2599477,93.8156931 -51.3231758,93.1100343 -51.7760777,92.023983 C-52.2289796,90.9379317 -51.9821229,89.6859452 -51.1508671,88.8530938 C-50.3196112,88.0202425 -49.0681004,87.7709855 -47.9811826,88.221804 Z" id="装饰点" transform="translate(10.786156, 98.027780) rotate(90.000000) translate(-10.786156, -98.027780) "></path>
                </g>
            </g>
        </g>
    </g>
</svg>