<?xml version="1.0" encoding="UTF-8"?>
<svg width="11px" height="136px" viewBox="0 0 11 136" version="1.1" xmlns="http://www.w3.org/2000/svg" xmlns:xlink="http://www.w3.org/1999/xlink">
    <title>0100</title>
    <g id="PC" stroke="none" stroke-width="1" fill="none" fill-rule="evenodd">
        <g id="Apollo---Home-copy" transform="translate(-60.000000, -5582.000000)" fill="#FFFFFF" fill-rule="nonzero">
            <g id="section-7" transform="translate(-90.000000, 5103.000000)">
                <path d="M155.666667,494.24 C156.68,494.24 157.5,494.006667 158.126667,493.54 C158.753333,493.073333 159.24,492.48 159.586667,491.76 C159.933333,491.04 160.166667,490.25 160.286667,489.39 C160.406667,488.53 160.466667,487.706667 160.466667,486.92 C160.466667,486.133333 160.406667,485.31 160.286667,484.45 C160.166667,483.59 159.933333,482.8 159.586667,482.08 C159.24,481.36 158.753333,480.766667 158.126667,480.3 C157.5,479.833333 156.68,479.6 155.666667,479.6 C154.653333,479.6 153.833333,479.833333 153.206667,480.3 C152.58,480.766667 152.093333,481.36 151.746667,482.08 C151.4,482.8 151.166667,483.59 151.046667,484.45 C150.926667,485.31 150.866667,486.133333 150.866667,486.92 C150.866667,487.706667 150.926667,488.53 151.046667,489.39 C151.166667,490.25 151.4,491.04 151.746667,491.76 C152.093333,492.48 152.58,493.073333 153.206667,493.54 C153.833333,494.006667 154.653333,494.24 155.666667,494.24 Z M155.666667,492.92 C154.893333,492.92 154.283333,492.713333 153.836667,492.3 C153.39,491.886667 153.053333,491.373333 152.826667,490.76 C152.6,490.146667 152.456667,489.493333 152.396667,488.8 C152.336667,488.106667 152.306667,487.48 152.306667,486.92 C152.306667,486.36 152.336667,485.733333 152.396667,485.04 C152.456667,484.346667 152.6,483.693333 152.826667,483.08 C153.053333,482.466667 153.39,481.953333 153.836667,481.54 C154.283333,481.126667 154.893333,480.92 155.666667,480.92 C156.44,480.92 157.05,481.126667 157.496667,481.54 C157.943333,481.953333 158.28,482.466667 158.506667,483.08 C158.733333,483.693333 158.876667,484.346667 158.936667,485.04 C158.996667,485.733333 159.026667,486.36 159.026667,486.92 C159.026667,487.48 158.996667,488.106667 158.936667,488.8 C158.876667,489.493333 158.733333,490.146667 158.506667,490.76 C158.28,491.373333 157.943333,491.886667 157.496667,492.3 C157.05,492.713333 156.44,492.92 155.666667,492.92 Z M157.066667,534 L157.066667,519.84 L155.786667,519.84 L152.186667,522.8 L153.086667,523.88 L155.626667,521.64 L155.626667,534 L157.066667,534 Z M155.666667,574.24 C156.68,574.24 157.5,574.006667 158.126667,573.54 C158.753333,573.073333 159.24,572.48 159.586667,571.76 C159.933333,571.04 160.166667,570.25 160.286667,569.39 C160.406667,568.53 160.466667,567.706667 160.466667,566.92 C160.466667,566.133333 160.406667,565.31 160.286667,564.45 C160.166667,563.59 159.933333,562.8 159.586667,562.08 C159.24,561.36 158.753333,560.766667 158.126667,560.3 C157.5,559.833333 156.68,559.6 155.666667,559.6 C154.653333,559.6 153.833333,559.833333 153.206667,560.3 C152.58,560.766667 152.093333,561.36 151.746667,562.08 C151.4,562.8 151.166667,563.59 151.046667,564.45 C150.926667,565.31 150.866667,566.133333 150.866667,566.92 C150.866667,567.706667 150.926667,568.53 151.046667,569.39 C151.166667,570.25 151.4,571.04 151.746667,571.76 C152.093333,572.48 152.58,573.073333 153.206667,573.54 C153.833333,574.006667 154.653333,574.24 155.666667,574.24 Z M155.666667,572.92 C154.893333,572.92 154.283333,572.713333 153.836667,572.3 C153.39,571.886667 153.053333,571.373333 152.826667,570.76 C152.6,570.146667 152.456667,569.493333 152.396667,568.8 C152.336667,568.106667 152.306667,567.48 152.306667,566.92 C152.306667,566.36 152.336667,565.733333 152.396667,565.04 C152.456667,564.346667 152.6,563.693333 152.826667,563.08 C153.053333,562.466667 153.39,561.953333 153.836667,561.54 C154.283333,561.126667 154.893333,560.92 155.666667,560.92 C156.44,560.92 157.05,561.126667 157.496667,561.54 C157.943333,561.953333 158.28,562.466667 158.506667,563.08 C158.733333,563.693333 158.876667,564.346667 158.936667,565.04 C158.996667,565.733333 159.026667,566.36 159.026667,566.92 C159.026667,567.48 158.996667,568.106667 158.936667,568.8 C158.876667,569.493333 158.733333,570.146667 158.506667,570.76 C158.28,571.373333 157.943333,571.886667 157.496667,572.3 C157.05,572.713333 156.44,572.92 155.666667,572.92 Z M155.666667,614.24 C156.68,614.24 157.5,614.006667 158.126667,613.54 C158.753333,613.073333 159.24,612.48 159.586667,611.76 C159.933333,611.04 160.166667,610.25 160.286667,609.39 C160.406667,608.53 160.466667,607.706667 160.466667,606.92 C160.466667,606.133333 160.406667,605.31 160.286667,604.45 C160.166667,603.59 159.933333,602.8 159.586667,602.08 C159.24,601.36 158.753333,600.766667 158.126667,600.3 C157.5,599.833333 156.68,599.6 155.666667,599.6 C154.653333,599.6 153.833333,599.833333 153.206667,600.3 C152.58,600.766667 152.093333,601.36 151.746667,602.08 C151.4,602.8 151.166667,603.59 151.046667,604.45 C150.926667,605.31 150.866667,606.133333 150.866667,606.92 C150.866667,607.706667 150.926667,608.53 151.046667,609.39 C151.166667,610.25 151.4,611.04 151.746667,611.76 C152.093333,612.48 152.58,613.073333 153.206667,613.54 C153.833333,614.006667 154.653333,614.24 155.666667,614.24 Z M155.666667,612.92 C154.893333,612.92 154.283333,612.713333 153.836667,612.3 C153.39,611.886667 153.053333,611.373333 152.826667,610.76 C152.6,610.146667 152.456667,609.493333 152.396667,608.8 C152.336667,608.106667 152.306667,607.48 152.306667,606.92 C152.306667,606.36 152.336667,605.733333 152.396667,605.04 C152.456667,604.346667 152.6,603.693333 152.826667,603.08 C153.053333,602.466667 153.39,601.953333 153.836667,601.54 C154.283333,601.126667 154.893333,600.92 155.666667,600.92 C156.44,600.92 157.05,601.126667 157.496667,601.54 C157.943333,601.953333 158.28,602.466667 158.506667,603.08 C158.733333,603.693333 158.876667,604.346667 158.936667,605.04 C158.996667,605.733333 159.026667,606.36 159.026667,606.92 C159.026667,607.48 158.996667,608.106667 158.936667,608.8 C158.876667,609.493333 158.733333,610.146667 158.506667,610.76 C158.28,611.373333 157.943333,611.886667 157.496667,612.3 C157.05,612.713333 156.44,612.92 155.666667,612.92 Z" id="0100"></path>
            </g>
        </g>
    </g>
</svg>