<?xml version="1.0" encoding="UTF-8"?>
<svg width="20px" height="124px" viewBox="0 0 20 124" version="1.1" xmlns="http://www.w3.org/2000/svg" xmlns:xlink="http://www.w3.org/1999/xlink">
    <title>装饰点</title>
    <g id="PC" stroke="none" stroke-width="1" fill="none" fill-rule="evenodd">
        <g id="Apollo---Home" transform="translate(-49.000000, -1141.000000)" fill="#8C8D8E" fill-rule="nonzero">
            <g id="section-2" transform="translate(-113.000000, 829.000000)">
                <g id="Group-2" transform="translate(73.000000, 154.000000)">
                    <path d="M108.173196,224.426602 C109.24583,224.876501 109.944067,225.935086 109.941854,227.108023 C109.93883,228.703948 108.658479,229.996941 107.07816,229.999995 C105.916692,230.00223 104.868457,229.297098 104.422957,228.213872 C103.977457,227.130647 104.222583,225.883036 105.043866,225.053642 C105.86515,224.224249 107.100562,223.976703 108.173196,224.426602 Z M159.232607,224.072649 C160.304567,224.522874 161.002209,225.581109 160.999995,226.753542 C160.999995,227.5215 160.697529,228.257924 160.159296,228.800432 C159.621063,229.342941 158.891262,229.646979 158.130815,229.645514 C156.969843,229.645514 155.923293,228.93895 155.479522,227.855546 C155.035752,226.772142 155.282234,225.52544 156.10395,224.697196 C156.925666,223.868953 158.160648,223.622424 159.232607,224.072649 Z M142.083391,224.072649 C143.155351,224.522874 143.852994,225.581109 143.850779,226.753542 C143.850779,227.5215 143.548313,228.257924 143.01008,228.800432 C142.471847,229.342941 141.742047,229.646979 140.981599,229.645514 C139.820628,229.645514 138.774077,228.93895 138.330307,227.855546 C137.886536,226.772142 138.133018,225.52544 138.954734,224.697196 C139.77645,223.868953 141.011432,223.622424 142.083391,224.072649 Z M124.932906,224.072121 C126.005539,224.52202 126.703777,225.580605 126.701563,226.753542 C126.698539,228.349466 125.418189,229.64246 123.837869,229.645514 C122.676401,229.647749 121.628167,228.942617 121.182667,227.859391 C120.737167,226.776166 120.982292,225.528554 121.803576,224.699161 C122.624859,223.869768 123.860272,223.622222 124.932906,224.072121 Z M90.6344741,224.072121 C91.7071078,224.52202 92.4053452,225.580605 92.4031318,226.753542 C92.4001078,228.349466 91.1197574,229.64246 89.5394379,229.645514 C88.3779697,229.647749 87.3297356,228.942617 86.8842354,227.859391 C86.4387352,226.776166 86.6838608,225.528554 87.5051444,224.699161 C88.326428,223.869768 89.5618403,223.622222 90.6344741,224.072121 Z M73.4852583,224.072121 C74.557892,224.52202 75.2561295,225.580605 75.2539161,226.753542 C75.2539161,228.350731 73.9717938,229.645514 72.3902222,229.645514 C71.2287539,229.647749 70.1805198,228.942617 69.7350197,227.859391 C69.2895195,226.776166 69.534645,225.528554 70.3559286,224.699161 C71.1772122,223.869768 72.4126246,223.622222 73.4852583,224.072121 Z M56.329279,224.071601 C57.4025872,224.521171 58.1014224,225.580102 58.0992144,226.753542 C58.0992144,228.34857 56.8204352,229.642453 55.2410065,229.64553 C54.0790467,229.649993 53.0291314,228.94629 52.5819004,227.863247 C52.1346693,226.780204 52.3784351,225.531686 53.1992827,224.701142 C54.0201302,223.870598 55.2559707,223.622032 56.329279,224.071601 Z M143.871825,210.222237 C144.943785,210.672462 145.641427,211.730697 145.639213,212.90313 C145.639213,213.671088 145.336747,214.407512 144.798514,214.95002 C144.260281,215.492529 143.530481,215.796568 142.770033,215.795102 C141.609061,215.795102 140.562511,215.088539 140.118741,214.005134 C139.67497,212.92173 139.921452,211.675028 140.743168,210.846784 C141.564884,210.018541 142.799866,209.772012 143.871825,210.222237 Z M126.72261,210.222237 C127.794569,210.672462 128.492212,211.730697 128.489997,212.90313 C128.489997,213.671088 128.187531,214.407512 127.649298,214.95002 C127.111065,215.492529 126.381265,215.796568 125.620817,215.795102 C124.459846,215.795102 123.413295,215.088539 122.969525,214.005134 C122.525754,212.92173 122.772236,211.675028 123.593952,210.846784 C124.415668,210.018541 125.65065,209.772012 126.72261,210.222237 Z M109.572124,210.221709 C110.644757,210.671608 111.342995,211.730193 111.340781,212.90313 C111.337757,214.499055 110.057407,215.792048 108.477088,215.795102 C107.315619,215.797337 106.267385,215.092205 105.821885,214.008979 C105.376385,212.925754 105.62151,211.678143 106.442794,210.848749 C107.264078,210.019356 108.49949,209.77181 109.572124,210.221709 Z M92.4229079,210.221709 C93.4955416,210.671608 94.1937791,211.730193 94.1915657,212.90313 C94.1885417,214.499055 92.9081913,215.792048 91.3278718,215.795102 C90.1664036,215.797337 89.1181694,215.092205 88.6726693,214.008979 C88.2271691,212.925754 88.4722947,211.678143 89.2935783,210.848749 C90.1148618,210.019356 91.3502742,209.77181 92.4229079,210.221709 Z M75.2736922,210.221709 C76.3463259,210.671608 77.0445634,211.730193 77.04235,212.90313 C77.039326,214.499055 75.7589756,215.792048 74.1786561,215.795102 C73.0171878,215.797337 71.9689537,215.092205 71.5234536,214.008979 C71.0779534,212.925754 71.3230789,211.678143 72.1443625,210.848749 C72.9656461,210.019356 74.2010585,209.77181 75.2736922,210.221709 Z M58.1244765,210.221709 C59.1971102,210.671608 59.8953477,211.730193 59.8931343,212.90313 C59.8931343,213.670127 59.5914198,214.40571 59.054374,214.948059 C58.5173282,215.490408 57.7889378,215.795102 57.0294404,215.795102 C55.8679721,215.797337 54.819738,215.092205 54.3742378,214.008979 C53.9287377,212.925754 54.1738632,211.678143 54.9951468,210.848749 C55.8164304,210.019356 57.0518428,209.77181 58.1244765,210.221709 Z M40.9684971,210.22119 C42.0418054,210.670759 42.7406405,211.72969 42.7384325,212.90313 C42.7384325,214.498158 41.4596534,215.792041 39.8802247,215.795118 C38.7182649,215.799582 37.6683495,215.095878 37.2211185,214.012835 C36.7738875,212.929793 37.0176533,211.681274 37.8385008,210.85073 C38.6593483,210.020186 39.8951888,209.77162 40.9684971,210.22119 Z" id="装饰点" transform="translate(99.000000, 220.000000) rotate(90.000000) translate(-99.000000, -220.000000) "></path>
                </g>
            </g>
        </g>
    </g>
</svg>