<?xml version="1.0" encoding="UTF-8"?>
<svg width="11px" height="136px" viewBox="0 0 11 136" version="1.1" xmlns="http://www.w3.org/2000/svg" xmlns:xlink="http://www.w3.org/1999/xlink">
    <title>0010</title>
    <g id="PC" stroke="none" stroke-width="1" fill="none" fill-rule="evenodd">
        <g id="Apollo---Home-copy" transform="translate(-63.000000, -3847.000000)" fill="#FFFFFF" fill-rule="nonzero">
            <g id="section-5" transform="translate(-150.000000, 3311.000000)">
                <path d="M218.666667,551.24 C219.68,551.24 220.5,551.006667 221.126667,550.54 C221.753333,550.073333 222.24,549.48 222.586667,548.76 C222.933333,548.04 223.166667,547.25 223.286667,546.39 C223.406667,545.53 223.466667,544.706667 223.466667,543.92 C223.466667,543.133333 223.406667,542.31 223.286667,541.45 C223.166667,540.59 222.933333,539.8 222.586667,539.08 C222.24,538.36 221.753333,537.766667 221.126667,537.3 C220.5,536.833333 219.68,536.6 218.666667,536.6 C217.653333,536.6 216.833333,536.833333 216.206667,537.3 C215.58,537.766667 215.093333,538.36 214.746667,539.08 C214.4,539.8 214.166667,540.59 214.046667,541.45 C213.926667,542.31 213.866667,543.133333 213.866667,543.92 C213.866667,544.706667 213.926667,545.53 214.046667,546.39 C214.166667,547.25 214.4,548.04 214.746667,548.76 C215.093333,549.48 215.58,550.073333 216.206667,550.54 C216.833333,551.006667 217.653333,551.24 218.666667,551.24 Z M218.666667,549.92 C217.893333,549.92 217.283333,549.713333 216.836667,549.3 C216.39,548.886667 216.053333,548.373333 215.826667,547.76 C215.6,547.146667 215.456667,546.493333 215.396667,545.8 C215.336667,545.106667 215.306667,544.48 215.306667,543.92 C215.306667,543.36 215.336667,542.733333 215.396667,542.04 C215.456667,541.346667 215.6,540.693333 215.826667,540.08 C216.053333,539.466667 216.39,538.953333 216.836667,538.54 C217.283333,538.126667 217.893333,537.92 218.666667,537.92 C219.44,537.92 220.05,538.126667 220.496667,538.54 C220.943333,538.953333 221.28,539.466667 221.506667,540.08 C221.733333,540.693333 221.876667,541.346667 221.936667,542.04 C221.996667,542.733333 222.026667,543.36 222.026667,543.92 C222.026667,544.48 221.996667,545.106667 221.936667,545.8 C221.876667,546.493333 221.733333,547.146667 221.506667,547.76 C221.28,548.373333 220.943333,548.886667 220.496667,549.3 C220.05,549.713333 219.44,549.92 218.666667,549.92 Z M218.666667,591.24 C219.68,591.24 220.5,591.006667 221.126667,590.54 C221.753333,590.073333 222.24,589.48 222.586667,588.76 C222.933333,588.04 223.166667,587.25 223.286667,586.39 C223.406667,585.53 223.466667,584.706667 223.466667,583.92 C223.466667,583.133333 223.406667,582.31 223.286667,581.45 C223.166667,580.59 222.933333,579.8 222.586667,579.08 C222.24,578.36 221.753333,577.766667 221.126667,577.3 C220.5,576.833333 219.68,576.6 218.666667,576.6 C217.653333,576.6 216.833333,576.833333 216.206667,577.3 C215.58,577.766667 215.093333,578.36 214.746667,579.08 C214.4,579.8 214.166667,580.59 214.046667,581.45 C213.926667,582.31 213.866667,583.133333 213.866667,583.92 C213.866667,584.706667 213.926667,585.53 214.046667,586.39 C214.166667,587.25 214.4,588.04 214.746667,588.76 C215.093333,589.48 215.58,590.073333 216.206667,590.54 C216.833333,591.006667 217.653333,591.24 218.666667,591.24 Z M218.666667,589.92 C217.893333,589.92 217.283333,589.713333 216.836667,589.3 C216.39,588.886667 216.053333,588.373333 215.826667,587.76 C215.6,587.146667 215.456667,586.493333 215.396667,585.8 C215.336667,585.106667 215.306667,584.48 215.306667,583.92 C215.306667,583.36 215.336667,582.733333 215.396667,582.04 C215.456667,581.346667 215.6,580.693333 215.826667,580.08 C216.053333,579.466667 216.39,578.953333 216.836667,578.54 C217.283333,578.126667 217.893333,577.92 218.666667,577.92 C219.44,577.92 220.05,578.126667 220.496667,578.54 C220.943333,578.953333 221.28,579.466667 221.506667,580.08 C221.733333,580.693333 221.876667,581.346667 221.936667,582.04 C221.996667,582.733333 222.026667,583.36 222.026667,583.92 C222.026667,584.48 221.996667,585.106667 221.936667,585.8 C221.876667,586.493333 221.733333,587.146667 221.506667,587.76 C221.28,588.373333 220.943333,588.886667 220.496667,589.3 C220.05,589.713333 219.44,589.92 218.666667,589.92 Z M220.066667,631 L220.066667,616.84 L218.786667,616.84 L215.186667,619.8 L216.086667,620.88 L218.626667,618.64 L218.626667,631 L220.066667,631 Z M218.666667,671.24 C219.68,671.24 220.5,671.006667 221.126667,670.54 C221.753333,670.073333 222.24,669.48 222.586667,668.76 C222.933333,668.04 223.166667,667.25 223.286667,666.39 C223.406667,665.53 223.466667,664.706667 223.466667,663.92 C223.466667,663.133333 223.406667,662.31 223.286667,661.45 C223.166667,660.59 222.933333,659.8 222.586667,659.08 C222.24,658.36 221.753333,657.766667 221.126667,657.3 C220.5,656.833333 219.68,656.6 218.666667,656.6 C217.653333,656.6 216.833333,656.833333 216.206667,657.3 C215.58,657.766667 215.093333,658.36 214.746667,659.08 C214.4,659.8 214.166667,660.59 214.046667,661.45 C213.926667,662.31 213.866667,663.133333 213.866667,663.92 C213.866667,664.706667 213.926667,665.53 214.046667,666.39 C214.166667,667.25 214.4,668.04 214.746667,668.76 C215.093333,669.48 215.58,670.073333 216.206667,670.54 C216.833333,671.006667 217.653333,671.24 218.666667,671.24 Z M218.666667,669.92 C217.893333,669.92 217.283333,669.713333 216.836667,669.3 C216.39,668.886667 216.053333,668.373333 215.826667,667.76 C215.6,667.146667 215.456667,666.493333 215.396667,665.8 C215.336667,665.106667 215.306667,664.48 215.306667,663.92 C215.306667,663.36 215.336667,662.733333 215.396667,662.04 C215.456667,661.346667 215.6,660.693333 215.826667,660.08 C216.053333,659.466667 216.39,658.953333 216.836667,658.54 C217.283333,658.126667 217.893333,657.92 218.666667,657.92 C219.44,657.92 220.05,658.126667 220.496667,658.54 C220.943333,658.953333 221.28,659.466667 221.506667,660.08 C221.733333,660.693333 221.876667,661.346667 221.936667,662.04 C221.996667,662.733333 222.026667,663.36 222.026667,663.92 C222.026667,664.48 221.996667,665.106667 221.936667,665.8 C221.876667,666.493333 221.733333,667.146667 221.506667,667.76 C221.28,668.373333 220.943333,668.886667 220.496667,669.3 C220.05,669.713333 219.44,669.92 218.666667,669.92 Z" id="0010"></path>
            </g>
        </g>
    </g>
</svg>