<?xml version="1.0" encoding="utf-8"?>
<!-- Generator: Adobe Illustrator 23.0.6, SVG Export Plug-In . SVG Version: 6.00 Build 0)  -->
<svg version="1.1" id="Layer_1" xmlns="http://www.w3.org/2000/svg" xmlns:xlink="http://www.w3.org/1999/xlink" x="0px" y="0px"
	 width="201px" height="224.2px" viewBox="0 0 201 224.2" style="enable-background:new 0 0 201 224.2;" xml:space="preserve">
<style type="text/css">
	.st0{fill:none;stroke:#000000;stroke-miterlimit:10;}
</style>
<title>empty set</title>
<desc>Created with Sketch.</desc>
<g id="Page-1">
	<g id="Artboard" transform="translate(-694.000000, -819.000000)">
		<g id="Group-2">
			<path id="empty-set" class="st0" d="M867.01,882.61l-18.87,33.61c6.53,9.51,10.19,20.88,10.19,32.65
				c0,31.81-25.92,57.68-57.79,57.74l-25.89-0.27L879.52,819.5h-41.46L757.1,963.74c-8.76-6.61-26.44-21.25-26.28-50.01
				c0.17-31.84,25.97-57.74,57.88-57.74h4.57l20.28-36.08H788.7c-51.85,0-90.69,42.19-94.05,93.83
				c-1.81,27.61,12.9,63.24,44.41,82.1l0.42-0.7l-26.2,46.69l86.97,0.89h0.19c51.85,0,94.05-42.1,94.05-93.83
				C894.52,923.91,884.44,900.08,867.01,882.61z"/>
		</g>
	</g>
</g>
</svg>
