<?xml version="1.0" encoding="UTF-8"?>
<svg width="200px" height="224px" viewBox="0 0 200 224" version="1.1" xmlns="http://www.w3.org/2000/svg" xmlns:xlink="http://www.w3.org/1999/xlink">
    <!-- Generator: Sketch 64 (93537) - https://sketch.com -->
    <title>empty set</title>
    <desc>Created with Sketch.</desc>
    <g id="Page-1" stroke="none" stroke-width="1" fill="none" fill-rule="evenodd">
        <g id="Artboard" transform="translate(-694.000000, -819.000000)" fill="#FFFFFF" fill-rule="nonzero">
            <g id="Group-2">
                <path d="M866.510519,882.114918 L847.639968,915.724003 C854.170874,925.230394 857.828809,936.600476 857.828809,948.377751 C857.828809,980.185791 831.909276,1006.05821 800.03971,1006.12085 L774.151574,1005.85461 L879.022856,819 L837.561021,819 L756.599764,963.240297 C747.839558,956.631241 730.162154,941.987953 730.319147,913.233862 C730.491839,881.3945 756.285778,855.490759 788.202442,855.490759 L792.770937,855.490759 L813.054424,819.407193 L788.202442,819.407193 C736.347675,819.407193 697.507623,861.598654 694.147974,913.233862 C692.342555,940.844681 707.052794,976.47407 738.561276,995.330239 L738.985157,994.625482 L712.783036,1041.31173 L799.757122,1042.20442 L799.945514,1042.20442 C851.80028,1042.20442 894,1000.10693 894,948.377751 C894.015681,923.413687 883.936734,899.577234 866.510519,882.114918 Z" id="empty-set"></path>
            </g>
        </g>
    </g>
</svg>