<svg width="80" height="80" fill="none" xmlns="http://www.w3.org/2000/svg"><path d="M40 80C17.945 80 0 62.055 0 40S17.945 0 40 0s40 17.945 40 40a39.968 39.968 0 0 1-27.24 37.922 1.59 1.59 0 0 1-2.012-1 1.59 1.59 0 0 1 1-2.012A36.794 36.794 0 0 0 76.826 40c0-20.305-16.518-36.823-36.823-36.823S3.182 19.695 3.182 40s16.517 36.823 36.822 36.823c1.68 0 3.368-.112 5.02-.34a1.588 1.588 0 1 1 .427 3.148c-1.792.245-3.626.369-5.447.369H40z" fill="#fff"/><path d="M41.585 74.79C24.71 74.877 10.897 64.5 6.587 49.765c-.32-1.087-.68-2.253.834-2.734 1.493-.477 1.95.63 2.29 1.726 2.609 8.445 7.653 15 15.563 18.986 11.81 5.948 23.4 5.13 33.845-2.954 9.992-7.736 13.995-18.306 11.573-30.82-2.887-14.92-15.348-25.146-30.48-25.453C23.632 8.18 9.052 21.99 8.524 38.528c-.008.277-.004.551-.012.83-.033 1.215-.324 2.264-1.833 2.206-1.444-.058-1.548-1.133-1.51-2.228.14-4.164.858-8.217 2.443-12.083 4.086-9.955 11.233-16.791 21.396-20.226 14.078-4.762 29.994.025 38.826 12.394 8.113 11.362 9.258 23.645 3.073 36.105C64.644 68.15 53.822 74.135 41.593 74.79h-.008z" fill="#fff"/><path d="M31.472 47.102c-1.59 0-3.182.078-4.767-.025-1.273-.083-1.638.323-1.634 1.613 0 6.654 5.339 13.025 11.98 14.166 8.956 1.535 16.517-4.078 17.708-13.087.174-1.303-.261-3.39 2.028-3.057 2.174.315 1.398 2.227 1.224 3.534-1.215 9.192-7.786 15.522-17.086 16.16-9.885.677-17.944-6.976-18.899-15.476-.427-3.824-.406-3.828-4.264-3.828-.83 0-1.66-.013-2.489 0-1.045.012-1.758-.394-1.82-1.514-.067-1.237.725-1.747 1.808-1.793 1.584-.066 3.181-.103 4.766-.012 1.22.07 1.759-.228 1.651-1.576-.15-1.913.572-4.343-.357-5.62-.904-1.241-3.472-.27-5.305-.412-1.029-.078-2.207.03-2.51-1.298-.282-1.248.299-2.016 1.622-2.057 1.589-.046 3.182-.112 4.762-.03 1.265.067 1.796-.236 1.875-1.659.398-7.2 3.783-12.718 10.275-15.8 12.324-5.848 25.722 2.875 26.137 15.937.037 1.12-.294 1.942-1.543 2-1.211.054-1.717-.664-1.767-1.805-.203-4.828-2.087-8.831-6.027-11.706-4.754-3.463-9.94-4.077-15.232-1.534-5.33 2.563-8.21 6.94-8.537 12.933-.07 1.274.315 1.68 1.605 1.643 3.107-.087 6.218-.054 9.325-.017 1.195.013 2.734-.278 2.746 1.622.013 1.995-1.593 1.747-2.866 1.763-3.107.038-6.218.062-9.325-.012-1.199-.03-1.589.369-1.48 1.526.186 1.975-.835 4.538.418 5.758.975.95 3.53.298 5.384.32 1.933.024 3.87-.022 5.804.02 1.115.02 2.099.315 2.082 1.73-.017 1.435-.979 1.626-2.128 1.61-1.726-.022-3.455-.005-5.181-.005l.017-.012z" fill="#fff"/></svg>