<?xml version="1.0" encoding="UTF-8"?>
<svg width="28px" height="27px" viewBox="0 0 28 27" version="1.1" xmlns="http://www.w3.org/2000/svg" xmlns:xlink="http://www.w3.org/1999/xlink">
    <!-- Generator: Sketch 63.1 (92452) - https://sketch.com -->
    <title>地球</title>
    <desc>Created with Sketch.</desc>
    <g id="Page-1" stroke="none" stroke-width="1" fill="none" fill-rule="evenodd">
        <g id="首页" transform="translate(-1582.000000, -84.000000)" fill="#FFFFFF" fill-rule="nonzero">
            <path d="M1596,84 C1603.73199,84 1610,89.9711749 1610,97.3369923 C1610,104.70281 1603.73199,110.673985 1596,110.673985 C1589.95948,110.673985 1584.81248,107.029587 1582.84961,101.922947 C1582.66146,101.785663 1582.5431,101.584859 1582.5431,101.361085 C1582.5431,101.287863 1582.55578,101.217102 1582.5794,101.150231 C1582.20289,99.9422623 1582,98.6621987 1582,97.3369923 C1582,96.0117859 1582.20289,94.7317223 1582.58069,93.5234531 C1582.55582,93.4571348 1582.5431,93.3862514 1582.5431,93.3128998 C1582.5431,93.0891909 1582.66139,92.8884399 1582.84882,92.7514799 C1584.81181,87.6448719 1589.95909,84 1596,84 Z M1599.42799,102.109763 L1592.57201,102.109763 C1592.79619,103.513092 1593.11867,104.791776 1593.52424,105.875721 C1594.28148,107.899544 1595.22928,108.970965 1596,108.970965 C1596.77072,108.970965 1597.71852,107.899544 1598.47576,105.875721 C1598.88133,104.791776 1599.20381,103.513092 1599.42799,102.109763 Z M1590.78608,102.108886 L1584.85878,102.108542 C1586.36068,105.286156 1589.31653,107.705536 1592.91895,108.597552 C1591.92483,107.070149 1591.18583,104.796992 1590.78608,102.108886 Z M1607.14122,102.108542 L1601.21392,102.108886 C1600.81417,104.796992 1600.07517,107.070149 1599.08063,108.59768 C1602.68347,107.705536 1605.63932,105.286156 1607.14122,102.108542 Z M1590.60315,94.0604729 L1584.27868,94.0605098 C1583.9591,95.0997546 1583.78768,96.1993027 1583.78768,97.3369923 C1583.78768,98.474682 1583.9591,99.5742301 1584.27868,100.613475 L1590.60315,100.613512 C1590.50133,99.5646029 1590.44828,98.4668009 1590.44828,97.3369923 C1590.44828,96.2071837 1590.50133,95.1093817 1590.60315,94.0604729 Z M1599.62448,94.0600582 L1592.37552,94.0600582 C1592.26599,95.1102045 1592.20852,96.2108444 1592.20852,97.3369923 C1592.20852,98.4631402 1592.26599,99.5637802 1592.37552,100.613926 L1599.62448,100.613926 C1599.73401,99.5637802 1599.79148,98.4631402 1599.79148,97.3369923 C1599.79148,96.2108444 1599.73401,95.1102045 1599.62448,94.0600582 Z M1607.72132,94.0605098 L1601.39685,94.0604729 C1601.49867,95.1093817 1601.55172,96.2071837 1601.55172,97.3369923 C1601.55172,98.4668009 1601.49867,99.5646029 1601.39685,100.613512 L1607.72132,100.613475 C1608.0409,99.5742301 1608.21232,98.474682 1608.21232,97.3369923 C1608.21232,96.1993027 1608.0409,95.0997546 1607.72132,94.0605098 Z M1592.91937,86.0763044 L1592.70581,86.1311887 C1589.20009,87.0645187 1586.33095,89.4507232 1584.85878,92.5654429 L1590.78608,92.5650983 C1591.18583,89.8769926 1591.92483,87.6038353 1592.91937,86.0763044 Z M1596,85.7030198 C1595.22928,85.7030198 1594.28148,86.7744402 1593.52424,88.7982632 C1593.11867,89.882209 1592.79619,91.1608927 1592.57201,92.5642219 L1599.42799,92.5642219 C1599.20381,91.1608927 1598.88133,89.882209 1598.47576,88.7982632 C1597.71852,86.7744402 1596.77072,85.7030198 1596,85.7030198 Z M1599.08105,86.0764328 L1599.15214,86.1881273 C1600.11062,87.713728 1600.82381,89.9418263 1601.21392,92.5650983 L1607.14122,92.5654429 C1605.63932,89.3878289 1602.68347,86.9684484 1599.08105,86.0764328 Z" id="地球"></path>
        </g>
    </g>
</svg>