<?xml version="1.0" encoding="UTF-8"?>
<svg width="200px" height="60px" viewBox="0 0 200 60" version="1.1" xmlns="http://www.w3.org/2000/svg" xmlns:xlink="http://www.w3.org/1999/xlink">
    <title>Android</title>
    <defs>
        <rect id="path-1" x="0" y="0" width="200" height="59.3984962" rx="10"></rect>
    </defs>
    <g id="Apollo" stroke="none" stroke-width="1" fill="none" fill-rule="evenodd">
        <g id="Apollo---H5APP加习悦（中文）" transform="translate(-955.000000, -3661.000000)">
            <g id="Group-7备份" transform="translate(157.347516, 3221.000000)">
                <g id="编组-4" transform="translate(477.652484, 440.000000)">
                    <g id="Android" transform="translate(320.000000, 0.000000)">
                        <mask id="mask-2" fill="white">
                            <use xlink:href="#path-1"></use>
                        </mask>
                        <use id="Mask" fill="#000000" xlink:href="#path-1"></use>
                        <g id="编组-3" mask="url(#mask-2)">
                            <g transform="translate(29.000000, 8.000000)">
                                <text id="Android" font-family="PingFangSC-Semibold, PingFang SC" font-size="24" font-weight="500">
                                    <tspan x="52" y="30" fill="#FFFFFF">Android</tspan>
                                </text>
                                <g id="安卓1" stroke-width="1" fill-rule="evenodd">
                                    <rect id="矩形" fill="#FFFFFF" fill-rule="nonzero" opacity="0" x="0" y="0" width="44" height="44"></rect>
                                    <path d="M36.1990087,14.9077757 C34.9223044,14.9077757 33.8870035,15.9590768 33.8870035,17.2558556 L33.8870035,26.4319394 C33.8870035,27.7288455 34.922262,28.7801042 36.1990087,28.7801042 C37.4759252,28.7801042 38.5110139,27.728803 38.5110139,26.4319394 L38.5110139,17.2558556 C38.5110139,15.9590768 37.4760101,14.9077757 36.1990087,14.9077757 Z M8.31200524,14.9077757 C7.03517365,14.9077757 6,15.9590768 6,17.2558556 L6,26.4319394 C6,27.7288455 7.03517365,28.7801042 8.31200524,28.7801042 C9.58883682,28.7801042 10.6240105,27.728803 10.6240105,26.4319394 L10.6240105,17.2558556 C10.6240105,15.9590768 9.58883682,14.9077757 8.31200524,14.9077757 Z M12.0153049,14.978864 L12.0153049,31.7435758 C12.0153049,32.7393219 12.822529,33.5465036 13.8183176,33.5465036 L15.8780971,33.5465036 L15.8780971,38.6518352 C15.8780971,39.9487413 16.9132708,41 18.1901024,41 C19.4670188,41 20.5021925,39.9486988 20.5021925,38.6518352 L20.5021925,33.5464611 L24.1005785,33.5464611 L24.1005785,38.6517928 C24.1005785,39.9486988 25.135837,41 26.4125837,41 C27.6895002,41 28.7248012,39.9486564 28.7248012,38.6517928 L28.7248012,33.5464611 L30.7843685,33.5464611 C31.7803268,33.5464611 32.587466,32.7393219 32.587466,31.7435333 L32.587466,14.978864 L12.0153049,14.978864 L12.0153049,14.978864 Z M27.1318705,6.29169832 L29.0322423,3.5330885 C29.1450076,3.36922456 29.1169966,3.15400724 28.9695148,3.05240396 C28.822033,2.95088556 28.6110174,3.00130523 28.4982521,3.16525406 L26.5242455,6.03077226 C25.2234348,5.51829955 23.7780284,5.23267294 22.255507,5.23267294 C20.7329856,5.23267294 19.287664,5.51825711 17.9868533,6.03077226 L16.0128467,3.16525406 C15.8999966,3.00130523 15.6889809,2.950928 15.5414991,3.05240396 C15.3940173,3.15404968 15.3660488,3.369267 15.4788565,3.5330885 L17.3792284,6.29169832 C14.3579524,7.69721042 12.2390953,10.367798 11.9694264,13.4848629 L32.54163,13.4848629 C32.2719187,10.367798 30.1530615,7.69721042 27.1318705,6.29169832 Z M17.9159348,10.6392494 C17.287344,10.6392494 16.7777148,10.1297475 16.7777148,9.50102947 C16.7777148,8.87243873 17.2873016,8.36280955 17.9159348,8.36280955 C18.5446104,8.36280955 19.0541547,8.87239629 19.0541547,9.50102947 C19.0541547,10.1297051 18.5446528,10.6392494 17.9159348,10.6392494 Z M26.7373832,10.6392494 C26.1087924,10.6392494 25.5992906,10.1297475 25.5992906,9.50102947 C25.5992906,8.87243873 26.10875,8.36280955 26.7373832,8.36280955 C27.3661861,8.36280955 27.875688,8.87239629 27.875688,9.50102947 C27.875688,10.1297051 27.3662286,10.6392494 26.7373832,10.6392494 Z" id="形状" fill="#96C200" fill-rule="nonzero"></path>
                                </g>
                            </g>
                        </g>
                    </g>
                </g>
            </g>
        </g>
    </g>
</svg>