<?xml version="1.0" encoding="UTF-8"?>
<svg width="628px" height="156px" viewBox="0 0 628 156" version="1.1" xmlns="http://www.w3.org/2000/svg" xmlns:xlink="http://www.w3.org/1999/xlink">
    <!-- Generator: Sketch 64 (93537) - https://sketch.com -->
    <title>编组 5</title>
    <desc>Created with Sketch.</desc>
    <g id="页面-1" stroke="none" stroke-width="1" fill="none" fill-rule="evenodd">
        <g id="编组-5" fill="#FFFFFF" fill-rule="nonzero">
            <path d="M259.756249,16.1272336 C259.898119,16.0587297 260.065178,16.0675944 260.199002,16.1507275 C260.332826,16.2338605 260.414797,16.3796968 260.416249,16.5372336 L260.416249,16.5372336 L260.416249,25.5372336 C264.451672,22.5033508 269.367604,20.8705592 274.416249,20.8872336 C284.530306,20.9075529 293.472033,27.4613805 296.536298,37.1000963 C299.600564,46.7388121 296.084961,57.2529774 287.839397,63.1100449 C279.593833,68.9671123 268.508401,68.8244932 260.416249,62.7572336 L260.416249,62.7572336 L260.416249,83.5372336 C260.419173,83.8206568 260.25995,84.0808505 260.006249,84.2072336 L260.006249,84.2072336 L251.776249,88.3272336 C251.634378,88.3957374 251.467319,88.3868727 251.333495,88.3037397 C251.199671,88.2206066 251.1177,88.0747703 251.116192,87.9172336 L251.116192,87.9172336 L251.116192,20.9172336 C251.112692,20.6308462 251.276936,20.3688374 251.536249,20.2472336 L251.536249,20.2472336 Z M362.136249,6.97723356 C362.278119,6.90872973 362.445178,6.91759444 362.579002,7.00072747 C362.712826,7.0838605 362.794797,7.22969679 362.796277,7.38723356 L362.796277,7.38723356 L362.796277,69.5472336 C362.798745,69.8358303 362.635423,70.100257 362.376249,70.2272336 L362.376249,70.2272336 L354.156249,74.3372336 C354.014378,74.4057374 353.847319,74.3968727 353.713495,74.3137397 C353.579671,74.2306066 353.4977,74.0847703 353.496209,73.9272336 L353.496209,73.9272336 L353.496209,11.7672336 C353.493324,11.4838103 353.652547,11.2236166 353.906249,11.0972336 L353.906249,11.0972336 Z M376.136249,0.0472335609 C376.270417,-0.0187630226 376.428292,-0.0154308389 376.559557,0.0561681215 C376.690822,0.127767082 376.779097,0.258698483 376.796249,0.407233561 L376.796249,0.407233561 L376.796249,62.5772336 C376.794918,62.862226 376.632175,63.1218386 376.376249,63.2472336 L376.376249,63.2472336 L368.146249,67.3572336 C368.004857,67.431912 367.834456,67.4259503 367.698629,67.3415729 C367.562802,67.2571955 367.481952,67.1070774 367.486249,66.9472336 L367.486249,66.9472336 L367.486249,4.83723356 C367.487579,4.55224116 367.650322,4.29262848 367.906249,4.16723356 L367.906249,4.16723356 Z M325.586249,20.8872336 C338.432392,20.8872336 348.846249,31.3010903 348.846249,44.1472336 C348.846249,56.9933768 338.432392,67.4072336 325.586249,67.4072336 C312.740105,67.4072336 302.326249,56.9933768 302.326249,44.1472336 C302.326249,31.3010903 312.740105,20.8872336 325.586249,20.8872336 Z M404.676249,20.8872336 C417.522392,20.8872336 427.936249,31.3010903 427.936249,44.1472336 C427.936249,56.9933768 417.522392,67.4072336 404.676249,67.4072336 C391.830105,67.4072336 381.416249,56.9933768 381.416249,44.1472336 C381.416249,31.3010903 391.830105,20.8872336 404.676249,20.8872336 Z M206.887985,27.6063625 C215.570663,19.0056241 229.429918,18.5952729 238.606249,26.6672336 L238.606249,26.6672336 L245.846249,23.0472336 C245.995971,22.9483901 246.189499,22.9456123 246.341996,23.0401179 C246.494494,23.1346235 246.578133,23.3091664 246.556249,23.4872336 L246.556249,23.4872336 L246.556249,62.5772336 C246.550375,62.8608885 246.388992,63.1183326 246.136249,63.2472336 L246.136249,63.2472336 L237.856249,67.3272336 C237.714857,67.401912 237.544456,67.3959503 237.408629,67.3115729 C237.272802,67.2271955 237.191952,67.0770774 237.196249,66.9172336 L237.196249,66.9172336 L237.196249,62.7272336 C227.417647,70.058028 213.632749,68.566749 205.648158,59.3142954 C197.663567,50.0618419 198.205308,36.2071009 206.887985,27.6063625 Z M279.66311,30.7608403 C274.367113,28.581621 268.279485,29.8145425 264.248763,33.8826933 C260.21804,37.9508441 259.041437,44.0496076 261.269512,49.3252363 C263.497587,54.600865 268.689661,58.009922 274.416249,57.9572336 C278.151914,57.9573946 281.732712,56.4645669 284.36199,53.8108738 C286.991269,51.1571806 288.450937,47.5627375 288.416249,43.8272336 C288.416006,38.100404 284.959106,32.9400595 279.66311,30.7608403 Z M330.83311,30.7608403 C325.537113,28.581621 319.449485,29.8145425 315.418763,33.8826933 C311.38804,37.9508441 310.211437,44.0496076 312.439512,49.3252363 C314.667587,54.600865 319.859661,58.009922 325.586249,57.9572336 C329.321914,57.9573946 332.902712,56.4645669 335.53199,53.8108738 C338.161269,51.1571806 339.620937,47.5627375 339.586249,43.8272336 C339.586006,38.100404 336.129106,32.9400595 330.83311,30.7608403 Z M409.92311,30.7608403 C404.627113,28.581621 398.539485,29.8145425 394.508763,33.8826933 C390.47804,37.9508441 389.301437,44.0496076 391.529512,49.3252363 C393.757587,54.600865 398.949661,58.009922 404.676249,57.9572336 C408.411914,57.9573946 411.992712,56.4645669 414.62199,53.8108738 C417.251269,51.1571806 418.710937,47.5627375 418.676249,43.8272336 C418.676006,38.100404 415.219106,32.9400595 409.92311,30.7608403 Z M228.431167,30.7264808 C223.129016,28.5503925 217.037591,29.7926544 213.010989,33.8712128 C208.984387,37.9497712 207.820319,44.0566214 210.064202,49.3304391 C212.308085,54.6042569 217.515382,58.0002441 223.246249,57.9272336 L223.246249,57.9272336 L223.246249,57.9572336 C226.978493,57.944148 230.551014,56.441338 233.170336,53.7825847 C235.789659,51.1238314 237.238926,47.529257 237.196249,43.7972336 C237.195784,38.0659018 233.733318,32.9025691 228.431167,30.7264808 Z" id="形状结合"></path>
            <g id="编组" transform="translate(0.000000, 109.000000)">
                <path d="M62.85,14.15 C60.9582524,10.1156085 58.8139982,6.20451543 56.43,2.44 L51.14,4.81 C53.4220618,8.68982435 55.4044927,12.7382625 57.07,16.92 L62.85,14.15 Z" id="路径"></path>
                <path d="M51.19,41.84 L57.37,44.41 C59.49,39.47 61.87,33.41 63.89,27.61 L58.41,24.94 C56.3460578,30.7136664 53.9349942,36.3572919 51.19,41.84 L51.19,41.84 Z" id="路径"></path>
                <path d="M86.63,33.44 L95.33,33.44 L95.33,28.44 L86.63,28.44 L86.63,23.84 L95.43,23.84 L95.43,18.84 L86.63,18.84 L86.63,14.14 L96.37,14.14 L96.37,9.05 L85.64,9.05 L88.21,7.72 C87.0132943,5.27055978 85.6081152,2.9285945 84.01,0.72 L79.01,2.99 C80.2401333,4.95382049 81.3618123,6.98352538 82.37,9.07 L73.52,9.07 C74.52,6.85 75.4,4.57 76.19,2.25 L70.75,0.92 C68.38,8.73 64.13,16.29 59.04,20.92 C60.5102519,22.2508644 61.880616,23.6880755 63.14,25.22 C64.385365,23.8987169 65.5571338,22.5099539 66.65,21.06 L66.65,46.77 L72,46.77 L72,43.55 L97.16,43.55 L97.16,38.31 L86.63,38.31 L86.63,33.44 Z M80.9,38.23 L72,38.23 L72,33.44 L80.9,33.44 L80.9,38.23 Z M80.9,28.4 L72,28.4 L72,23.8 L80.9,23.8 L80.9,28.4 Z M80.9,18.76 L72,18.76 L72,14.06 L80.9,14.06 L80.9,18.76 Z" id="形状"></path>
                <polygon id="路径" points="251.59 45.39 258.9 45.39 258.9 25.93 271.9 25.93 271.9 19.25 258.9 19.25 258.9 8.87 274.12 8.87 274.12 2.25 251.59 2.25"></polygon>
                <rect id="矩形" x="279.91" y="16.69" width="7.22" height="28.7"></rect>
                <path d="M283.57,2.3 C281.04,2.3 279.22,3.88 279.22,6.25 C279.407499,8.49934377 281.287855,10.2294795 283.545,10.2294795 C285.802145,10.2294795 287.682501,8.49934377 287.87,6.25 C287.87,3.88 286,2.3 283.57,2.3 Z" id="路径"></path>
                <path d="M310.55,17.02 C306.8,17.02 303.98,19.02 301.55,21.37 L301.35,21.37 L300.86,16.69 L294.92,16.69 L294.92,45.39 L302.14,45.39 L302.14,26.39 C304.22,24.39 305.65,23.27 307.92,23.27 C310.64,23.27 311.83,24.81 311.83,29.06 L311.83,45.42 L319.090029,45.42 L319.090029,28.15 C319.1,21.15 316.53,17.02 310.55,17.02 Z" id="路径"></path>
                <path d="M338.68,40.35 C336.21,40.35 334.92,38.86 334.92,35.7 L334.92,23.44 L341.74,23.44 L341.74,16.69 L334.92,16.69 L334.92,9.28 L328.84,9.28 L328,16.69 L323.75,16.69 L323.75,23.44 L327.66,23.44 L327.66,35.7 C327.66,41.93 330.18,46.08 336.75,46.08 C338.738814,46.0747067 340.712729,45.7367076 342.59,45.08 L341.4,39.79 C340.532913,40.1338087 339.61238,40.3233302 338.68,40.35 L338.68,40.35 Z" id="路径"></path>
                <path d="M357.61,17.02 C350.99,17.02 344.71,22.6 344.71,31.6 C344.71,40.6 350.71,46.08 358.45,46.08 C361.911275,46.039077 365.28296,44.9743343 368.14,43.02 L365.67,38.57 C363.823248,39.8001521 361.658839,40.4671928 359.44,40.49 C355.34,40.49 352.37,38.12 351.78,33.57 L368.78,33.57 C369.034915,32.4856935 369.152504,31.3736409 369.13,30.26 C369.18,22.6 365.22,17.02 357.61,17.02 Z M351.68,28.78 C352.23,24.78 354.8,22.65 357.68,22.65 C361.24,22.65 362.92,25.02 362.92,28.78 L351.68,28.78 Z" id="形状"></path>
                <path d="M387.72,40.15 C383.72,40.15 380.85,36.79 380.85,31.6 C380.85,26.41 383.71,22.95 387.91,22.95 C389.507951,22.9968252 391.027894,23.6512948 392.16,24.78 L395.62,20.08 C393.417084,18.1163067 390.57108,17.0277101 387.62,17.02 C380.1,17.02 373.48,22.35 373.48,31.6 C373.48,40.85 379.31,46.08 386.97,46.08 C390.276405,46.0785253 393.47156,44.8856673 395.97,42.72 L393.1,37.92 C391.621965,39.2685668 389.718665,40.0574811 387.72,40.15 Z" id="路径"></path>
                <path d="M416.83,17.02 C413.07,17.02 410.35,19.02 408.13,21.02 L408.43,15.83 L408.43,2.37 L401.21,2.37 L401.21,45.37 L408.43,45.37 L408.43,26.37 C410.5,24.37 411.94,23.25 414.21,23.25 C416.93,23.25 418.11,24.79 418.11,29.04 L418.11,45.4 L425.38,45.4 L425.38,28.15 C425.38,21.15 422.81,17.02 416.83,17.02 Z" id="路径"></path>
                <path d="M22.91,25.33 C21.78,30.33 19.7,35.71 17.18,39.12 C18.8003987,40.0064194 20.3544646,41.0090426 21.83,42.12 C24.7462133,37.2551662 26.8947946,31.9697234 28.2,26.45 L22.91,25.33 Z" id="路径"></path>
                <rect id="矩形" x="23.01" y="3.54" width="21.7" height="5.49"></rect>
                <path d="M20.94,24.49 C20.05,23.31 15.94,18.26 14.41,16.68 L14.41,15.68 L20.2,15.68 L20.2,10.24 L14.41,10.24 L14.41,0.5 L8.58,0.5 L8.58,10.24 L1.71,10.24 L1.71,15.68 L7.44,15.68 C6.16,21.16 2.72,28.97 0,32.48 C1,33.79 3.06,35.86 3.88,36.88 C5.89456956,33.6763591 7.47503525,30.2195108 8.58,26.6 L8.58,46.6 L14.41,46.6 L14.41,23.26 C15.6373214,25.1566935 16.7590272,27.1196787 17.77,29.14 L20.94,24.49 Z" id="路径"></path>
                <path d="M38.09,26.72 C40.1907294,31.7762165 41.729952,37.0478021 42.68,42.44 L47.97,40.44 C46.896706,35.1422864 45.219067,29.985224 42.97,25.07 L38.09,26.72 Z" id="路径"></path>
                <path d="M36.41,34.6 L36.41,20.79 L47.41,20.79 L47.41,15.3 L20.79,15.3 L20.79,20.79 L30.43,20.79 L30.43,41.31 L26,41.31 L27.72,46.6300028 L34.36,46.6300028 C35.4855379,46.6318045 36.4162917,45.7537349 36.48,44.63 L36.48,34.63 L36.41,34.6 Z" id="路径"></path>
                <path d="M478.49,21.31 C478.582948,20.8608042 478.469449,20.3936046 478.180773,20.0371185 C477.892097,19.6806325 477.458705,19.4724768 477,19.47 L460.15,19.47 L460.15,7.76 L471.62,7.76 L471.62,11.26 L467.62,11.26 L469.26,16.26 L475.26,16.26 C476.3378,16.2606603 477.222277,15.4071402 477.26,14.33 L477.26,9.71 L477.26,2.29 L454.52,2.29 L454.52,46.73 L460.11,46.73 L460.11,42.67 C461.25016,43.8708307 462.228448,45.2155573 463.02,46.67 C465.434803,45.2440998 467.619602,43.4605215 469.5,41.38 C471.56032,43.5058163 473.918223,45.3214012 476.5,46.77 C477.522454,45.0921106 478.748418,43.5470595 480.15,42.17 C477.40186,40.9268637 474.919726,39.1645821 472.84,36.98 C475.41,32.93 477.31,27.3 478.49,21.31 Z M460.15,42.06 L460.15,24.76 L460.44,24.76 C461.787781,29.0883392 463.718866,33.2129205 466.18,37.02 C464.474032,39.033502 462.434262,40.7383847 460.15,42.06 L460.15,42.06 Z M469.24,32.47 C467.687429,30.049572 466.409537,27.4636007 465.43,24.76 L472.43,24.76 C471.680281,27.4488264 470.609225,30.0374931 469.24,32.47 L469.24,32.47 Z" id="形状"></path>
                <path d="M451.84,2.27 L436.27,2.27 L436.27,20.21 C436.27,27.43 436.16,38.98 431.91,46.74 L437.75,46.74 C439.75,42.24 440.75,36.16 441.21,30.38 L446.4,30.38 L446.4,41.89 L441.78,41.89 L443.35,46.72 L449.93,46.72 C450.967514,46.7260929 451.822191,45.906843 451.86,44.87 L451.86,39.87 L451.84,2.27 Z M446.4,24.86 L441.51,24.86 C441.51,23.23 441.51,21.7 441.51,20.21 L441.51,18.88 L446.35,18.88 L446.4,24.86 Z M446.4,13.44 L441.56,13.44 L441.56,7.71 L446.4,7.71 L446.4,13.44 Z" id="形状"></path>
                <path d="M525.54,7.36 L521.96,5.24 L502.51,5.24 C503.378612,4.11394134 504.186431,2.94227084 504.93,1.73 L498.93,0.49 C496.41,4.69 491.81,9.14 484.84,12.31 C486.203514,13.6388456 487.353724,15.1702113 488.25,16.85 C490.200299,15.8624474 492.069458,14.7222273 493.84,13.44 C495.385797,15.0277757 497.130233,16.4092077 499.03,17.55 C493.871185,18.8452273 488.612706,19.7049151 483.31,20.12 C484.301736,21.7195796 485.065749,23.4495466 485.58,25.26 C492.470733,24.4987875 499.263816,23.024216 505.85,20.86 C512.26437,23.0446119 518.952171,24.3236075 525.72,24.66 C526.591407,22.8192611 527.686325,21.0929188 528.98,19.52 C523.679558,19.3484139 518.403578,18.7227905 513.21,17.65 C518.11101,15.2975599 522.348648,11.7610391 525.54,7.36 L525.54,7.36 Z M505.82,15.52 C502.771701,14.417324 499.990917,12.6827421 497.66,10.43 L498.01,10.13 L516,10.13 C512.922243,12.4681278 509.483783,14.2886877 505.82,15.52 L505.82,15.52 Z" id="形状"></path>
                <path d="M522.67,27.93 L507,27.93 C507.34,26.74 507.59,25.55 507.84,24.22 L501.76,23.72 C501.56,25.26 501.26,26.59 500.97,27.93 L486.97,27.93 L486.97,32.93 L498.78,32.93 C497.36,37.87 492.68,41.54 484.69,42.5 C485.92,43.73 488.54,46.11 489.17,46.75 C498.47,44.65 502.24,40.75 505.26,32.93 L518.45,32.93 C518.45,33 518.45,33.06 518.45,33.13 L517.17,41.95 L507.05,41.95 L508.82,46.8800311 L520.82,46.8800311 C521.986252,46.886199 522.946821,45.9654689 522.99,44.8 L524.63,30.39 C524.63,30.39 524.63,30.39 524.63,30.31 L524.63,30.31 C524.743313,29.7244836 524.589416,29.1189462 524.210293,28.6585823 C523.83117,28.1982184 523.266379,27.9310638 522.67,27.93 L522.67,27.93 Z" id="路径"></path>
                <path d="M558.47,40.28 L558.47,28.81 L569.53,28.81 C570.81,30.44 570.38,29.99 571.27,31.11 L575.27,27.62 C572.668279,24.2912817 569.791495,21.1870311 566.67,18.34 L562.59,21.01 C563.53,21.9 564.1,22.54 565.04,23.58 L550.16,23.58 C556.54,20.36 562.96,17.45 568.8,12.85 L564.54,9.04 C562.303282,10.9432067 559.966628,12.7257394 557.54,14.38 L547.65,14.88 C550.589638,12.8073984 553.364579,10.5105496 555.95,8.01 C561.854212,7.47089848 567.716765,6.5455838 573.5,5.24 L569.35,0.39 C561,2.39 547.25,3.66 535.19,4.1 C535.878552,5.74434088 536.345961,7.47274591 536.58,9.24 C540.24,9.14 543.99,8.95 547.8,8.7 C545.886362,10.506892 543.818498,12.1431148 541.62,13.59 C540.541951,14.5187596 539.249837,15.164817 537.86,15.47 C538.536388,17.095272 539.09777,18.7660509 539.54,20.47 C540.63,20.03 541.75,19.73 549.54,19.24 C546.4,20.89 544.12,22.04 542.64,22.73 C539.52,24.31 537.84,23.97 535.86,24.21 C536.354931,25.6982279 536.732748,27.2228736 536.99,28.77 L552.52,28.77 L552.52,41.86 L548.45,41.86 L549.68,46.6600372 L556.4,46.6600372 C557.525706,46.6666367 558.456414,45.7844498 558.51,44.66 L558.51,40.35 C558.500709,40.3245781 558.487185,40.3009109 558.47,40.28 L558.47,40.28 Z" id="路径"></path>
                <path d="M542.6,31.63 C539.846434,35.1262341 536.418635,38.0337422 532.52,40.18 C534.332088,41.3481378 536.050601,42.6554114 537.66,44.09 C541.734657,41.1744398 545.391818,37.7157819 548.53,33.81 L542.6,31.63 Z" id="路径"></path>
                <path d="M565.88,31.39 L561.08,34.55 C564.999993,37.3597706 568.628166,40.5557787 571.91,44.09 L577.1,40.63 C574.68,37.91 569.68,34.06 565.88,31.39 Z" id="路径"></path>
                <path d="M621.83,40.93 L620.15,40.93 C619.46,40.93 619.36,40.73 619.36,39.19 L619.36,25.31 L613.58,25.31 L613.58,39.24 C613.58,44.19 614.58,45.87 619.02,45.87 L622.43,45.87 C625.55,45.87 627.43,45.87 627.43,42.87 L627.43,36.35 C625.85,35.6 625.28,35.25 622.94,34.08 C622.92,40.57 623.12,40.93 621.83,40.93 Z" id="路径"></path>
                <path d="M595.84,42.15 C597.301999,43.5429891 598.504116,45.1853188 599.39,47 C608.39,42.89 609.67,35.78 610.07,25.4 L604.29,25.4 C604,33.76 603.3,38.95 595.84,42.15 Z" id="路径"></path>
                <path d="M602.22,17.75 C601.263476,18.4185154 600.143948,18.8158785 598.98,18.9 C599.484209,20.3433622 599.872114,21.8247565 600.14,23.33 L621.09,23.33 C621.581894,24.2006117 622.01616,25.1025474 622.39,26.03 L627.62,24.22 C625.667979,20.2710548 623.297737,16.5430359 620.55,13.1 L616.05,15.32 C616.79,16.41 617.58,17.6 618.37,18.83 L608.59,18.83 C610.42,16.61 612.44,14.63 614.22,12.21 L626.57,12.21 L626.57,6.97 L617,6.97 C616.182326,4.68940066 615.223815,2.4617802 614.13,0.3 L608.6,1.68 C609.29,3.31 610.03,5.44 610.52,6.97 L599.52,6.97 L599.52,12.21 L607.28,12.21 C605.726328,14.1738853 604.035426,16.0251897 602.22,17.75 Z" id="路径"></path>
                <path d="M581.5,28.52 C582.248079,30.289073 582.876167,32.1065186 583.38,33.96 C584.71,33.17 586.74,32.47 598.5,29.75 C598.334263,28.0406747 598.334263,26.3193253 598.5,24.61 L591.63,26.05 C594.767584,22.1038156 597.59598,17.9214003 600.09,13.54 L595,10.33 C594.166677,12.0903364 593.242087,13.8060011 592.23,15.47 L588.67,15.77 C591.521779,11.7078896 593.925763,7.34920089 595.84,2.77 L589.84,1.42108547e-14 C588.404489,4.59951865 586.430821,9.01341854 583.96,13.15 C582.88,14.73 582.08,15.77 580.96,16.01 C581.757435,17.9305076 582.448482,19.8934809 583.03,21.89 C583.77,21.5 584.96,21.2 588.82,20.76 C587.743762,22.3337757 586.588966,23.8523648 585.36,25.31 C583.87,27.15 582.79,28.22 581.5,28.52 Z" id="路径"></path>
                <path d="M598.41,33.31 C592.28,35.44 585.95,37.71 581.8,38.9 L583.73,44.34 C588.52,42.56 594.55,40.18 600.09,37.86 L598.41,33.31 Z" id="路径"></path>
                <path d="M146.1,10.75 L140.46,6.9 C137.492116,11.3927759 133.952419,15.4804034 129.93,19.06 L129.93,1.21 L123.56,1.21 L123.56,24.15 C120.573247,26.3095098 117.396922,28.193884 114.07,29.78 L114.07,11.78 C115.870246,8.72359991 117.470274,5.55360717 118.86,2.29 L112.86,0.29 C110.141128,7.3196536 105.863928,13.6414308 100.35,18.78 C101.739346,20.6914744 102.995641,22.6962006 104.11,24.78 C105.35,23.54 106.58,22.21 107.82,20.73 L107.82,46.73 L114.05,46.73 L114.05,30.42 C115.485684,31.620253 116.777615,32.9826526 117.9,34.48 C119.835822,33.5627284 121.718769,32.5377911 123.54,31.41 L123.54,39.41 C123.54,44.84 124.68,46.69 129.54,46.69 L140.43,46.69 C143.88,46.69 145.93,46.69 145.93,43.44 L145.93,35.26 C144.19,34.43 142.54,34.05 139.93,32.76 C139.93,40.35 140.24,41.26 138.08,41.26 L130.77,41.26 C130.01,41.26 129.9,41.04 129.9,39.35 L129.9,27.15 C136.065381,22.4963223 141.522319,16.9720156 146.1,10.75 Z" id="路径"></path>
                <path d="M164.13,9.51 L153.82,9.51 L153.82,21.51 L188.31,21.51 C189.022516,21.51 189.705705,21.2262763 190.20859,20.7215139 C190.711476,20.2167516 190.992659,19.5325112 190.99,18.82 L190.99,9.53 L180,9.53 L180,6.85 L192.88,6.85 L192.88,2.29 L151.6,2.29 L151.6,6.85 L164.13,6.85 L164.13,9.51 Z M164.13,17.31 L159.22,17.31 L159.22,13.63 L164.13,13.63 L164.13,17.31 Z M180,13.63 L185.16,13.63 L185.16,17.31 L180,17.31 L180,13.63 Z M169.44,6.85 L174.55,6.85 L174.55,9.51 L169.44,9.51 L169.44,6.85 Z M169.44,13.63 L174.55,13.63 L174.55,17.31 L169.44,17.31 L169.44,13.63 Z" id="形状"></path>
                <path d="M178.52,38.04 C182.4,40.25 187.26,43.54 189.52,45.8 L194.19,42.51 C190.639693,39.6899584 186.821425,37.2248311 182.79,35.15 L178.52,38.04 Z" id="路径"></path>
                <path d="M160,34.99 C157.248969,38.1644059 153.835527,40.69718 150,42.41 C151.554815,43.5879513 153.000629,44.9032407 154.32,46.34 C158.524799,43.8642458 162.250641,40.653248 165.32,36.86 L160,34.99 Z" id="路径"></path>
                <path d="M235,16.82 L241,16.82 C242.408326,16.82 243.55,15.6783261 243.55,14.27 L243.55,2.37 L216.55,2.37 L216.55,17.61 C216.55,25.27 216.43,38.73 210.26,46.68 L216.26,46.68 C220,41.13 221.34,33.23 221.88,26.06 L229.45,26.06 L229.45,30.77 L221.59,30.77 L221.59,46.5 L241.17,46.5 C242.585476,46.5000107 243.734492,45.355465 243.74,43.94 L243.74,30.77 L235,30.77 L235,26.06 L245,26.06 L245,21.15 L235,21.15 L235,16.82 Z M222.27,21.15 C222.32,19.87 222.32,18.74 222.32,17.61 L222.32,16.82 L229.54,16.82 L229.54,21.15 L222.27,21.15 Z M238.57,35.58 L238.57,41.87 L226.69,41.87 L226.69,35.58 L238.57,35.58 Z M222.32,11.81 L222.32,7.33 L238.08,7.33 L238.08,11.81 L222.32,11.81 Z" id="形状"></path>
                <path d="M210.3,28.21 C211.96,27.72 213.68,27.21 215.3,26.69 L214.62,21.44 L210.3,22.62 L210.3,15.35 L215.21,15.35 L215.21,9.95 L210.3,9.95 L210.3,2.29 L205,2.29 L205,9.95 L199.87,9.95 L199.87,15.35 L205,15.35 L205,24 C202.75,24.59 200.79,25.08 199.08,25.47 L200.41,31.11 L205,29.8 L205,41.8 L201.56,41.8 L202.78,46.600002 L208.26,46.600002 C209.383681,46.601528 210.31142,45.7221537 210.37,44.6 L210.3,28.21 Z" id="路径"></path>
                <path d="M193.9,34.6 L193.9,30.03 L175.1,30.03 L175.1,27.92 L188.65,27.92 L188.65,23.5 L156.13,23.5 L156.13,27.92 L169.13,27.92 L169.13,30.03 L150.91,30.03 L150.91,34.6 L169.17,34.6 L169.17,41.78 L165.1,41.78 L166.32,46.580002 L173.05,46.580002 C174.173681,46.581528 175.10142,45.7021537 175.16,44.58 L175.16,34.58 L193.9,34.58 L193.9,34.6 Z" id="路径"></path>
            </g>
        </g>
    </g>
</svg>