<?xml version="1.0" encoding="UTF-8"?>
<svg width="542px" height="156px" viewBox="0 0 542 156" version="1.1" xmlns="http://www.w3.org/2000/svg" xmlns:xlink="http://www.w3.org/1999/xlink">
    <!-- Generator: Sketch 64 (93537) - https://sketch.com -->
    <title>编组 6</title>
    <desc>Created with Sketch.</desc>
    <g id="页面-1" stroke="none" stroke-width="1" fill="none" fill-rule="evenodd">
        <g id="编组-6" fill="#FFFFFF" fill-rule="nonzero">
            <path d="M216.795955,16.1357638 C216.937825,16.0672599 217.104885,16.0761246 217.238709,16.1592577 C217.372533,16.2423907 217.454504,16.388227 217.455955,16.5457638 L217.455955,16.5457638 L217.455955,25.5457638 C221.491379,22.511881 226.407311,20.8790894 231.455955,20.8957638 C241.555087,20.9393856 250.472147,27.4949546 253.526342,37.1212862 C256.580538,46.7476178 253.073927,57.2449084 244.847218,63.1028636 C236.62051,68.9608187 225.553666,68.840782 217.455955,62.8057638 L217.455955,62.8057638 L217.455955,83.5557638 C217.454624,83.8407562 217.291882,84.1003688 217.035955,84.2257638 L217.035955,84.2257638 L208.815955,88.3357638 C208.674085,88.4042676 208.507025,88.3954029 208.373201,88.3122699 C208.239378,88.2291368 208.157406,88.0833005 208.155936,87.9257638 L208.155936,87.9257638 L208.155936,20.9257638 C208.153933,20.6400478 208.312331,20.3773396 208.565955,20.2457638 L208.565955,20.2457638 Z M319.165955,7.02576376 C319.307825,6.95725993 319.474885,6.96612464 319.608709,7.04925767 C319.742533,7.1323907 319.824504,7.278227 319.82596,7.43576376 L319.82596,7.43576376 L319.82596,69.5957638 C319.827022,69.8814463 319.663548,70.1422265 319.405955,70.2657638 L319.405955,70.2657638 L311.175955,74.3857638 C311.034085,74.4542676 310.867025,74.4454029 310.733201,74.3622699 C310.599378,74.2791368 310.517406,74.1333005 310.515927,73.9757638 L310.515927,73.9757638 L310.515927,11.8157638 C310.513459,11.527167 310.676781,11.2627403 310.935955,11.1357638 L310.935955,11.1357638 Z M163.891807,27.6717165 C172.579466,19.0669385 186.446267,18.6579573 195.625955,26.7357638 L195.625955,26.7357638 L202.855955,23.1257638 C202.995758,23.0519958 203.164014,23.0569889 203.299196,23.1389174 C203.434377,23.2208458 203.51666,23.3676944 203.515974,23.5257638 L203.515974,23.5257638 L203.515974,62.6157638 C203.517978,62.9014797 203.35958,63.1641879 203.105955,63.2957638 L203.105955,63.2957638 L194.875955,67.4057638 C194.734085,67.4742676 194.567025,67.4654029 194.433201,67.3822699 C194.299378,67.2991368 194.217406,67.1533005 194.215955,66.9957638 L194.215955,66.9957638 L194.215955,62.8057638 C184.433709,70.1423358 170.641149,68.6521319 162.651706,59.395435 C154.662264,50.1387382 155.204148,36.2764945 163.891807,27.6717165 Z M333.115955,0.0457637627 C333.257825,-0.0227400724 333.424885,-0.0138753628 333.558709,0.0692576694 C333.692533,0.152390702 333.774504,0.298226995 333.775974,0.455763763 L333.775974,0.455763763 L333.775974,62.6157638 C333.777978,62.9014797 333.61958,63.1641879 333.365955,63.2957638 L333.365955,63.2957638 L325.135955,67.4057638 C324.994085,67.4742676 324.827025,67.4654029 324.693201,67.3822699 C324.559378,67.2991368 324.477406,67.1533005 324.475927,66.9957638 L324.475927,66.9957638 L324.475927,4.83576376 C324.473459,4.54716703 324.636781,4.28274028 324.895955,4.15576376 L324.895955,4.15576376 Z M282.605955,20.8957638 C295.452099,20.8957638 305.865955,31.3096205 305.865955,44.1557638 C305.865955,53.5635556 300.198838,62.0449956 291.507172,65.6452017 C282.815506,69.2454078 272.810965,67.2553809 266.158652,60.6030675 C259.506338,53.9507541 257.516311,43.9462134 261.116517,35.2545471 C264.716723,26.5628808 273.198163,20.8957638 282.605955,20.8957638 Z M361.695955,20.8957638 C367.871828,20.8957638 373.794169,23.3518448 378.157417,27.7225961 C382.520665,32.0933473 384.966576,38.0199006 384.95599,44.1957638 C384.933873,57.0366769 374.510258,67.4304638 361.669334,67.4157641 C348.828411,67.4010332 338.428645,56.9833834 338.43599,44.1424534 C338.443342,31.3015233 348.855023,20.8957638 361.695955,20.8957638 Z M236.657821,30.7804528 C231.355126,28.5866562 225.252276,29.8178126 221.214826,33.8958401 C217.177376,37.9738676 216.007308,44.0887235 218.254021,49.3692155 C220.500733,54.6497074 225.717948,58.0469399 231.455955,57.9657638 L231.455955,57.9657638 L231.455955,58.0057638 C235.175976,57.9872786 238.735683,56.4889963 241.349227,53.8416801 C243.962772,51.1943639 245.41523,47.6157156 245.385955,43.8957638 C245.409749,38.1572321 241.960515,32.9742494 236.657821,30.7804528 Z M287.852817,30.7693705 C282.55682,28.5901512 276.469192,29.8230727 272.438469,33.8912235 C268.407747,37.9593743 267.231143,44.0581378 269.459218,49.3337665 C271.687293,54.6093952 276.879368,58.0184522 282.605955,57.9657638 L282.605955,57.9657638 L282.605955,58.0057638 C286.348629,58.0057638 289.935591,56.5077307 292.566042,53.8453382 C295.196494,51.1829458 296.651402,47.5781617 296.605955,43.8357638 C296.605713,38.1089343 293.148813,32.9485897 287.852817,30.7693705 Z M366.942817,30.7693705 C361.64682,28.5901512 355.559192,29.8230727 351.528469,33.8912235 C347.497747,37.9593743 346.321143,44.0581378 348.549218,49.3337665 C350.777293,54.6093952 355.969368,58.0184522 361.695955,57.9657638 L361.695955,57.9657638 L361.695955,58.0057638 C365.438629,58.0057638 369.025591,56.5077307 371.656042,53.8453382 C374.286494,51.1829458 375.741402,47.5781617 375.695955,43.8357638 C375.695713,38.1089343 372.238813,32.9485897 366.942817,30.7693705 Z M185.502817,30.8093705 C180.20682,28.6301512 174.119192,29.8630727 170.088469,33.9312235 C166.057747,37.9993743 164.881143,44.0981378 167.109218,49.3737665 C169.337293,54.6493952 174.529368,58.0584522 180.255955,58.0057638 C183.99162,58.0059248 187.572419,56.5130971 190.201697,53.859404 C192.830976,51.2057108 194.290644,47.6112677 194.255955,43.8757638 C194.255713,38.1489343 190.798813,32.9885897 185.502817,30.8093705 Z" id="形状结合"></path>
            <g id="编组-3" transform="translate(0.000000, 109.000000)">
                <path d="M392.7,21.31 C392.793378,20.8617727 392.679738,20.3953333 392.390655,20.040286 C392.101573,19.6852387 391.66785,19.4794133 391.21,19.48 L374.39,19.48 L374.39,7.79 L385.85,7.79 L385.85,11.28 L381.9,11.28 L383.53,16.28 L389.53,16.28 C390.6078,16.2806603 391.492277,15.4271402 391.53,14.35 L391.53,9.74 L391.53,2.34 L368.84,2.34 L368.84,46.68 L374.41,46.68 L374.41,42.68 C375.549711,43.8590848 376.528221,45.18394 377.32,46.62 C379.731367,45.1974583 381.912873,43.4171876 383.79,41.34 C385.851565,43.4616456 388.209336,45.2737612 390.79,46.72 C391.815122,45.0470095 393.040876,43.5055816 394.44,42.13 C391.696763,40.8878552 389.218325,39.1291826 387.14,36.95 C389.63,32.91 391.53,27.3 392.7,21.31 Z M374.39,42 L374.39,24.76 L374.69,24.76 C376.031127,29.0780119 377.955569,33.1926828 380.41,36.99 C378.705638,38.9930207 376.669246,40.6877581 374.39,42 L374.39,42 Z M383.47,32.43 C381.920773,30.0162547 380.646194,27.4369087 379.67,24.74 L386.67,24.74 C385.918587,27.4297911 384.844093,30.0186497 383.47,32.45 L383.47,32.43 Z" id="形状"></path>
                <path d="M366.11,2.32 L350.57,2.32 L350.57,20.22 C350.57,27.42 350.46,38.95 346.21,46.7 L352.05,46.7 C354.05,42.21 355.05,36.14 355.5,30.37 L360.68,30.37 L360.68,41.86 L356.06,41.86 L357.63,46.69 L364.2,46.69 C365.235433,46.6908899 366.087081,45.8745439 366.13,44.84 L366.13,39.84 L366.11,2.32 Z M360.68,24.86 L355.77,24.86 C355.77,23.23 355.77,21.7 355.77,20.22 L355.77,18.89 L360.6,18.89 L360.68,24.86 Z M360.68,13.47 L355.85,13.47 L355.85,7.74 L360.68,7.74 L360.68,13.47 Z" id="形状"></path>
                <path d="M439.65,7.4 L436.08,5.28 L416.67,5.28 C417.536229,4.1556603 418.343966,2.98744577 419.09,1.78 L413.09,0.54 C410.57,4.73 405.98,9.17 399.03,12.33 C400.387349,13.6618573 401.53384,15.1927591 402.43,16.87 C404.371429,15.8760525 406.236536,14.7396075 408.01,13.47 C409.555403,15.0484116 411.296167,16.422876 413.19,17.56 C408.041895,18.8559331 402.793037,19.7123434 397.5,20.12 C398.488054,21.7179607 399.251864,23.4441027 399.77,25.25 C406.644837,24.4969496 413.421841,23.0255823 419.99,20.86 C426.389521,23.048711 433.064704,24.3278687 439.82,24.66 C440.685433,22.8190633 441.780838,21.0953118 443.08,19.53 C437.789467,19.3585184 432.523442,18.7328852 427.34,17.66 C432.228524,15.3104046 436.458086,11.7851968 439.65,7.4 L439.65,7.4 Z M419.97,15.54 C416.92771,14.4418593 414.153216,12.7103567 411.83,10.46 L412.18,10.16 L430.09,10.16 C427.028238,12.486358 423.610925,14.3030717 419.97,15.54 Z" id="形状"></path>
                <path d="M436.77,27.92 L421.14,27.92 C421.48,26.73 421.73,25.55 421.98,24.22 L415.91,23.72 C415.71,25.25 415.42,26.59 415.12,27.92 L401.12,27.92 L401.12,32.92 L412.91,32.92 C411.49,37.85 406.82,41.51 398.85,42.47 C400.07,43.69 402.69,46.07 403.32,46.72 C412.6,44.62 416.32,40.72 419.37,32.92 L432.54,32.92 C432.535018,32.9865736 432.535018,33.0534264 432.54,33.12 L431.26,41.92 L421.16,41.92 L422.93,46.8400311 L434.93,46.8400311 C436.096252,46.846199 437.056821,45.9254689 437.1,44.76 L438.73,30.39 C438.73,30.39 438.73,30.39 438.73,30.31 L438.73,30.31 C438.846709,29.7229827 438.69439,29.1145497 438.314866,28.6517628 C437.935342,28.1889759 437.368506,27.9204807 436.77,27.92 L436.77,27.92 Z" id="路径"></path>
                <path d="M342.66,7.4 L339.08,5.28 L319.68,5.28 C320.56,4.14 321.35,2.96 322.09,1.78 L316.09,0.54 C313.58,4.73 308.99,9.17 302.09,12.33 C303.447349,13.6618573 304.59384,15.1927591 305.49,16.87 C307.429528,15.8783545 309.291479,14.7417958 311.06,13.47 C312.607502,15.0460749 314.347953,16.4202926 316.24,17.56 C311.095283,18.8559419 305.849745,19.7123563 300.56,20.12 C301.543979,21.7201061 302.307535,23.445676 302.83,25.25 C309.704837,24.4969496 316.481841,23.0255823 323.05,20.86 C329.449283,23.0496081 336.124594,24.3287902 342.88,24.66 C343.745569,22.8213827 344.83735,21.0980495 346.13,19.53 C340.842722,19.3591789 335.579962,18.7335361 330.4,17.66 C335.270329,15.303508 339.482092,11.7788192 342.66,7.4 L342.66,7.4 Z M322.98,15.54 C319.936504,14.4443444 317.161514,12.7125323 314.84,10.46 L315.19,10.16 L333.09,10.16 C330.033095,12.4882327 326.618751,14.3051635 322.98,15.54 L322.98,15.54 Z" id="形状"></path>
                <path d="M339.77,27.92 L324.13,27.92 C324.477249,26.7029039 324.757668,25.4677258 324.97,24.22 L318.91,23.72 C318.71,25.25 318.41,26.59 318.12,27.92 L304.12,27.92 L304.12,32.92 L315.91,32.92 C314.49,37.85 309.82,41.51 301.85,42.47 C303.07,43.69 305.69,46.07 306.32,46.72 C315.6,44.62 319.32,40.72 322.37,32.92 L335.54,32.92 C335.54,32.99 335.54,33.05 335.54,33.12 L334.26,41.92 L324.17,41.92 L325.93,46.8400008 L337.93,46.8400008 C339.094173,46.8410017 340.051717,45.9231715 340.1,44.76 L341.73,30.39 C341.73,30.39 341.73,30.39 341.73,30.31 L341.73,30.31 C341.846709,29.7229827 341.69439,29.1145497 341.314866,28.6517628 C340.935342,28.1889759 340.368506,27.9204807 339.77,27.92 L339.77,27.92 Z" id="路径"></path>
                <path d="M472.51,40.25 L472.51,28.8 L483.51,28.8 C484.79,30.42 484.36,29.97 485.24,31.1 L489.24,27.61 C486.64217,24.2903733 483.772241,21.1929904 480.66,18.35 L476.59,21.02 C477.52,21.91 478.09,22.54 479.03,23.58 L464.17,23.58 C470.54,20.37 476.95,17.46 482.77,12.87 L478.53,9.07 C476.295662,10.9730531 473.958833,12.7523813 471.53,14.4 L461.67,14.9 C464.603062,12.8306531 467.371349,10.5371201 469.95,8.04 C475.841378,7.50902932 481.690942,6.5869964 487.46,5.28 L483.32,0.44 C474.98,2.44 461.32,3.7 449.24,4.14 C449.920771,5.78283436 450.384673,7.50733874 450.62,9.27 C454.27,9.17 458.02,8.98 461.81,8.73 C459.902706,10.5329614 457.841536,12.1658366 455.65,13.61 C454.57411,14.5362452 453.285877,15.1820791 451.9,15.49 C452.567867,17.1184595 453.129053,18.7886552 453.58,20.49 C454.66,20.04 455.78,19.75 463.58,19.26 C460.44,20.91 458.17,22.05 456.69,22.74 C453.58,24.32 451.9,23.98 449.92,24.22 C450.41597,25.704522 450.793814,27.2259274 451.05,28.77 L466.55,28.77 L466.55,41.84 L462.49,41.84 L463.71,46.620002 L470.42,46.620002 C471.543681,46.621528 472.47142,45.7421537 472.53,44.62 L472.53,40.31 C472.53,40.31 472.51,40.28 472.51,40.25 Z" id="路径"></path>
                <path d="M456.68,31.62 C453.923876,35.104599 450.500433,38.004497 446.61,40.15 C448.420438,41.3123007 450.135819,42.6163913 451.74,44.05 C455.81029,41.144025 459.461219,37.6916258 462.59,33.79 L456.68,31.62 Z" id="路径"></path>
                <path d="M479.91,31.37 L475.12,34.53 C479.033469,37.3327904 482.655037,40.522183 485.93,44.05 L491.1,40.59 C488.69,37.88 483.71,34 479.91,31.37 Z" id="路径"></path>
                <path d="M535.77,41.9 L534.09,41.9 C533.4,41.9 533.3,41.71 533.3,40.18 L533.3,25.3 L527.53,25.3 L527.53,40.23 C527.53,45.16 528.53,46.84 532.96,46.84 L536.36,46.84 C539.47,46.84 541.36,46.84 541.36,43.84 L541.36,37.33 C539.78,36.58 539.21,36.23 536.88,35.06 C536.83,41.55 537.03,41.9 535.77,41.9 Z" id="路径"></path>
                <path d="M509.77,42.07 C511.228969,43.4618239 512.430748,45.1003052 513.32,46.91 C522.32,42.81 523.58,35.71 523.98,25.35 L518.21,25.35 C517.94,33.74 517.25,38.92 509.77,42.07 Z" id="路径"></path>
                <path d="M516.17,17.77 C515.215072,18.4328309 514.099428,18.8265877 512.94,18.91 C513.445448,20.3488303 513.830112,21.8272796 514.09,23.33 L535.01,23.33 C535.495058,24.2026448 535.925875,25.104354 536.3,26.03 L541.52,24.22 C539.574977,20.2755895 537.207796,16.5538177 534.46,13.12 L529.98,15.34 C530.71,16.43 531.5,17.61 532.29,18.84 L522.53,18.84 C524.35,16.62 526.37,14.65 528.15,12.23 L540.47,12.23 L540.47,7 L530.96,7 C530.146449,4.72254497 529.191251,2.4982028 528.1,0.34 L522.58,1.73 C523.27,3.35 524.01,5.48 524.5,7 L513.5,7 L513.5,12.23 L521.24,12.23 C519.682687,14.1938559 517.988463,16.045139 516.17,17.77 L516.17,17.77 Z" id="路径"></path>
                <path d="M495.5,28.51 C496.247808,30.2712924 496.872639,32.0822988 497.37,33.93 C498.7,33.15 500.73,32.45 512.47,29.74 C512.29409,28.034524 512.29409,26.315476 512.47,24.61 L505.61,26.04 C508.745428,22.1093422 511.564261,17.9362655 514.04,13.56 L508.96,10.36 C508.128038,12.1159245 507.206836,13.8281599 506.2,15.49 L502.65,15.78 C505.494051,11.744887 507.891441,7.41281946 509.8,2.86 L503.8,0.1 C502.372789,4.69148773 500.402159,9.09603051 497.93,13.22 C496.85,14.8 496.06,15.83 494.93,16.08 C495.725721,17.9988645 496.420012,19.9582352 497.01,21.95 C497.75,21.55 498.93,21.26 502.78,20.81 C501.710432,22.3853775 500.555368,23.9009815 499.32,25.35 C497.86,27.18 496.77,28.21 495.5,28.51 Z" id="路径"></path>
                <path d="M512.37,33.29 C506.25,35.41 499.94,37.68 495.79,38.87 L497.72,44.29 C502.5,42.52 508.52,40.15 514.04,37.83 L512.37,33.29 Z" id="路径"></path>
                <path d="M13.77,42.81 C15.4053342,43.9066277 16.941231,45.1447144 18.36,46.51 C22.2440911,43.2694087 25.5596994,39.4028889 28.17,35.07 L22.77,33.39 C20.4809761,37.1396416 17.4114136,40.3524505 13.77,42.81 L13.77,42.81 Z" id="路径"></path>
                <path d="M11.25,0.69 C8.84231308,7.5641842 5.00848232,13.8516667 5.68434189e-14,19.14 C1.25425059,21.0663092 2.31284443,23.1131473 3.16,25.25 C4.16,24.12 5.23,22.94 6.26,21.6 L6.26,46.6 L12.04,46.6 L12.04,12.68 C13.8259337,9.36041226 15.4055943,5.9339179 16.77,2.42 L11.25,0.69 Z" id="路径"></path>
                <path d="M33.49,36 C36.6316162,39.2011901 39.365662,42.7782893 41.63,46.65 L46.56,43.54 C44.1403849,39.8616669 41.3307768,36.4552686 38.18,33.38 L33.49,36 Z" id="路径"></path>
                <path d="M40,15.83 L46.41,15.83 L46.41,10.21 L40,10.21 L40,0.94 L34.28,0.94 L34.28,10.21 L27.13,10.21 L27.13,1 L21.41,1 L21.41,10.22 L16.03,10.22 L16.03,15.84 L21.41,15.84 L21.41,25.66 L14.77,25.66 L14.77,31.38 L46.77,31.38 L46.77,25.66 L39.96,25.66 L40,15.83 Z M34.28,25.65 L27.13,25.65 L27.13,15.83 L34.28,15.83 L34.28,25.65 Z" id="形状"></path>
                <path d="M78.14,31.64 C79.3039988,31.3268011 80.0369486,30.1775012 79.83,28.99 C78.9826751,23.8684796 77.8407804,18.80007 76.41,13.81 L71.08,15.19 C72.6034014,20.9192614 73.7524942,26.7415544 74.52,32.62 L78.14,31.64 Z" id="路径"></path>
                <path d="M61.31,18.25 C63.2773715,23.976649 64.8543191,29.8300645 66.03,35.77 L71.56,33.46 C70.2175101,27.6200719 68.5244438,21.8663178 66.49,16.23 L61.31,18.25 Z" id="路径"></path>
                <path d="M93.92,15.69 L87.6,13.61 C85.83,21.95 82.23,33.89 77.44,41.24 L59.19,41.24 L59.19,46.77 L95.89,46.77 L95.89,41.24 L84.17,41.24 C88.51,34 91.6,23.53 93.92,15.69 Z" id="路径"></path>
                <path d="M59.93,11.84 L95.35,11.84 L95.35,6.26 L79.42,6.26 C78.73,4.26 77.74,1.92 76.85,0 L70.93,1.38 C71.57,2.86 72.26,4.59 72.81,6.26 L53.96,6.26 L53.96,19.53 C53.96,26.64 52.32,40.05 48.62,47 L55.28,47 C59.19,34.85 59.93,27.42 59.93,19.53 L59.93,11.84 Z" id="路径"></path>
                <path d="M129.92,40.14 C129.060734,39.7244709 128.234932,39.243032 127.45,38.7 C126.247618,37.7859815 124.846163,37.169204 123.36,36.9 L123.36,15 L115.99,15 L115.99,20.39 L118.9,20.39 L118.9,37 C116.378901,37.8650734 114.352823,39.7745427 113.34,42.24 L116,46.47 C117.14,43.12 119.41,41.8 121.12,41.8 C123.37,41.8 124.82,43.22 126.46,44.23 C129.46,45.97 131.63,46.04 136.53,46.04 C140.68,46.04 142.7,45.89 145.72,45.69 C146.11,43.83 146.37,42.55 146.63,40.69 C143.399892,41.0090266 140.155819,41.1658902 136.91,41.16 C133.38,41.13 132.29,41.28 129.92,40.14 Z" id="路径"></path>
                <path d="M126.32,14.86 C125.58,16.59 125.45,17.55 124.56,17.79 C124.898526,19.2916409 125.09605,20.8216195 125.15,22.36 L133.15,22.36 L133.15,27 L124.53,27 L124.53,32.13 L133.15,32.13 L133.15,38.74 L138.62,38.74 L138.62,32.13 L142.95,32.13 C144.292052,32.13 145.38,31.0420519 145.38,29.7 L145.38,27 L138.62,27 L138.62,22.37 L144.05,22.37 L144.05,17.58 L138.62,17.58 L138.62,12.4 L133.15,12.4 L133.15,17.58 L130.27,17.58 C131.16,15.51 132.14,13.14 133.03,10.73 L144.92,10.73 L144.92,5.6 L134.71,5.6 C135.15,4.12 135.5,2.6 135.84,1.16 L129.84,1.16 C129.64629,2.65290659 129.375933,4.13486365 129.03,5.6 L123.77,5.6 L123.77,10.73 L127.77,10.73 C127.16,12.64 126.62,14.17 126.32,14.86 Z" id="路径"></path>
                <path d="M122.62,11.36 C121.91,8.62 120.74,4.94 119.52,1.54 L114.68,3 C115.42,6 116.85,10.33 117.54,13 L122.62,11.36 Z" id="路径"></path>
                <path d="M112.92,33.6 L110,35.76 L110,29.36 L114.68,29.36 L114.68,24.36 L110,24.36 L110,19.23 L113.3,19.23 L113.3,14.3 L103.68,14.3 C104.533428,12.9802307 105.308112,11.6111773 106,10.2 L114,10.2 L114,5.2 L108,5.2 C108.4,4.07 108.74,2.98 109,1.9 L104.17,0.52 C103.08,4.76 101.35,8.95 99.09,11.76 C100.123148,13.4345372 100.996974,15.2022773 101.7,17.04 C102.04494,16.7039955 102.344175,16.3240687 102.59,15.91 L102.59,19.26 L104.86,19.26 L104.86,24.39 L100.47,24.39 L100.47,29.39 L104.86,29.39 L104.86,37.14 C104.86,39.75 103.56,40.38 102.53,41.22 C103.526684,42.8067331 104.418585,44.4569175 105.2,46.16 C105.2,46.06 107.47,43.39 115.26,37.61 C114.68,36.6 113.64,34.85 112.92,33.6 Z" id="路径"></path>
                <path d="M229.01,40.14 C228.152783,39.7266103 227.33014,39.2450632 226.55,38.7 C225.347618,37.7859815 223.946163,37.169204 222.46,36.9 L222.46,15 L215.08,15 L215.08,20.39 L217.99,20.39 L217.99,37 C215.470962,37.8684846 213.446106,39.7768021 212.43,42.24 L215.09,46.47 C216.23,43.12 218.51,41.8 220.22,41.8 C222.47,41.8 223.92,43.22 225.56,44.23 C228.56,45.97 230.72,46.04 235.62,46.04 C239.77,46.04 241.8,45.89 244.82,45.69 C245.21,43.83 245.46,42.55 245.72,40.69 C242.489892,41.0090266 239.245819,41.1658902 236,41.16 C232.47,41.13 231.39,41.28 229.01,40.14 Z" id="路径"></path>
                <path d="M221.77,11.36 C221.05,8.62 219.88,4.94 218.66,1.54 L213.77,3 C214.51,6 215.93,10.33 216.63,13 L221.77,11.36 Z" id="路径"></path>
                <path d="M212.01,33.6 L209.09,35.76 L209.09,29.36 L213.77,29.36 L213.77,24.36 L209.08,24.36 L209.08,19.23 L212.39,19.23 L212.39,14.3 L202.77,14.3 C203.623428,12.9802307 204.398112,11.6111773 205.09,10.2 L213.09,10.2 L213.09,5.2 L207.09,5.2 C207.48,4.07 207.83,2.98 208.09,1.9 L203.26,0.52 C202.18,4.76 200.45,8.95 198.18,11.76 C199.207866,13.4204054 200.075122,15.1750072 200.77,17 C201.117872,16.6666445 201.417437,16.2862976 201.66,15.87 L201.66,19.22 L203.93,19.22 L203.93,24.35 L199.57,24.35 L199.57,29.35 L203.96,29.35 L203.96,37.1 C203.96,39.71 202.67,40.34 201.63,41.18 C202.629783,42.7666497 203.525017,44.4168189 204.31,46.12 C204.31,46.02 206.58,43.35 214.37,37.57 C213.77,36.6 212.77,34.85 212.01,33.6 Z" id="路径"></path>
                <path d="M225.42,14.86 C224.68,16.59 224.54,17.55 223.66,17.79 C223.990925,19.2926958 224.185051,20.8222788 224.24,22.36 L232.24,22.36 L232.24,27 L223.63,27 L223.63,32.13 L232.24,32.13 L232.24,38.74 L237.77,38.74 L237.77,32.13 L242.03,32.13 C242.69212,32.1326591 243.328033,31.871495 243.797164,31.4042409 C244.266295,30.9369868 244.53,30.3021253 244.53,29.64 L244.53,27 L237.77,27 L237.77,22.37 L243.19,22.37 L243.19,17.58 L237.77,17.58 L237.77,12.4 L232.27,12.4 L232.27,17.58 L229.36,17.58 C230.25,15.51 231.24,13.14 232.13,10.73 L244.01,10.73 L244.01,5.6 L233.77,5.6 C234.22,4.12 234.56,2.6 234.91,1.16 L228.91,1.16 C228.66,2.98 228.48,3.82 228.09,5.6 L222.86,5.6 L222.86,10.73 L226.86,10.73 C226.26,12.64 225.71,14.17 225.42,14.86 Z" id="路径"></path>
                <path d="M289.91,41.64 L288.23,41.64 C287.54,41.64 287.44,41.44 287.44,39.91 L287.44,27.13 L290.34,27.13 C291.00743,27.1300053 291.647378,26.8641874 292.118383,26.391306 C292.589388,25.9184247 292.852659,25.2774243 292.85,24.61 L292.85,10.41 L288.12,10.41 C289.35,8.04 290.63,5.28 291.87,2.61 L285.8,0.69 C284.860235,4.0342645 283.621925,7.28733976 282.1,10.41 L276.82,10.41 L279.82,9.08 C278.703797,6.11136882 277.193608,3.30625128 275.33,0.74 L270.5,2.86 C272.024366,5.2463006 273.313734,7.77480049 274.35,10.41 L269.22,10.41 L269.22,27.13 L273.77,27.13 C273.27,33.84 271.94,39.02 264.77,42.13 C266.151264,43.4716607 267.315205,45.0202084 268.22,46.72 C276.8,42.72 278.68,35.82 279.37,27.14 L281.7,27.14 L281.7,40 C281.7,44.93 282.7,46.61 287.13,46.61 L290.53,46.61 C293.64,46.61 295.53,46.61 295.53,43.61 L295.53,37.1 C293.95,36.35 293.38,36 291.05,34.83 C290.99,41.28 291.19,41.64 289.91,41.64 Z M286.98,22 L274.77,22 L274.77,15.54 L286.95,15.54 L286.98,22 Z" id="形状"></path>
                <path d="M268.54,27.28 C267.6,26.14 263.54,21.9 262.22,20.72 L262.22,20 L268.14,20 L268.14,14.5 L262.22,14.5 L262.22,7.35 C264.265408,6.92212515 266.272169,6.32678593 268.22,5.57 L264.97,0.84 C259.940191,2.70052249 254.733007,4.04085307 249.43,4.84 C250.113123,6.29426665 250.642656,7.81583649 251.01,9.38 C252.78,9.18 254.66,8.89 256.58,8.54 L256.58,14.54 L249.33,14.54 L249.33,20 L255.49,20 C253.77,24.68 251.01,30 248.29,33.12 C249.424143,34.9246503 250.369142,36.8414573 251.11,38.84 C253.346827,35.7285923 255.184508,32.3488731 256.58,28.78 L256.58,46.63 L262.25,46.63 L262.25,26.49 C263.38339,28.2475453 264.405398,30.0744671 265.31,31.96 L268.54,27.28 Z" id="路径"></path>
                <path d="M184.34,21.54 L187.56,21.54 L187.56,20.17 C188.800209,20.8476397 190.079069,21.4520092 191.39,21.98 C192.600151,19.9005634 193.935963,17.8968459 195.39,15.98 C186,12.55 179.82,8.59 174.71,0.35 L170.43,0.35 C165.230683,7.95845389 157.870861,13.8344688 149.3,17.22 C150.808429,18.96412 152.223732,20.7866562 153.54,22.68 C154.875714,22.0411089 156.177456,21.3334953 157.44,20.56 L157.44,21.5 L169.19,21.5 L169.19,28.15 L157.96,28.15 L157.96,33.27 L169.21,33.27 L169.21,40.21 L151.5,40.21 L151.5,45.49 L193.43,45.49 L193.43,40.21 L175.43,40.21 L175.43,33.27 L187.07,33.27 L187.07,28.15 L175.47,28.15 L175.47,21.5 L184.34,21.54 Z M164.34,16.2 C167.532894,13.6200383 170.332366,10.5881183 172.65,7.2 C175.24,10.74 178.16,14.32 180.95,16.2 L164.34,16.2 Z" id="形状"></path>
            </g>
        </g>
    </g>
</svg>