<?xml version="1.0" encoding="UTF-8"?>
<svg width="509px" height="158px" viewBox="0 0 509 158" version="1.1" xmlns="http://www.w3.org/2000/svg" xmlns:xlink="http://www.w3.org/1999/xlink">
    <!-- Generator: Sketch 64 (93537) - https://sketch.com -->
    <title>编组 4</title>
    <desc>Created with Sketch.</desc>
    <g id="页面-1" stroke="none" stroke-width="1" fill="none" fill-rule="evenodd">
        <g id="编组-4" fill="#FFFFFF" fill-rule="nonzero">
            <g id="编组-2" transform="translate(0.000000, 109.000000)">
                <path d="M110.28,48.15 L140.44,48.15 C141.9146,48.15 143.11,46.9546003 143.11,45.48 L143.11,27.78 L110.28,27.78 L110.28,48.15 Z M116.49,33.15 L136.64,33.15 L136.64,42.57 L116.49,42.57 L116.49,33.15 Z" id="形状"></path>
                <path d="M129.05,1.43 L124.61,1.43 C118.87,9.43 112.02,15.24 102.61,18.95 C104.3,20.95 106.08,23.17 107.02,24.63 C109.26759,23.5188575 111.448008,22.2767206 113.55,20.91 L113.55,23.41 L139,23.41 L139,20.1 C141.349326,21.5287032 143.799071,22.7853257 146.33,23.86 C147.588557,21.7078992 148.981309,19.6371396 150.5,17.66 C140.79,14.1 134.36,9.99 129.05,1.43 Z M118.27,17.87 C121.27,15.68 124.55,11.78 126.9,8.48 C129.59,12.16 132.62,15.88 135.52,17.87 L118.27,17.87 Z" id="形状"></path>
                <path d="M175,36.32 C173.82,34.88 168.85,28.94 166.8,26.94 L166.9,26.02 L174,26.02 L174,20.22 L167.24,20.22 C167.29,19.22 167.29,18.22 167.29,17.22 L167.29,13.99 L173.44,13.99 L173.44,8.35 L167.29,8.35 L167.29,1.03 L161.5,1.03 L161.5,8.35 L154.89,8.35 L154.89,13.99 L161.5,13.99 L161.5,17.27 C161.5,18.2 161.5,19.17 161.5,20.19 L153.91,20.19 L153.91,25.99 L161.14,25.99 C160.47,32.29 158.58,39.11 153.45,43.67 C155.05415,44.8681364 156.502065,46.2623009 157.76,47.82 C161.96,43.77 164.32,38.54 165.7,33.16 C167.7,35.78 169.75,38.75 170.93,40.7 L175,36.32 Z" id="路径"></path>
                <path d="M181.57,8.08 L193.36,8.08 L193.36,30.01 L196.75,30.01 C198.242795,30.0100102 199.454492,28.8027849 199.46,27.31 L199.46,2.87 L175.78,2.87 L175.78,30.03 L181.57,30.03 L181.57,8.08 Z" id="路径"></path>
                <path d="M195.25,43.68 L192.84,43.68 C191.84,43.68 191.46,43.27 191.46,41.99 L191.46,28.42 L189.36,28.42 C190.031151,25.4672235 190.366611,22.4480834 190.36,19.42 L190.36,11.28 L184.72,11.28 L184.72,19.28 C184.72,27.12 183.29,37.22 170.22,43.99 C171.698941,45.2178487 172.977601,46.6685715 174.01,48.29 C179.055332,45.7414232 183.257078,41.7896981 186.11,36.91 L186.11,42.63 C186.11,47.04 187.75,48.27 191.8,48.27 L195.28,48.27 C200.28,48.27 200.93,46.56 200.93,38.17 C199.71,37.52 198.4,36.87 196.93,36.07 C196.79,42.24 196.48,43.68 195.25,43.68 Z" id="路径"></path>
                <path d="M247.33,21.56 L244.58,19.25 L231.9,19.25 L231.9,13.25 L248.06,13.25 C248.735381,13.252659 249.384012,12.9862269 249.862519,12.509596 C250.341027,12.0329651 250.610005,11.3853861 250.61,10.71 L250.61,7.21 L231.9,7.21 L231.9,0.49 L225.55,0.49 L225.55,7.21 L206.94,7.21 L206.94,13.21 L225.55,13.21 L225.55,19.21 L211.49,19.21 L211.49,25.21 C213.71,30.54 219.23,35.58 222.98,37.92 C217.062301,40.2700816 210.857601,41.8204158 204.53,42.53 C205.926597,44.2900841 207.033812,46.2614666 207.81,48.37 C215.112873,47.3416969 222.203177,45.1470791 228.81,41.87 C234.34,44.87 240.96,46.87 248.95,48.02 C249.952833,45.85558 251.244608,43.8371819 252.79,42.02 C246.757534,41.4503485 240.832041,40.0539378 235.18,37.87 C240.679422,33.6803532 244.889708,28.0285207 247.33,21.56 L247.33,21.56 Z M229.14,34.78 C225.14,32.27 221.58,30.01 218.7,25.25 L238.46,25.25 C236.17635,29.1386889 232.976848,32.410283 229.14,34.78 L229.14,34.78 Z" id="形状"></path>
                <path d="M280.24,21.43 L274.81,23.94 C277.249645,27.9085487 279.456696,32.0154664 281.42,36.24 L287.26,33.24 C285.72,30.19 282.55,25.17 280.24,21.43 Z" id="路径"></path>
                <path d="M268.19,0.87 C265.48,8.41 260.81,15.79 255.94,20.45 C257.294295,22.4770776 258.49434,24.6030639 259.53,26.81 C260.71,25.58 261.94,24.19 263.12,22.71 L263.12,48.39 L269.37,48.39 L269.37,13.12 C271.206603,9.77443531 272.833084,6.31774579 274.24,2.77 L268.19,0.87 Z" id="路径"></path>
                <path d="M298.38,1.13 L292,1.13 L292,11.59 L272.5,11.59 L272.5,17.74 L292,17.74 L292,41.01 L292,41.01 L292,42.75 L281.86,42.75 L283.69,48.4 L296.14,48.4 C297.34997,48.3956056 298.341823,47.4390184 298.39,46.23 L298.39,38.09 L298.39,17.74 L301.56,17.74 C302.924143,17.74 304.03,16.6341433 304.03,15.27 L304.03,11.59 L298.39,11.59 L298.38,1.13 Z" id="路径"></path>
                <path d="M354.31,22.07 C354.405985,21.6059208 354.288594,21.1232639 353.990193,20.755107 C353.691792,20.38695 353.243897,20.1721752 352.77,20.17 L335.29,20.17 L335.29,8.03 L347.19,8.03 L347.19,11.65 L343.09,11.65 L344.78,16.87 L351,16.87 C352.120022,16.8710389 353.04177,15.9889838 353.09,14.87 L353.09,10.08 L353.09,2.39 L329.5,2.39 L329.5,48.47 L335.29,48.47 L335.29,44.26 C336.466022,45.4887315 337.474732,46.8673016 338.29,48.36 C340.792118,46.8808439 343.054665,45.0296685 345,42.87 C347.14618,45.0726492 349.597935,46.9552472 352.28,48.46 C353.340379,46.7188039 354.613513,45.1164689 356.07,43.69 C353.220468,42.3963905 350.644295,40.5703284 348.48,38.31 C351.12,34.13 353.09,28.29 354.31,22.07 Z M335.31,43.6 L335.31,25.66 L335.62,25.66 C337.016071,30.1458092 339.014295,34.4214705 341.56,38.37 C339.786874,40.4614956 337.665666,42.2308605 335.29,43.6 L335.31,43.6 Z M344.74,33.6 C343.112873,31.090634 341.771216,28.4073216 340.74,25.6 L348.02,25.6 C347.248455,28.4065249 346.140415,31.1094716 344.72,33.65 L344.74,33.6 Z" id="形状"></path>
                <path d="M326.68,2.34 L310.53,2.34 L310.53,20.94 C310.53,28.42 310.41,40.4 306.01,48.45 L312.07,48.45 C314.17,43.78 315.2,37.45 315.66,31.45 L321,31.45 L321,43.39 L316.2,43.39 L317.83,48.39 L324.66,48.39 C325.734067,48.3908596 326.617038,47.5432078 326.66,46.47 L326.66,41.29 L326.68,2.34 Z M321,25.76 L316,25.76 C316,24.07 316,22.48 316,20.94 L316,19.56 L321,19.56 L321,25.76 Z M321,13.92 L316,13.92 L316,7.97 L321,7.97 L321,13.92 Z" id="形状"></path>
                <path d="M403.1,7.62 L399.38,5.41 L379.22,5.41 C380.118635,4.2405863 380.956413,3.025642 381.73,1.77 L375.53,0.49 C372.91,4.85 368.15,9.49 360.92,12.74 C362.334692,14.1228158 363.528611,15.714707 364.46,17.46 C366.476484,16.4276539 368.412004,15.2442791 370.25,13.92 C371.852336,15.5629859 373.66071,16.9915339 375.63,18.17 C370.282839,19.5236351 364.829585,20.4168983 359.33,20.84 C360.355866,22.5008268 361.149884,24.2940943 361.69,26.17 C368.829121,25.3819222 375.866958,23.8537063 382.69,21.61 C389.342782,23.8775198 396.279941,25.2036918 403.3,25.55 C404.204115,23.6416053 405.339286,21.8515274 406.68,20.22 C401.1845,20.0427461 395.714387,19.393693 390.33,18.28 C395.403651,15.838832 399.79164,12.1758744 403.1,7.62 Z M382.65,16.07 C379.485417,14.9341032 376.60075,13.1337435 374.19,10.79 L374.55,10.49 L393.16,10.49 C389.980664,12.9048548 386.431441,14.7892184 382.65,16.07 L382.65,16.07 Z" id="形状"></path>
                <path d="M400.12,28.94 L383.88,28.94 C384.239361,27.6733315 384.529787,26.3881122 384.75,25.09 L378.45,24.58 C378.24,26.17 377.94,27.58 377.63,28.94 L363.12,28.94 L363.12,34.11 L375.37,34.11 C373.9,39.24 369.05,43.04 360.76,44.04 C362.03,45.31 364.76,47.78 365.41,48.45 C375.05,46.27 378.96,42.2 382.09,34.11 L395.77,34.11 C395.765253,34.1799195 395.765253,34.2500805 395.77,34.32 L394.44,43.47 L383.95,43.47 L385.78,48.58 L398.23,48.58 C399.438325,48.580967 400.431667,47.6273588 400.48,46.42 L402.17,31.49 C402.174684,31.4601828 402.174684,31.4298172 402.17,31.4 L402.17,31.4 C402.286892,30.790799 402.124418,30.1612863 401.727303,29.6847478 C401.330187,29.2082093 400.740293,28.9348803 400.12,28.94 Z" id="路径"></path>
                <path d="M420.79,32.78 C417.930688,36.4055483 414.374045,39.4215552 410.33,41.65 C412.211204,42.8565943 413.993487,44.2108621 415.66,45.7 C419.890035,42.6795179 423.685457,39.0927095 426.94,35.04 L420.79,32.78 Z" id="路径"></path>
                <path d="M444.93,32.53 L439.93,35.81 C443.995098,38.7184164 447.754378,42.0320774 451.15,45.7 L456.53,42.11 C454.05,39.29 448.88,35.29 444.93,32.53 Z" id="路径"></path>
                <path d="M437.24,41.75 L437.24,29.87 L448.71,29.87 C450.04,31.56 449.6,31.09 450.52,32.26 L454.62,28.64 C451.915035,25.1914549 448.931694,21.9706511 445.7,19.01 L441.47,21.79 C442.47,22.71 443.03,23.37 444.01,24.45 L428.58,24.45 C435.19,21.12 441.85,18.09 447.9,13.32 L443.49,9.38 C441.183813,11.3509432 438.773693,13.1969218 436.27,14.91 L426.02,15.43 C429.067859,13.2766825 431.94628,10.893042 434.63,8.3 C440.750574,7.75023348 446.827489,6.79142395 452.82,5.43 L448.52,0.43 C439.86,2.48 425.61,3.81 413.1,4.27 C413.805396,5.97796671 414.289327,7.76918121 414.54,9.6 C418.33,9.5 422.22,9.3 426.17,9.04 C424.18577,10.9142693 422.040874,12.610778 419.76,14.11 C418.646778,15.075034 417.309317,15.7454835 415.87,16.06 C416.565341,17.7628172 417.146625,19.5100087 417.61,21.29 C418.74,20.83 419.9,20.52 427.95,20.01 C424.69,21.73 422.33,22.91 420.79,23.63 C417.56,25.27 415.79,24.91 413.79,25.17 C414.306493,26.7092522 414.697766,28.2877217 414.96,29.89 L431,29.89 L431,43.47 L426.78,43.47 L428.05,48.4700005 L435.05,48.4700005 C436.228938,48.4707869 437.196934,47.5381516 437.24,46.36 L437.24,41.89 C437.24,41.89 437.24,41.78 437.24,41.75 Z" id="路径"></path>
                <path d="M482.61,18.39 C481.619729,19.0788856 480.46294,19.4898048 479.26,19.58 C479.77414,21.0771131 480.171988,22.6116684 480.45,24.17 L502.18,24.17 C502.684625,25.075997 503.135407,26.0109518 503.53,26.97 L508.95,25.09 C506.922554,20.9975505 504.465387,17.1324578 501.62,13.56 L497,15.87 C497.76,17 498.58,18.23 499.4,19.51 L489.26,19.51 C491.15,17.2 493.26,15.15 495.1,12.64 L507.9,12.64 L507.9,7.21 L498,7.21 C497.141867,4.84438743 496.140001,2.53341532 495,0.29 L489.26,1.72 C489.97,3.41 490.74,5.62 491.26,7.21 L479.88,7.21 L479.88,12.64 L487.88,12.64 C486.260656,14.6781426 484.499623,16.5995734 482.61,18.39 Z" id="路径"></path>
                <path d="M503,42.42 L501.26,42.42 C500.54,42.42 500.44,42.21 500.44,40.62 L500.44,26.22 L494.44,26.22 L494.44,40.67 C494.44,45.8 495.52,47.54 500.08,47.54 L503.62,47.54 C506.85,47.54 508.78,47.54 508.78,44.48 L508.78,37.72 C507.14,36.94 506.55,36.58 504.13,35.36 C504.08,42.05 504.29,42.42 503,42.42 Z" id="路径"></path>
                <path d="M476,43.65 C477.517306,45.0841867 478.766845,46.7773296 479.69,48.65 C489.02,44.4 490.35,37.02 490.76,26.25 L484.76,26.25 C484.45,34.99 483.73,40.37 476,43.65 Z" id="路径"></path>
                <path d="M461.13,29.55 C461.907233,31.3835712 462.558739,33.2679277 463.08,35.19 C464.46,34.37 466.56,33.65 478.76,30.83 C478.584207,29.0576818 478.584207,27.2723182 478.76,25.5 L471.64,26.99 C474.890247,22.888594 477.818951,18.5423426 480.4,13.99 L475.12,10.66 C474.259439,12.4867635 473.301393,14.2659924 472.25,15.99 L468.56,16.3 C471.518152,12.1054209 474.012733,7.60243387 476,2.87 L469.8,0 C468.316793,4.77007357 466.268945,9.34583976 463.7,13.63 C462.57,15.27 461.7,16.35 460.63,16.63 C461.458398,18.62221 462.176158,20.6586432 462.78,22.73 C463.55,22.32 464.78,22.01 468.78,21.55 C467.669823,23.1840783 466.471377,24.7564119 465.19,26.26 C463.59,28.17 462.46,29.25 461.13,29.55 Z" id="路径"></path>
                <path d="M478.66,34.52 C472.3,36.73 465.74,39.09 461.44,40.32 L463.44,45.95 C468.44,44.11 474.66,41.65 480.44,39.24 L478.66,34.52 Z" id="路径"></path>
                <path d="M14.72,9.87 L4,9.87 L4,22.3 L39.76,22.3 C41.3008745,22.3 42.55,21.0508745 42.55,19.51 L42.55,9.87 L31.22,9.87 L31.22,7.12 L44.57,7.12 L44.57,2.39 L1.72,2.39 L1.72,7.12 L14.72,7.12 L14.72,9.87 Z M14.72,17.97 L9.62,17.97 L9.62,14.15 L14.72,14.15 L14.72,17.97 Z M31.22,14.15 L36.56,14.15 L36.56,17.97 L31.22,17.97 L31.22,14.15 Z M20.22,7.15 L25.51,7.15 L25.51,9.87 L20.22,9.87 L20.22,7.15 Z M20.22,14.15 L25.51,14.15 L25.51,17.97 L20.22,17.97 L20.22,14.15 Z" id="形状"></path>
                <path d="M29.64,39.47 C33.64,41.76 38.7,45.17 40.99,47.47 L45.83,44.06 C42.1695574,41.1344951 38.2306533,38.5755471 34.07,36.42 L29.64,39.47 Z" id="路径"></path>
                <path d="M10.39,36.31 C7.52925068,39.6007306 3.98294534,42.2254744 0,44 C1.60805896,45.2247546 3.10699579,46.5865119 4.48,48.07 C8.86127458,45.5108663 12.7437266,42.1806305 15.94,38.24 L10.39,36.31 Z" id="路径"></path>
                <path d="M88.19,17.47 L94.46,17.47 C95.9003571,17.4648209 97.0728326,16.3101102 97.1,14.87 L97.1,2.48 L69.1,2.48 L69.1,18.28 C69.1,26.28 68.97,40.18 62.57,48.43 L68.82,48.43 C72.69,42.67 74.09,34.48 74.65,27.04 L82.49,27.04 L82.49,31.93 L74.34,31.93 L74.34,48.24 L94.7,48.24 C96.1690774,48.24 97.36,47.0490774 97.36,45.58 L97.36,31.93 L88.19,31.93 L88.19,27.04 L98.53,27.04 L98.53,21.95 L88.19,21.95 L88.19,17.47 Z M75,21.95 C75,20.63 75,19.45 75,18.28 L75,17.47 L82.49,17.47 L82.49,21.95 L75,21.95 Z M91.91,36.95 L91.91,43.47 L79.58,43.47 L79.58,36.95 L91.91,36.95 Z M75.05,12.27 L75.05,7.62 L91.4,7.62 L91.4,12.27 L75.05,12.27 Z" id="形状"></path>
                <path d="M62.59,29.28 C64.32,28.77 66.09,28.21 67.77,27.7 L67.06,22.25 L62.58,23.48 L62.58,15.94 L67.67,15.94 L67.67,10.34 L62.58,10.34 L62.58,2.4 L57.05,2.4 L57.05,10.34 L51.73,10.34 L51.73,15.94 L57.05,15.94 L57.05,24.94 C54.72,25.55 52.69,26.05 50.91,26.46 L52.29,32.32 L57.05,30.95 L57.05,43.38 L53.49,43.38 L54.76,48.3800005 L60.43,48.3800005 C61.6089382,48.3807869 62.576934,47.4481516 62.62,46.27 L62.59,29.28 Z" id="路径"></path>
                <path d="M45.59,35.87 L45.59,31.17 L26.09,31.17 L26.09,28.98 L40.09,28.98 L40.09,24.39 L6.42,24.39 L6.42,28.98 L19.94,28.98 L19.94,31.17 L1,31.17 L1,35.87 L19.93,35.87 L19.93,43.32 L15.71,43.32 L16.98,48.3200005 L23.98,48.3200005 C25.1589382,48.3207869 26.126934,47.3881516 26.17,46.21 L26.17,35.89 L45.65,35.89 L45.59,35.87 Z" id="路径"></path>
            </g>
            <path d="M200.760556,16.2000025 C200.903276,16.1267714 201.073836,16.1331763 201.210661,16.216905 C201.347486,16.3006337 201.430812,16.4495921 201.430556,16.6100025 L201.430556,16.6100025 L201.430556,25.6100025 C205.464946,22.5741469 210.38156,20.9411286 215.430556,20.9600025 C225.544614,20.9803218 234.486341,27.5341494 237.550606,37.1728652 C240.614872,46.811581 237.099269,57.3257463 228.853705,63.1828138 C220.60814,69.0398812 209.522709,68.8972621 201.430556,62.8300025 L201.430556,62.8300025 L201.430556,83.6100025 C201.424683,83.8936575 201.2633,84.1511016 201.010556,84.2800025 L201.010556,84.2800025 L192.780556,88.4000025 C192.638686,88.4685063 192.471627,88.4596416 192.337803,88.3765086 C192.203979,88.2933755 192.122008,88.1475392 192.120528,87.9900025 L192.120528,87.9900025 L192.120528,20.9900025 C192.11806,20.7014057 192.281382,20.436979 192.540556,20.3100025 L192.540556,20.3100025 Z M303.160556,7.05000248 C303.301495,6.98604634 303.465149,6.9972527 303.596054,7.07982365 C303.726959,7.16239461 303.807566,7.30526016 303.810576,7.46000248 L303.810576,7.46000248 L303.810576,69.6200025 C303.812579,69.9057184 303.654181,70.1684266 303.400556,70.3000025 L303.400556,70.3000025 L295.170556,74.4100025 C295.028686,74.4785063 294.861627,74.4696416 294.727803,74.3865086 C294.593979,74.3033755 294.512008,74.1575392 294.510528,74.0000025 L294.510528,74.0000025 L294.510528,11.8400025 C294.50806,11.5514057 294.671382,11.286979 294.930556,11.1600025 L294.930556,11.1600025 Z M266.610556,20.9600025 C279.4567,20.9600025 289.870556,31.3738592 289.870556,44.2200025 C289.870556,57.0661458 279.4567,67.4800025 266.610556,67.4800025 C253.764413,67.4800025 243.350556,57.0661458 243.350556,44.2200025 C243.350556,31.3738592 253.764413,20.9600025 266.610556,20.9600025 Z M345.690556,20.9599938 C358.528889,20.9710415 368.930556,31.3816656 368.930556,44.2200025 C368.930556,53.6296136 363.261269,62.1123161 354.567148,65.7113472 C345.873026,69.3103782 335.866918,67.3166829 329.21618,60.660222 C322.565443,54.003761 320.580356,43.9959417 324.186864,35.3049189 C327.793373,26.6138961 336.280949,20.9519117 345.690556,20.9599938 Z M147.89631,27.687449 C156.586256,19.0850936 170.453057,18.6798306 179.630556,26.7600025 L179.630556,26.7600025 L186.860556,23.1500025 C186.996226,23.0836746 187.15581,23.0881621 187.287537,23.1620094 C187.419265,23.2358567 187.506356,23.3696565 187.520585,23.5200025 L187.520585,23.5200025 L187.520585,62.6400025 C187.523053,62.9285992 187.359731,63.193026 187.100556,63.3200025 L187.100556,63.3200025 L178.880556,67.4300025 C178.737837,67.5032336 178.567277,67.4968286 178.430452,67.4130999 C178.293627,67.3293713 178.210301,67.1804128 178.210556,67.0200025 L178.210556,67.0200025 L178.210556,62.8300025 C168.426246,70.1636878 154.63422,68.6695549 146.647433,59.4106717 C138.660647,50.1517885 139.206364,36.2898044 147.89631,27.687449 Z M317.120556,0.0700024759 C317.271531,-0.0244266781 317.463444,-0.0232364918 317.613235,0.0730579158 C317.763026,0.169352323 317.843784,0.34345075 317.820556,0.520002476 L317.820556,0.520002476 L317.820556,62.6400025 C317.823053,62.9285992 317.659731,63.193026 317.400556,63.3200025 L317.400556,63.3200025 L309.180556,67.4300025 C309.038686,67.4985063 308.871627,67.4896416 308.737803,67.4065086 C308.603979,67.3233755 308.522008,67.1775392 308.520517,67.0200025 L308.520517,67.0200025 L308.520517,4.86000248 C308.517632,4.57657926 308.676855,4.31638555 308.930556,4.19000248 L308.930556,4.19000248 Z M220.677418,30.8336092 C215.381421,28.6543899 209.293793,29.8873114 205.26307,33.9554622 C201.232348,38.0236131 200.055744,44.1223765 202.283819,49.3980052 C204.511894,54.6736339 209.703969,58.0826909 215.430556,58.0300025 C219.166221,58.0301635 222.74702,56.5373358 225.376298,53.8836427 C228.005577,51.2299495 229.465245,47.6355064 229.430556,43.9000025 C229.430314,38.173173 225.973414,33.0128285 220.677418,30.8336092 Z M271.857418,30.8336092 C266.561421,28.6543899 260.473793,29.8873114 256.44307,33.9554622 C252.412348,38.0236131 251.235744,44.1223765 253.463819,49.3980052 C255.691894,54.6736339 260.883969,58.0826909 266.610556,58.0300025 C270.346221,58.0301635 273.92702,56.5373358 276.556298,53.8836427 C279.185577,51.2299495 280.645245,47.6355064 280.610556,43.9000025 C280.610314,38.173173 277.153414,33.0128285 271.857418,30.8336092 Z M350.937418,30.8336092 C345.641421,28.6543899 339.553793,29.8873114 335.52307,33.9554622 C331.492348,38.0236131 330.315744,44.1223765 332.543819,49.3980052 C334.771894,54.6736339 339.963969,58.0826909 345.690556,58.0300025 C349.426221,58.0301635 353.00702,56.5373358 355.636298,53.8836427 C358.265577,51.2299495 359.725245,47.6355064 359.690556,43.9000025 C359.690314,38.173173 356.233414,33.0128285 350.937418,30.8336092 Z M169.445475,30.8292497 C164.143324,28.6531615 158.051899,29.8954233 154.025297,33.9739817 C149.998694,38.0525401 148.834627,44.1593903 151.07851,49.433208 C153.322393,54.7070258 158.52969,58.1030131 164.260556,58.0300025 C167.987547,58.0168526 171.55546,56.51816 174.173909,53.8659242 C176.792359,51.2136883 178.245188,47.6268554 178.210556,43.9000025 C178.210091,38.1686707 174.747626,33.005338 169.445475,30.8292497 Z" id="形状结合"></path>
        </g>
    </g>
</svg>