<?xml version="1.0" encoding="UTF-8"?>
<svg width="18px" height="18px" viewBox="0 0 18 18" version="1.1" xmlns="http://www.w3.org/2000/svg" xmlns:xlink="http://www.w3.org/1999/xlink">
    <title>Icons/Basic/Grid</title>
    <defs>
        <path d="M2.5,15 C3.32842712,15 4,15.6715729 4,16.5 C4,17.3284271 3.32842712,18 2.5,18 C1.67157288,18 1,17.3284271 1,16.5 C1,15.6715729 1.67157288,15 2.5,15 Z M16.5,15 C17.3284271,15 18,15.6715729 18,16.5 C18,17.3284271 17.3284271,18 16.5,18 C15.6715729,18 15,17.3284271 15,16.5 C15,15.6715729 15.6715729,15 16.5,15 Z M9.5,15 C10.3284271,15 11,15.6715729 11,16.5 C11,17.3284271 10.3284271,18 9.5,18 C8.67157288,18 8,17.3284271 8,16.5 C8,15.6715729 8.67157288,15 9.5,15 Z M2.5,8 C3.32842712,8 4,8.67157288 4,9.5 C4,10.3284271 3.32842712,11 2.5,11 C1.67157288,11 1,10.3284271 1,9.5 C1,8.67157288 1.67157288,8 2.5,8 Z M16.5,8 C17.3284271,8 18,8.67157288 18,9.5 C18,10.3284271 17.3284271,11 16.5,11 C15.6715729,11 15,10.3284271 15,9.5 C15,8.67157288 15.6715729,8 16.5,8 Z M9.5,8 C10.3284271,8 11,8.67157288 11,9.5 C11,10.3284271 10.3284271,11 9.5,11 C8.67157288,11 8,10.3284271 8,9.5 C8,8.67157288 8.67157288,8 9.5,8 Z M2.5,1 C3.32842712,1 4,1.67157288 4,2.5 C4,3.32842712 3.32842712,4 2.5,4 C1.67157288,4 1,3.32842712 1,2.5 C1,1.67157288 1.67157288,1 2.5,1 Z M16.5,1 C17.3284271,1 18,1.67157288 18,2.5 C18,3.32842712 17.3284271,4 16.5,4 C15.6715729,4 15,3.32842712 15,2.5 C15,1.67157288 15.6715729,1 16.5,1 Z M9.5,1 C10.3284271,1 11,1.67157288 11,2.5 C11,3.32842712 10.3284271,4 9.5,4 C8.67157288,4 8,3.32842712 8,2.5 C8,1.67157288 8.67157288,1 9.5,1 Z" id="path-1"></path>
    </defs>
    <g id="Icons/Basic/Grid" stroke="none" stroke-width="1" fill="none" fill-rule="evenodd">
        <mask id="mask-2" fill="white">
            <use xlink:href="#path-1"></use>
        </mask>
        <use id="Combined-Shape" fill="#111111" xlink:href="#path-1"></use>
    </g>
</svg>