<svg width="104" height="104" fill="none" xmlns="http://www.w3.org/2000/svg"><path d="M81.124 73.767 67.25 56.874v22.447l7.168-2.545 3.468 10.182" stroke="#0000F0" stroke-width="3" stroke-miterlimit="10" stroke-linecap="round" stroke-linejoin="round"/><path d="M58.926 74.462H20.774V31.419h61.968v13.19l-27.516 7.406v6.248H48.29v-6.248L27.48 46.46M82.742 44.61v18.975M60.544 26.096v-3.703c0-1.85-1.618-3.702-3.7-3.702H46.672c-2.081 0-3.7 1.62-3.7 3.703v3.702" stroke="#0000F0" stroke-width="3" stroke-miterlimit="10" stroke-linecap="round" stroke-linejoin="round"/><path d="M60.544 101.306c27.054-4.86 45.321-30.778 40.696-57.854C96.384 16.145 70.487-1.905 43.203 2.723 16.149 7.583-2.117 33.501 2.738 60.577 6.9 84.644 27.711 102 51.99 102" stroke="#0000F0" stroke-width="3" stroke-miterlimit="10" stroke-linecap="round" stroke-linejoin="round"/></svg>