<svg width="80" height="80" fill="none" xmlns="http://www.w3.org/2000/svg"><path d="M40 79.996c-22.055 0-40-17.945-40-40C0 17.94 17.945 0 40 0s40 17.945 40 40a39.968 39.968 0 0 1-27.24 37.922 1.59 1.59 0 0 1-2.012-1 1.59 1.59 0 0 1 1-2.012A36.794 36.794 0 0 0 76.826 40c0-20.305-16.518-36.823-36.823-36.823S3.182 19.695 3.182 40s16.517 36.823 36.822 36.823c1.68 0 3.368-.112 5.02-.34a1.588 1.588 0 1 1 .427 3.148c-1.792.245-3.626.369-5.447.369L40 79.996z" fill="#fff"/><path d="M51.934 52.502V28.916h2.63v7.944h3.177V25.743h-8.984v26.76H38.233V42.87h2.634v7.264h3.173V39.697h-8.98v12.805H24.959V34.96h2.634v7.09h3.173V31.782h-8.98v20.72h-4.518V23.203h-3.173v32.472h50.856v-3.174H51.934z" fill="#fff"/></svg>