<svg width="21" height="21" viewBox="0 0 21 21" fill="none" xmlns="http://www.w3.org/2000/svg">
<path d="M1.28783 21.8956C-0.064969 20.4587 -0.064969 18.1456 1.28783 16.7087L16.0037 1.0777C17.3565 -0.359232 19.5342 -0.359232 20.887 1.0777C22.2398 2.51462 22.2398 4.82773 20.887 6.26466L6.17112 21.8956C4.81832 23.3326 2.64063 23.3326 1.28783 21.8956Z" fill="#EF2043"/>
<path d="M20.887 21.8956C22.2398 20.4587 22.2398 18.1456 20.887 16.7087L6.17112 1.0777C4.81832 -0.359232 2.64063 -0.359232 1.28783 1.0777C-0.064969 2.51462 -0.064969 4.82773 1.28783 6.26466L16.0037 21.8956C17.3565 23.3326 19.5342 23.3326 20.887 21.8956Z" fill="#EF2043"/>
</svg>
