<svg width="80" height="80" fill="none" xmlns="http://www.w3.org/2000/svg"><path d="M40 79.996C17.945 79.996 0 62.056 0 40 0 17.945 17.945 0 40 0s40 17.945 40 40a39.968 39.968 0 0 1-27.24 37.922 1.59 1.59 0 0 1-2.012-1 1.59 1.59 0 0 1 1-2.012A36.794 36.794 0 0 0 76.826 40c0-20.305-16.518-36.823-36.823-36.823S3.174 19.695 3.174 40 19.69 76.823 39.995 76.823c1.68 0 3.368-.112 5.019-.34a1.588 1.588 0 1 1 .427 3.148c-1.792.245-3.625.369-5.446.369l.004-.004z" fill="#fff"/><path d="M58.339 38.747c.112-11.183-7.201-19.508-18.14-21.113-9.433-1.382-19.044 5.09-21.906 14.746-.058.2-.15.39-.19.589-.254 1.228-.942 1.867-2.212 1.46-1.161-.369-1.24-1.203-.962-2.315 1.87-7.483 6.458-12.738 13.382-15.845 16.132-7.239 34.163 5.135 33.354 22.79-.016.344-.12.684-.116 1.024.008 1.257-.348 2.298-1.837 2.124-1.423-.166-1.651-1.236-1.444-2.48.079-.474.075-.963.075-.988l-.004.008z" fill="#fff"/><path d="M52.772 38.411c0-11.842-11.913-19.04-22.271-13.31-4.098 2.264-6.658 5.881-7.243 10.68-.09.751-.265 1.498-.307 2.253-.058 1.029-.601 1.394-1.568 1.53-1.63.237-3.26.54-4.861.934-1.228.303-1.888-.253-2.186-1.286-.316-1.091.323-1.838 1.348-1.867 3.443-.09 4.28-2.26 5.123-5.185 3.538-12.274 19.927-16.439 29.21-7.645 4.331 4.103 6.364 9.047 6.094 14.958-.054 1.162.262 2.734-1.605 2.784-2.024.054-1.738-1.51-1.734-2.809v-1.037z" fill="#fff"/><path d="M50.657 39.22c-.07.564-.229 1.655-.328 2.746-.104 1.162-.635 1.817-1.863 1.647-1.223-.166-1.593-.991-1.414-2.095.311-1.92.427-3.82-.066-5.732-1.174-4.543-5.285-7.467-10.047-7.119-4.352.32-7.877 3.958-8.296 8.57-.49 5.368-2.647 7.525-8.093 8.006-1.05.091-2.008.436-2.987.764-1.074.36-1.9.09-2.314-1.046-.46-1.265.348-1.817 1.323-2.124 1.174-.373 2.38-.721 3.6-.858 3.85-.432 4.9-1.444 5.202-5.273.398-4.977 4.032-9.478 8.794-10.892 8.363-2.481 16.46 3.84 16.489 13.402v.004z" fill="#fff"/><path d="M45.194 38.424c-.266 1.767-.465 3.547-.818 5.297-.207 1.029-.419 1.995-.054 3.036.403 1.158-.186 1.9-1.273 2.17-1.108.274-1.622-.444-1.908-1.406-.34-1.141-.448-2.265-.212-3.464.357-1.821.693-3.667.8-5.517.142-2.43-1.53-4.343-3.645-4.463-2.112-.116-3.796 1.605-4.016 4.106-.65 7.409-4.923 11.69-12.423 12.482-.747.079-1.473.336-2.211.493-1.008.216-1.58-.331-1.87-1.194-.287-.838.028-1.477.841-1.863.95-.448 1.954-.663 2.99-.759 5.8-.539 8.94-3.75 9.38-9.582.257-3.434 2.43-6.081 5.612-6.84 2.929-.697 6.131.759 7.753 3.513.722 1.228.987 2.56 1.05 3.983l.004.008z" fill="#fff"/><path d="M39.486 39.316c-.448 8.366-7.297 15.692-15.614 16.704-1.012.124-1.99.162-2.235-1.166-.266-1.451.551-1.924 1.829-2.152 6.64-1.183 10.785-5.094 12.448-11.611.22-.859.25-1.767.303-2.659.079-1.253.46-2.198 1.954-2.049 1.472.145 1.427 1.232 1.352 2.31-.017.208-.025.415-.033.619l-.004.004zM33.612 55.103c3.405.042 5.023 2.398 6.96 4.173.531.486.266 1.315-.265 1.871-.515.54-1.137.855-1.825.353-.888-.648-1.805-1.29-2.564-2.079-1.087-1.124-2.17-1.281-3.5-.49-.764.457-1.581.847-2.42 1.142-.858.298-1.426-.17-1.824-.938-.365-.71-.403-1.456.29-1.837 1.73-.955 3.406-2.095 5.144-2.195h.004zM42.477 54.373c.05.718-.403 1.17-.917 1.506-.56.37-1.19.328-1.713-.133a11.011 11.011 0 0 1-2.709-3.575c-.303-.64-.162-1.22.39-1.651.485-.378.987-.735 1.676-.457.56.228 3.26 3.738 3.268 4.306l.005.004zM56.879 45.977c-4.862-.497-9.396 2.776-10.582 7.633-1.128 4.63 1.327 9.615 5.637 11.445 4.46 1.891 9.81.19 12.361-3.825.706-1.108.535-1.9-.356-2.696-.892-.722-1.668-.311-2.419.257-.601.456-1.099 1.037-1.659 1.539-2.56 2.29-5.957 2.153-8.3-.344-.415-.444-1.008-.913-.8-1.573.235-.755 1.024-.543 1.604-.551 3.09-.034 6.181-.013 9.276-.017.983 0 1.95-.062 2.882-.328a1.62 1.62 0 0 0 1.145-1.348c.046-.36.083-.726.063-1.082-.245-4.692-4.086-8.62-8.857-9.11h.005zm4.177 8.33c-3.364-.062-6.733-.042-10.1-.009-1.266.013-1.461-.518-.914-1.501 1.278-2.294 3.248-3.46 5.123-3.493 3.394.017 5.327 1.257 6.637 3.497.477.813.751 1.53-.75 1.502l.004.004z" fill="#fff"/></svg>