<svg width="84" height="84" fill="none" xmlns="http://www.w3.org/2000/svg"><path d="M28.305 41.264c-2.628 1.502-6.007.563-7.509-2.065-1.502-2.628-.563-6.007 2.065-7.509 2.628-1.502 6.008-.563 7.51 2.065.562.939.75 1.877.75 2.816M20.046 56.47c-2.629 1.501-6.008.563-7.51-2.065-1.501-2.629-.563-6.008 2.066-7.51 2.628-1.501 6.007-.563 7.508 2.066.564.938.751 1.877.751 2.816M36.565 56.47c-2.628 1.501-6.007.563-7.509-2.065-1.501-2.629-.563-6.008 2.065-7.51 2.628-1.501 6.007-.563 7.51 2.066.562.938.75 1.877.75 2.816M22.674 41.264l-2.629 5.632M28.305 41.264l2.628 5.632M61.532 41.264c-2.628 1.502-6.007.563-7.509-2.065-1.501-2.628-.563-6.007 2.065-7.509 2.628-1.502 6.007-.563 7.51 2.065.562.939.75 1.877.75 2.816M53.273 56.47c-2.629 1.501-6.008.563-7.51-2.065-1.501-2.629-.563-6.008 2.066-7.51 2.628-1.501 6.007-.563 7.508 2.066.564.938.751 1.877.751 2.816M69.792 56.47c-2.628 1.501-6.007.563-7.509-2.065-1.501-2.629-.563-6.008 2.065-7.51 2.628-1.501 6.007-.563 7.51 2.066.562.938.75 1.877.75 2.816M55.9 41.264l-2.627 5.632M61.532 41.264l2.628 5.632M47.64 21.365c0 3.004-2.44 5.444-5.63 5.444-3.192 0-5.633-2.44-5.633-5.444 0-3.003 2.44-5.444 5.632-5.444M38.067 25.12l-8.448 7.696M46.14 25.12l8.447 7.696" stroke="#fff" stroke-width="3" stroke-miterlimit="10" stroke-linecap="round" stroke-linejoin="round"/><path d="M49.143 81.437c21.775-3.755 36.418-24.592 32.663-46.368C78.052 13.293 57.215-1.16 35.251 2.593 13.475 6.348-1.167 27.185 2.587 48.961 5.967 68.109 22.674 82 42.197 82" stroke="#fff" stroke-width="3" stroke-miterlimit="10" stroke-linecap="round" stroke-linejoin="round"/></svg>