<svg width="104" height="104" fill="none" xmlns="http://www.w3.org/2000/svg"><path d="M62.407 57.882C60.371 61.502 56.525 63.99 52 63.99c-6.787 0-11.99-5.43-11.99-11.99 0-6.788 5.429-11.991 11.99-11.991 6.787 0 11.991 5.43 11.991 11.99H39.783M52.226 17.384v5.204M22.362 34.806l4.525 2.262M22.362 69.195l4.525-2.715M52.226 86.389v-4.977M82.09 69.195l-4.75-2.715M82.09 34.806l-4.75 2.262" stroke="#0000F0" stroke-width="3" stroke-miterlimit="10" stroke-linecap="round" stroke-linejoin="round"/><path d="M60.824 101.548C84.127 97.248 102 76.887 102 52c0-27.828-22.172-50-50-50C24.398 2 2 24.398 2 52s22.172 50 50 50" stroke="#0000F0" stroke-width="3" stroke-miterlimit="10" stroke-linecap="round" stroke-linejoin="round"/></svg>